<?xml version="1.0" encoding="us-ascii" standalone="no"?><svg xmlns="http://www.w3.org/2000/svg" xmlns:xlink="http://www.w3.org/1999/xlink" contentStyleType="text/css" height="1916px" preserveAspectRatio="none" style="width:1286px;height:1916px;" version="1.1" viewBox="0 0 1286 1916" width="1286px" zoomAndPan="magnify"><defs/><g><!--cluster SkillSpark Backend System--><g id="cluster_SkillSpark Backend System"><rect fill="none" height="949" rx="2.5" ry="2.5" style="stroke:#181818;stroke-width:1.0;" width="1198" x="82" y="521.12"/><text fill="#000000" font-family="sans-serif" font-size="14" font-weight="bold" lengthAdjust="spacing" textLength="188" x="587" y="537.6532">SkillSpark Backend System</text></g><!--cluster Authentication--><g id="cluster_Authentication"><rect fill="none" height="246" rx="2.5" ry="2.5" style="stroke:#181818;stroke-width:1.0;" width="208" x="119.5" y="1200.12"/><text fill="#000000" font-family="sans-serif" font-size="14" font-weight="bold" lengthAdjust="spacing" textLength="102" x="172.5" y="1216.6532">Authentication</text></g><!--cluster Learning Management--><g id="cluster_Learning Management"><rect fill="none" height="536" rx="2.5" ry="2.5" style="stroke:#181818;stroke-width:1.0;" width="201" x="749.5" y="565.12"/><text fill="#000000" font-family="sans-serif" font-size="14" font-weight="bold" lengthAdjust="spacing" textLength="157" x="771.5" y="581.6532">Learning Management</text></g><!--cluster Video Content--><g id="cluster_Video Content"><rect fill="none" height="272" rx="2.5" ry="2.5" style="stroke:#181818;stroke-width:1.0;" width="493.5" x="437.5" y="1125.12"/><text fill="#000000" font-family="sans-serif" font-size="14" font-weight="bold" lengthAdjust="spacing" textLength="100" x="634.25" y="1141.6532">Video Content</text></g><!--cluster User Preferences--><g id="cluster_User Preferences"><rect fill="none" height="361" rx="2.5" ry="2.5" style="stroke:#181818;stroke-width:1.0;" width="235" x="106" y="565.12"/><text fill="#000000" font-family="sans-serif" font-size="14" font-weight="bold" lengthAdjust="spacing" textLength="124" x="161.5" y="581.6532">User Preferences</text></g><!--cluster Data Management--><g id="cluster_Data Management"><rect fill="none" height="226" rx="2.5" ry="2.5" style="stroke:#181818;stroke-width:1.0;" width="182" x="132.5" y="950.12"/><text fill="#000000" font-family="sans-serif" font-size="14" font-weight="bold" lengthAdjust="spacing" textLength="126" x="160.5" y="966.6532">Data Management</text></g><!--cluster Topic Management--><g id="cluster_Topic Management"><rect fill="none" height="243" rx="2.5" ry="2.5" style="stroke:#181818;stroke-width:1.0;" width="201" x="1055" y="1203.12"/><text fill="#000000" font-family="sans-serif" font-size="14" font-weight="bold" lengthAdjust="spacing" textLength="133" x="1089" y="1219.6532">Topic Management</text></g><g id="elem_UC1"><ellipse cx="223.5069" cy="1254.0214" fill="#F1F1F1" rx="77.5069" ry="17.9014" style="stroke:#181818;stroke-width:0.5;"/><text fill="#000000" font-family="sans-serif" font-size="14" lengthAdjust="spacing" textLength="108" x="167.3567" y="1258.336">Register Account</text></g><g id="elem_UC2"><ellipse cx="223.734" cy="1323.0717" fill="#F1F1F1" rx="36.234" ry="15.4517" style="stroke:#181818;stroke-width:0.5;"/><text fill="#000000" font-family="sans-serif" font-size="14" lengthAdjust="spacing" textLength="35" x="206.234" y="1326.8002">Login</text></g><g id="elem_UC3"><ellipse cx="223.3528" cy="1402.0234" fill="#F1F1F1" rx="87.8528" ry="27.9034" style="stroke:#181818;stroke-width:0.5;"/><text fill="#000000" font-family="sans-serif" font-size="14" lengthAdjust="spacing" textLength="108" x="169.3528" y="1396.9472">Check Username</text><text fill="#000000" font-family="sans-serif" font-size="14" lengthAdjust="spacing" textLength="66" x="190.3528" y="1414.5566">Availability</text></g><g id="elem_UC4"><ellipse cx="849.9267" cy="920.9053" fill="#F1F1F1" rx="84.4267" ry="19.2853" style="stroke:#181818;stroke-width:0.5;"/><text fill="#000000" font-family="sans-serif" font-size="14" lengthAdjust="spacing" textLength="125" x="787.4267" y="924.6339">Generate Roadmap</text></g><g id="elem_UC5"><ellipse cx="849.876" cy="849.1952" fill="#F1F1F1" rx="73.376" ry="17.0752" style="stroke:#181818;stroke-width:0.5;"/><text fill="#000000" font-family="sans-serif" font-size="14" lengthAdjust="spacing" textLength="97" x="798.376" y="853.7118">Save Roadmap</text></g><g id="elem_UC6"><ellipse cx="850.0873" cy="995.2375" fill="#F1F1F1" rx="83.5873" ry="19.1175" style="stroke:#181818;stroke-width:0.5;"/><text fill="#000000" font-family="sans-serif" font-size="14" lengthAdjust="spacing" textLength="123" x="788.5873" y="998.966">View My Roadmaps</text></g><g id="elem_UC7"><ellipse cx="849.7877" cy="1067.1775" fill="#F1F1F1" rx="78.2877" ry="18.0575" style="stroke:#181818;stroke-width:0.5;"/><text fill="#000000" font-family="sans-serif" font-size="14" lengthAdjust="spacing" textLength="110" x="793.0149" y="1071.3974">Update Roadmap</text></g><g id="elem_UC8"><ellipse cx="850.2363" cy="619.3673" fill="#F1F1F1" rx="76.7363" ry="17.7473" style="stroke:#181818;stroke-width:0.5;"/><text fill="#000000" font-family="sans-serif" font-size="14" lengthAdjust="spacing" textLength="106" x="794.7006" y="623.7755">Delete Roadmap</text></g><g id="elem_UC9"><ellipse cx="849.876" cy="780.1952" fill="#F1F1F1" rx="73.376" ry="17.0752" style="stroke:#181818;stroke-width:0.5;"/><text fill="#000000" font-family="sans-serif" font-size="14" lengthAdjust="spacing" textLength="97" x="798.376" y="784.7118">Track Progress</text></g><g id="elem_UC10"><ellipse cx="849.8614" cy="700.0234" fill="#F1F1F1" rx="58.8614" ry="27.9034" style="stroke:#181818;stroke-width:0.5;"/><text fill="#000000" font-family="sans-serif" font-size="14" lengthAdjust="spacing" textLength="67" x="816.3614" y="694.9472">Mark Point</text><text fill="#000000" font-family="sans-serif" font-size="14" lengthAdjust="spacing" textLength="60" x="819.8614" y="712.5566">Complete</text></g><g id="elem_UC11"><ellipse cx="536.696" cy="1189.0234" fill="#F1F1F1" rx="82.196" ry="27.9034" style="stroke:#181818;stroke-width:0.5;"/><text fill="#000000" font-family="sans-serif" font-size="14" lengthAdjust="spacing" textLength="100" x="486.696" y="1183.9472">Generate Video</text><text fill="#000000" font-family="sans-serif" font-size="14" lengthAdjust="spacing" textLength="44" x="514.696" y="1201.5566">Playlist</text></g><g id="elem_UC12"><ellipse cx="536.669" cy="1271.1538" fill="#F1F1F1" rx="83.169" ry="19.0338" style="stroke:#181818;stroke-width:0.5;"/><text fill="#000000" font-family="sans-serif" font-size="14" lengthAdjust="spacing" textLength="122" x="475.669" y="1274.8823">Regenerate Videos</text></g><g id="elem_UC13"><ellipse cx="850.2254" cy="1210.0234" fill="#F1F1F1" rx="65.2254" ry="27.9034" style="stroke:#181818;stroke-width:0.5;"/><text fill="#000000" font-family="sans-serif" font-size="14" lengthAdjust="spacing" textLength="76" x="812.2254" y="1204.9472">View Videos</text><text fill="#000000" font-family="sans-serif" font-size="14" lengthAdjust="spacing" textLength="53" x="823.7254" y="1222.5566">by Level</text></g><g id="elem_UC14"><ellipse cx="536.3675" cy="1353.0234" fill="#F1F1F1" rx="79.3675" ry="27.9034" style="stroke:#181818;stroke-width:0.5;"/><text fill="#000000" font-family="sans-serif" font-size="14" lengthAdjust="spacing" textLength="96" x="488.3675" y="1347.9472">Paginate Video</text><text fill="#000000" font-family="sans-serif" font-size="14" lengthAdjust="spacing" textLength="47" x="512.8675" y="1365.5566">Results</text></g><g id="elem_UC15"><ellipse cx="223.7363" cy="619.3673" fill="#F1F1F1" rx="76.7363" ry="17.7473" style="stroke:#181818;stroke-width:0.5;"/><text fill="#000000" font-family="sans-serif" font-size="14" lengthAdjust="spacing" textLength="106" x="168.2006" y="623.7755">Manage Settings</text></g><g id="elem_UC16"><ellipse cx="223.2609" cy="700.0234" fill="#F1F1F1" rx="68.7609" ry="27.9034" style="stroke:#181818;stroke-width:0.5;"/><text fill="#000000" font-family="sans-serif" font-size="14" lengthAdjust="spacing" textLength="81" x="182.7609" y="694.9472">Set Learning</text><text fill="#000000" font-family="sans-serif" font-size="14" lengthAdjust="spacing" textLength="77" x="184.7609" y="712.5566">Preferences</text></g><g id="elem_UC17"><ellipse cx="223.4607" cy="882.0672" fill="#F1F1F1" rx="101.4607" ry="27.9472" style="stroke:#181818;stroke-width:0.5;"/><text fill="#000000" font-family="sans-serif" font-size="14" lengthAdjust="spacing" textLength="127" x="156.9607" y="877.7791">Configure Roadmap</text><text fill="#000000" font-family="sans-serif" font-size="14" lengthAdjust="spacing" textLength="38" x="201.4607" y="895.3885">Depth</text></g><g id="elem_UC18"><ellipse cx="223.5599" cy="791.0234" fill="#F1F1F1" rx="88.5599" ry="27.9034" style="stroke:#181818;stroke-width:0.5;"/><text fill="#000000" font-family="sans-serif" font-size="14" lengthAdjust="spacing" textLength="109" x="169.0599" y="785.9472">Set Video Length</text><text fill="#000000" font-family="sans-serif" font-size="14" lengthAdjust="spacing" textLength="70" x="188.5599" y="803.5566">Preference</text></g><g id="elem_UC19"><ellipse cx="223.3041" cy="1002.9808" fill="#F1F1F1" rx="69.8041" ry="16.3608" style="stroke:#181818;stroke-width:0.5;"/><text fill="#000000" font-family="sans-serif" font-size="14" lengthAdjust="spacing" textLength="87" x="176.8041" y="1007.4974">Clear All Data</text></g><g id="elem_UC20"><ellipse cx="223.5109" cy="1072.1222" fill="#F1F1F1" rx="73.0109" ry="17.0022" style="stroke:#181818;stroke-width:0.5;"/><text fill="#000000" font-family="sans-serif" font-size="14" lengthAdjust="spacing" textLength="96" x="172.5109" y="1076.6388">Delete Account</text></g><g id="elem_UC21"><ellipse cx="223.3525" cy="1141.9905" fill="#F1F1F1" rx="74.8525" ry="17.3705" style="stroke:#181818;stroke-width:0.5;"/><text fill="#000000" font-family="sans-serif" font-size="14" lengthAdjust="spacing" textLength="101" x="169.8525" y="1146.5071">Export Progress</text></g><g id="elem_UC22"><ellipse cx="1155.3173" cy="1267.0234" fill="#F1F1F1" rx="84.3173" ry="27.9034" style="stroke:#181818;stroke-width:0.5;"/><text fill="#000000" font-family="sans-serif" font-size="14" lengthAdjust="spacing" textLength="103" x="1103.8173" y="1261.9472">Create Learning</text><text fill="#000000" font-family="sans-serif" font-size="14" lengthAdjust="spacing" textLength="35" x="1137.8173" y="1279.5566">Topic</text></g><g id="elem_UC23"><ellipse cx="1155.341" cy="1346.2382" fill="#F1F1F1" rx="65.341" ry="15.6182" style="stroke:#181818;stroke-width:0.5;"/><text fill="#000000" font-family="sans-serif" font-size="14" lengthAdjust="spacing" textLength="75" x="1114.841" y="1350.7548">View Topics</text></g><g id="elem_UC24"><ellipse cx="1155.7113" cy="1413.2623" fill="#F1F1F1" rx="71.2113" ry="16.6423" style="stroke:#181818;stroke-width:0.5;"/><text fill="#000000" font-family="sans-serif" font-size="14" lengthAdjust="spacing" textLength="91" x="1107.2113" y="1417.7789">Search Topics</text></g><!--entity U--><g id="elem_U"><ellipse cx="20.5" cy="1000.62" fill="#F1F1F1" rx="8" ry="8" style="stroke:#181818;stroke-width:0.5;"/><path d="M20.5,1008.62 L20.5,1035.62 M7.5,1016.62 L33.5,1016.62 M20.5,1035.62 L7.5,1050.62 M20.5,1035.62 L33.5,1050.62 " fill="none" style="stroke:#181818;stroke-width:0.5;"/><text fill="#000000" font-family="sans-serif" font-size="14" lengthAdjust="spacing" textLength="29" x="6" y="1066.6532">User</text></g><g id="elem_GMN65"><path d="M748,461.62 L748,504.3231 L952,504.3231 L952,471.62 L942,461.62 L748,461.62 " fill="#FEFFDD" style="stroke:#181818;stroke-width:0.5;"/><path d="M942,461.62 L942,471.62 L952,471.62 L942,461.62 " fill="#FEFFDD" style="stroke:#181818;stroke-width:1.0;"/><text fill="#000000" font-family="sans-serif" font-size="13" lengthAdjust="spacing" textLength="168" x="754" y="480.1151">Uses AI (Gemini) to generate</text><text fill="#000000" font-family="sans-serif" font-size="13" lengthAdjust="spacing" textLength="183" x="754" y="496.4667">personalized learning roadmaps</text></g><g id="elem_GMN68"><path d="M442,461.62 L442,504.3231 L631,504.3231 L631,471.62 L621,461.62 L442,461.62 " fill="#FEFFDD" style="stroke:#181818;stroke-width:0.5;"/><path d="M621,461.62 L621,471.62 L631,471.62 L621,461.62 " fill="#FEFFDD" style="stroke:#181818;stroke-width:1.0;"/><text fill="#000000" font-family="sans-serif" font-size="13" lengthAdjust="spacing" textLength="168" x="448" y="480.1151">Searches YouTube for videos</text><text fill="#000000" font-family="sans-serif" font-size="13" lengthAdjust="spacing" textLength="140" x="448" y="496.4667">using AI-generated titles</text></g><g id="elem_GMN71"><path d="M766.5,383.62 L766.5,426.3231 L933.5,426.3231 L933.5,393.62 L923.5,383.62 L766.5,383.62 " fill="#FEFFDD" style="stroke:#181818;stroke-width:0.5;"/><path d="M923.5,383.62 L923.5,393.62 L933.5,393.62 L923.5,383.62 " fill="#FEFFDD" style="stroke:#181818;stroke-width:1.0;"/><text fill="#000000" font-family="sans-serif" font-size="13" lengthAdjust="spacing" textLength="146" x="772.5" y="402.1151">Tracks completion status</text><text fill="#000000" font-family="sans-serif" font-size="13" lengthAdjust="spacing" textLength="95" x="772.5" y="418.4667">with timestamps</text></g><!--link U to UC1--><g id="link_U_UC1"><path d="M27.61,1070.18 C34.3,1101.87 47.78,1146.06 74,1176.12 C100.99,1207.06 137.6809,1225.4763 170.2409,1237.6663 " fill="none" id="U-to-UC1" style="stroke:#181818;stroke-width:1.0;"/><polygon fill="#181818" points="175.86,1239.77,168.8338,1232.8684,171.1774,1238.0169,166.0289,1240.3605,175.86,1239.77" style="stroke:#181818;stroke-width:1.0;"/></g><!--link U to UC2--><g id="link_U_UC2"><path d="M24.36,1070.32 C29.86,1134.64 44.11,1258.49 74,1289.12 C103.46,1319.31 147.86,1325.0694 181.67,1325.1294 " fill="none" id="U-to-UC2" style="stroke:#181818;stroke-width:1.0;"/><polygon fill="#181818" points="187.67,1325.14,178.6771,1321.124,182.67,1325.1311,178.6629,1329.124,187.67,1325.14" style="stroke:#181818;stroke-width:1.0;"/></g><!--link U to UC3--><g id="link_U_UC3"><path d="M22.78,1070.22 C26.09,1147.07 37.41,1314 74,1356.12 C90.73,1375.37 109.5487,1385.1111 133.9487,1391.7211 " fill="none" id="U-to-UC3" style="stroke:#181818;stroke-width:1.0;"/><polygon fill="#181818" points="139.74,1393.29,132.099,1387.0759,134.914,1391.9826,130.0072,1394.7975,139.74,1393.29" style="stroke:#181818;stroke-width:1.0;"/></g><!--link U to UC4--><g id="link_U_UC4"><path d="M22.88,991.71 C27.32,874.59 42.81,534.36 74,496.12 C243.76,287.94 392.8,367.13 661,352.12 C686.29,350.7 699.69,334.61 718,352.12 C760.67,392.95 706.34,835.67 741.5,883.12 C750.99,895.92 759.5279,902.3076 774.4679,907.9576 " fill="none" id="U-to-UC4" style="stroke:#181818;stroke-width:1.0;"/><polygon fill="#181818" points="780.08,910.08,773.0768,903.155,775.4033,908.3114,770.247,910.6378,780.08,910.08" style="stroke:#181818;stroke-width:1.0;"/></g><!--link U to UC5--><g id="link_U_UC5"><path d="M22.88,991.71 C27.32,874.59 42.81,534.36 74,496.12 C159.98,390.68 525.9,338.23 661,322.12 C686.16,319.12 699.66,304.64 718,322.12 C757.61,359.88 708.3,770.61 741.5,814.12 C751.98,827.85 762.2331,834.4905 778.6831,839.6305 " fill="none" id="U-to-UC5" style="stroke:#181818;stroke-width:1.0;"/><polygon fill="#181818" points="784.41,841.42,777.0126,834.9179,779.6375,839.9288,774.6266,842.5538,784.41,841.42" style="stroke:#181818;stroke-width:1.0;"/></g><!--link U to UC6--><g id="link_U_UC6"><path d="M20.95,991.77 C20.39,894.71 24.02,647.22 74,585.12 C121.04,526.67 663.88,330.16 718,382.12 C764.21,426.48 703.25,906.74 741.5,958.12 C750.93,970.78 759.3352,977.0615 774.1752,982.5715 " fill="none" id="U-to-UC6" style="stroke:#181818;stroke-width:1.0;"/><polygon fill="#181818" points="779.8,984.66,772.7551,977.7775,775.1127,982.9196,769.9705,985.2772,779.8,984.66" style="stroke:#181818;stroke-width:1.0;"/></g><!--link U to UC7--><g id="link_U_UC7"><path d="M21.89,1070.34 C23.57,1196.71 32.12,1587.06 74,1623.12 C303.85,1821.06 557.61,1654.58 718,1397.12 C777.48,1301.64 685.8,1242.85 741.5,1145.12 C757.6,1116.87 783.2743,1098.8818 807.8543,1085.9018 " fill="none" id="U-to-UC7" style="stroke:#181818;stroke-width:1.0;"/><polygon fill="#181818" points="813.16,1083.1,803.3337,1083.7655,808.7386,1085.4348,807.0694,1090.8398,813.16,1083.1" style="stroke:#181818;stroke-width:1.0;"/></g><!--link U to UC8--><g id="link_U_UC8"><path d="M22.07,991.65 C24.39,853.05 34.97,394.2 74,342.12 C249.5,107.96 503.57,6 718,205.12 C769.76,253.19 710.44,458.68 741.5,522.12 C758.86,557.57 790.333,582.7445 815.963,599.4445 " fill="none" id="U-to-UC8" style="stroke:#181818;stroke-width:1.0;"/><polygon fill="#181818" points="820.99,602.72,815.6331,594.4554,816.8008,599.9904,811.2658,601.1581,820.99,602.72" style="stroke:#181818;stroke-width:1.0;"/></g><!--link U to UC9--><g id="link_U_UC9"><path d="M22.19,991.89 C24.81,862.51 36.05,455.07 74,411.12 C180.89,287.34 268.66,345.76 429.5,316.12 C556.04,292.8 624.69,203.53 718,292.12 C754.55,326.82 710.84,705.12 741.5,745.12 C752.01,758.83 762.2637,765.4584 778.7237,770.6084 " fill="none" id="U-to-UC9" style="stroke:#181818;stroke-width:1.0;"/><polygon fill="#181818" points="784.45,772.4,777.055,765.895,779.6781,770.907,774.6662,773.5301,784.45,772.4" style="stroke:#181818;stroke-width:1.0;"/></g><!--link U to UC10--><g id="link_U_UC10"><path d="M22.97,992.06 C27.85,869.81 44.89,500.05 74,455.12 C172.11,303.7 255.03,305.07 429.5,259.12 C553.57,226.44 624.69,161.07 718,249.12 C750.78,280.06 715.6,617.23 741.5,654.12 C754.04,671.98 769.3196,681.0475 789.4196,687.7675 " fill="none" id="U-to-UC10" style="stroke:#181818;stroke-width:1.0;"/><polygon fill="#181818" points="795.11,689.67,787.8427,683.0227,790.368,688.0846,785.3061,690.6099,795.11,689.67" style="stroke:#181818;stroke-width:1.0;"/></g><!--link U to UC11--><g id="link_U_UC11"><path d="M23.56,1070.32 C29.13,1168.97 46.01,1421.45 74,1446.12 C165.69,1526.94 248.4,1515.53 349,1446.12 C431.96,1388.88 359.62,1306.75 429.5,1234.12 C441.07,1222.09 450.8713,1215.4978 466.2313,1208.8678 " fill="none" id="U-to-UC11" style="stroke:#181818;stroke-width:1.0;"/><polygon fill="#181818" points="471.74,1206.49,461.8917,1206.3842,467.1494,1208.4715,465.0621,1213.7292,471.74,1206.49" style="stroke:#181818;stroke-width:1.0;"/></g><!--link U to UC12--><g id="link_U_UC12"><path d="M22.83,1070.39 C26.93,1179.81 41.15,1482.07 74,1511.12 C165.56,1592.08 236.27,1558.34 349,1511.12 C385.81,1495.7 394.61,1483.04 412,1447.12 C439.33,1390.68 389.88,1355.73 429.5,1307.12 C439.26,1295.14 447.5482,1289.1994 462.1082,1283.8494 " fill="none" id="U-to-UC12" style="stroke:#181818;stroke-width:1.0;"/><polygon fill="#181818" points="467.74,1281.78,457.9126,1281.1295,463.0468,1283.5045,460.6718,1288.6386,467.74,1281.78" style="stroke:#181818;stroke-width:1.0;"/></g><!--link U to UC13--><g id="link_U_UC13"><path d="M20.95,991.77 C20.39,894.71 24.02,647.22 74,585.12 C234.11,386.19 436.03,279.2 631,444.12 C744.04,539.73 674.11,969.29 741.5,1101.12 C759.1,1135.55 786.7546,1162.2872 811.3746,1182.1972 " fill="none" id="U-to-UC13" style="stroke:#181818;stroke-width:1.0;"/><polygon fill="#181818" points="816.04,1185.97,811.5572,1177.2005,812.1522,1182.826,806.5267,1183.421,816.04,1185.97" style="stroke:#181818;stroke-width:1.0;"/></g><!--link U to UC14--><g id="link_U_UC14"><path d="M22.3,1070.37 C25.12,1188.65 36.53,1535.55 74,1568.12 C166.25,1648.3 233.98,1609.46 349,1568.12 C438.05,1536.12 495.5993,1437.0725 520.2793,1386.4825 " fill="none" id="U-to-UC14" style="stroke:#181818;stroke-width:1.0;"/><polygon fill="#181818" points="522.91,1381.09,515.3689,1387.425,520.7177,1385.5838,522.559,1390.9326,522.91,1381.09" style="stroke:#181818;stroke-width:1.0;"/></g><!--link U to UC15--><g id="link_U_UC15"><path d="M21.55,991.91 C22.49,905.6 29.5,702.97 74,654.12 C92.46,633.85 114.3449,625.1952 140.9249,620.9552 " fill="none" id="U-to-UC15" style="stroke:#181818;stroke-width:1.0;"/><polygon fill="#181818" points="146.85,620.01,137.3323,617.4777,141.9124,620.7976,138.5925,625.3778,146.85,620.01" style="stroke:#181818;stroke-width:1.0;"/></g><!--link U to UC16--><g id="link_U_UC16"><path d="M23.74,991.85 C28.5,922.21 41.93,781.03 74,745.12 C94.55,722.12 120.5295,711.8311 149.4895,706.2211 " fill="none" id="U-to-UC16" style="stroke:#181818;stroke-width:1.0;"/><polygon fill="#181818" points="155.38,705.08,145.7835,702.8646,150.4713,706.0309,147.305,710.7186,155.38,705.08" style="stroke:#181818;stroke-width:1.0;"/></g><!--link U to UC17--><g id="link_U_UC17"><path d="M35.05,1012.36 C44.92,999.51 59.11,982.6 74,970.12 C104.09,944.9 136.965,925.2531 167.075,909.3431 " fill="none" id="U-to-UC17" style="stroke:#181818;stroke-width:1.0;"/><polygon fill="#181818" points="172.38,906.54,162.5538,907.208,167.9592,908.8759,166.2913,914.2813,172.38,906.54" style="stroke:#181818;stroke-width:1.0;"/></g><!--link U to UC18--><g id="link_U_UC18"><path d="M21.35,992.05 C23.33,948.34 33.25,878.16 74,836.12 C91.53,818.03 110.269,808.7298 134.359,802.1998 " fill="none" id="U-to-UC18" style="stroke:#181818;stroke-width:1.0;"/><polygon fill="#181818" points="140.15,800.63,130.417,799.124,135.3242,801.9381,132.51,806.8453,140.15,800.63" style="stroke:#181818;stroke-width:1.0;"/></g><!--link U to UC19--><g id="link_U_UC19"><path d="M35,1029.24 C60.7,1025.66 112.1274,1018.4982 156.6874,1012.2882 " fill="none" id="U-to-UC19" style="stroke:#181818;stroke-width:1.0;"/><polygon fill="#181818" points="162.63,1011.46,153.164,1008.7405,157.6779,1012.1501,154.2683,1016.664,162.63,1011.46" style="stroke:#181818;stroke-width:1.0;"/></g><!--link U to UC20--><g id="link_U_UC20"><path d="M35,1033.87 C61.76,1039.33 116.961,1050.5913 162.181,1059.8113 " fill="none" id="U-to-UC20" style="stroke:#181818;stroke-width:1.0;"/><polygon fill="#181818" points="168.06,1061.01,160.0406,1055.2926,163.1608,1060.0111,158.4423,1063.1313,168.06,1061.01" style="stroke:#181818;stroke-width:1.0;"/></g><!--link U to UC21--><g id="link_U_UC21"><path d="M35.15,1060.02 C44.07,1075.9 57.2,1094.65 74,1106.12 C97.22,1121.97 120.7829,1129.7635 147.3229,1134.7435 " fill="none" id="U-to-UC21" style="stroke:#181818;stroke-width:1.0;"/><polygon fill="#181818" points="153.22,1135.85,145.1121,1130.2588,148.3058,1134.9279,143.6367,1138.1216,153.22,1135.85" style="stroke:#181818;stroke-width:1.0;"/></g><!--link U to UC22--><g id="link_U_UC22"><path d="M21.96,1070.14 C23.91,1208.24 33.42,1668.27 74,1719.12 C117.26,1773.34 153.14,1767.12 222.5,1767.12 C222.5,1767.12 222.5,1767.12 851,1767.12 C1070.78,1767.12 891.34,1468.28 1047,1313.12 C1059.08,1301.08 1069.2928,1294.3713 1084.9728,1287.5913 " fill="none" id="U-to-UC22" style="stroke:#181818;stroke-width:1.0;"/><polygon fill="#181818" points="1090.48,1285.21,1080.6316,1285.1105,1085.8907,1287.1944,1083.8067,1292.4534,1090.48,1285.21" style="stroke:#181818;stroke-width:1.0;"/></g><!--link U to UC23--><g id="link_U_UC23"><path d="M21.76,1070.28 C23.07,1215.81 30.72,1719.95 74,1776.12 C117.65,1832.78 150.98,1838.12 222.5,1838.12 C222.5,1838.12 222.5,1838.12 851,1838.12 C902.79,1838.12 925.01,1832.63 958.5,1793.12 C1059.19,1674.33 1012.58,1605.58 1039,1452.12 C1041.77,1436.04 1036.6,1391.7 1047,1379.12 C1058.82,1364.83 1070.8692,1358.1334 1088.6492,1353.4334 " fill="none" id="U-to-UC23" style="stroke:#181818;stroke-width:1.0;"/><polygon fill="#181818" points="1094.45,1351.9,1084.7266,1350.3329,1089.616,1353.1778,1086.7711,1358.0672,1094.45,1351.9" style="stroke:#181818;stroke-width:1.0;"/></g><!--link U to UC24--><g id="link_U_UC24"><path d="M21.55,1070.18 C22.09,1224.11 27.27,1783.47 74,1846.12 C116.86,1903.59 150.81,1909.12 222.5,1909.12 C222.5,1909.12 222.5,1909.12 851,1909.12 C1081.17,1909.12 1141.3587,1521.6453 1151.9287,1435.5753 " fill="none" id="U-to-UC24" style="stroke:#181818;stroke-width:1.0;"/><polygon fill="#181818" points="1152.66,1429.62,1147.5928,1438.0653,1152.0505,1434.5827,1155.5332,1439.0405,1152.66,1429.62" style="stroke:#181818;stroke-width:1.0;"/></g><!--link UC4 to UC22--><g id="link_UC4_UC22"><path d="M913.3,934.1 C929.26,939.58 945.55,947.3 958.5,958.12 C974.91,971.84 970.97,981.79 982,1000.12 C1035.65,1089.25 1100.4726,1186.9005 1132.6926,1234.8305 " fill="none" id="UC4-to-UC22" style="stroke:#181818;stroke-width:1.0;stroke-dasharray:7.0,7.0;"/><polygon fill="#181818" points="1136.04,1239.81,1134.3386,1230.1092,1133.2505,1235.6604,1127.6993,1234.5724,1136.04,1239.81" style="stroke:#181818;stroke-width:1.0;"/><text fill="#000000" font-family="sans-serif" font-size="13" lengthAdjust="spacing" textLength="55" x="983" y="996.6151">&#171;include&#187;</text></g><!--link UC5 to UC22--><g id="link_UC5_UC22"><path d="M905.02,860.45 C923,865.81 942.5,873.44 958.5,884.12 C1004.25,914.66 1010.52,931.06 1039,978.12 C1092.85,1067.11 1129.3328,1179.9221 1144.9628,1233.2621 " fill="none" id="UC5-to-UC22" style="stroke:#181818;stroke-width:1.0;stroke-dasharray:7.0,7.0;"/><polygon fill="#181818" points="1146.65,1239.02,1147.9578,1229.2584,1145.244,1234.2218,1140.2806,1231.508,1146.65,1239.02" style="stroke:#181818;stroke-width:1.0;"/><text fill="#000000" font-family="sans-serif" font-size="13" lengthAdjust="spacing" textLength="55" x="983" y="899.6151">&#171;include&#187;</text></g><!--link UC11 to UC6--><g id="link_UC11_UC6"><path d="M565.08,1162.78 C602.42,1128.35 672.37,1068.09 741.5,1031.12 C758.08,1022.26 771.5267,1016.8327 789.0467,1011.2127 " fill="none" id="UC11-to-UC6" style="stroke:#181818;stroke-width:1.0;stroke-dasharray:7.0,7.0;"/><polygon fill="#181818" points="794.76,1009.38,784.9683,1008.3202,789.999,1010.9072,787.4119,1015.9379,794.76,1009.38" style="stroke:#181818;stroke-width:1.0;"/><text fill="#000000" font-family="sans-serif" font-size="13" lengthAdjust="spacing" textLength="55" x="662" y="1041.6151">&#171;include&#187;</text></g><!--link UC12 to UC13--><g id="link_UC12_UC13"><path d="M600.16,1258.85 C655.77,1247.96 730.4917,1233.3223 784.7617,1222.7023 " fill="none" id="UC12-to-UC13" style="stroke:#181818;stroke-width:1.0;stroke-dasharray:7.0,7.0;"/><polygon fill="#181818" points="790.65,1221.55,781.0493,1219.3529,785.7431,1222.5102,782.5857,1227.204,790.65,1221.55" style="stroke:#181818;stroke-width:1.0;"/><text fill="#000000" font-family="sans-serif" font-size="13" lengthAdjust="spacing" textLength="55" x="662" y="1233.6151">&#171;include&#187;</text></g><!--reverse link UC16 to UC4--><g id="link_UC16_UC4"><path d="M281.8859,720.4428 C374.9659,753.4028 571.17,822.87 741.5,883.12 C761.65,890.25 783.94,898.13 802.96,904.85 " fill="none" id="UC16-backto-UC4" style="stroke:#181818;stroke-width:1.0;stroke-dasharray:7.0,7.0;"/><polygon fill="#181818" points="276.23,718.44,283.3786,725.2147,280.9432,720.109,286.049,717.6736,276.23,718.44" style="stroke:#181818;stroke-width:1.0;"/><text fill="#000000" font-family="sans-serif" font-size="13" lengthAdjust="spacing" textLength="53" x="510" y="770.6151">&#171;extend&#187;</text></g><!--reverse link UC17 to UC11--><g id="link_UC17_UC11"><path d="M276.8862,909.9449 C302.5262,925.3149 328.02,944.02 349,970.12 C354.74,977.26 352.11,981.37 357,989.12 C400.63,1058.17 468.33,1126.54 506.59,1162.71 " fill="none" id="UC17-backto-UC11" style="stroke:#181818;stroke-width:1.0;stroke-dasharray:7.0,7.0;"/><polygon fill="#181818" points="271.74,906.86,277.4027,914.9182,276.0285,909.4308,281.5159,908.0566,271.74,906.86" style="stroke:#181818;stroke-width:1.0;"/><text fill="#000000" font-family="sans-serif" font-size="13" lengthAdjust="spacing" textLength="53" x="358" y="985.6151">&#171;extend&#187;</text></g><!--reverse link UC18 to UC11--><g id="link_UC18_UC11"><path d="M302.2062,809.1699 C320.7862,815.8499 334.09,823.15 349,836.12 C454.65,928 509.69,1094.67 528.21,1160.89 " fill="none" id="UC18-backto-UC11" style="stroke:#181818;stroke-width:1.0;stroke-dasharray:7.0,7.0;"/><polygon fill="#181818" points="296.56,807.14,303.676,813.949,301.2651,808.8316,306.3826,806.4208,296.56,807.14" style="stroke:#181818;stroke-width:1.0;"/><text fill="#000000" font-family="sans-serif" font-size="13" lengthAdjust="spacing" textLength="53" x="358" y="847.6151">&#171;extend&#187;</text></g><!--link UC4 to GMN65--><g id="link_UC4_GMN65"><path d="M771.02,914.03 C739.33,906.86 705.75,892.82 686.25,865.62 C618.14,770.62 633.29,706.82 686.25,602.62 C709.61,556.66 759.86,524.16 798.57,504.78 " fill="none" id="UC4-GMN65" style="stroke:#181818;stroke-width:1.0;stroke-dasharray:7.0,7.0;"/></g><!--link UC11 to GMN68--><g id="link_UC11_GMN68"><path d="M514.03,1161.86 C465.66,1099.89 358.48,942.9 389.25,802.62 C415.49,683.01 490.95,554.77 522.44,504.79 " fill="none" id="UC11-GMN68" style="stroke:#181818;stroke-width:1.0;stroke-dasharray:7.0,7.0;"/></g><!--link UC9 to GMN71--><g id="link_UC9_GMN71"><path d="M778.34,775.92 C744.66,769.91 707.36,756.56 686.25,727.62 C616.57,632.11 617.63,557.89 686.25,461.62 C704.75,435.66 736.01,421.51 766.28,413.85 " fill="none" id="UC9-GMN71" style="stroke:#181818;stroke-width:1.0;stroke-dasharray:7.0,7.0;"/></g><!--SRC=[VLPTQzjA47tNhvZcfUr3t4ZEvoK4N2TD0ywjYUr2mL3MqbXUlDeLkwiaxgN__OvMNvRa148OF6VEEJixtl57M3nEO64Gnep-tN8MQvR0MccORRaGivJfBNnbuHPb1BETiPXu7-6R4aAzS1cxyc1m1ZFBPCHqP2Zx8xKyuNymSZmJIfYGfVXbEft3LAD1QPdbIdhUXmZNN29CHhz-BEQ_9tVVvh-V7kw_pq7Wse9Le7cyiH1nZM5HqeDwdjboIJx9jzcmgF2rPiBWNcP5HuYrocGqLe9SMSsaeHHvsKEbX68npknE8EIIJCO2FO-5bcgeJHgOWONdrJauUhDFH_2V1q1_U-1HPZSaoKFNW081a1aCy_OVFM7CgLJ3A0p9gproScE_ZPgecCio5RHJums6MsTKiWINSlJCk60hBhZTbHL3glZRCpP1fcNUk4ScgGC9vk8TT_SeKJEByAHObB2q93njesRikOiuQoD-Sdo1nrq5CYNgl8rQf55VwwADkKM1FSnb6pFNT2iqTogcqQkqhjgOn_psfefBkvHZbQGvQzNxauFz-iaZL31MqhxRAGTRogbWEq4tMt7wlMjl5LGk_U10umh4KgvsCC5d51LssCPE6Gt9deKdD9cmDVFfmLEv2QUlw1hfYn6YwHsic0wOeRKqB3LRvu8f3TL0qU7t-GfyvwgfZMiUPxg-oQMynTHkAlX5dxxe_mHbR3Vx4bN9vS7ptJBBtflmiI3NC182ScJ5TNLmwDfVqU2a3RfxJPMstR4B_8EsvYhbuRk-DEPNsVJKLLIaXwR40MhPORU1J8UR3gQUYByUlU5k4aR6g92xfyh0frGPdeVbkowgT_spju3ZunltJbLHK4V3EZgjexCwEg-ZYpgwhAEhXlca2HiLlv7n6ns_4V8R9R-HyXijln7p6xMWKGlspjIe1OqQzOtQzI13aKMqG36b1K23o94wbY_7QZ5IbyQdC1WKJF0FN5_pekZcXb9dRwTylyoTzrD1cVA7dHnvkdkr-J9wtv9_3jU3GNuxZW1TJS5zKMP8lvkwV2D5glygIpflpGf5EvLPJn8ALifQbO1Qb_8qSmP63_3f7XCk-UTy_rSFurAcg8sIJBWV5g9QLxhS8Nr6vwsOTABzfR9vjaBdvhbyGJEJCumUZYkH22ot0W-GNH6NMoG6mc8_qE70qE-OZ8XUkDrGQOBqGK9U_WS0]--></g></svg>