<?xml version="1.0" encoding="us-ascii" standalone="no"?><svg xmlns="http://www.w3.org/2000/svg" xmlns:xlink="http://www.w3.org/1999/xlink" contentStyleType="text/css" height="1199px" preserveAspectRatio="none" style="width:1816px;height:1199px;" version="1.1" viewBox="0 0 1816 1199" width="1816px" zoomAndPan="magnify"><defs/><g><!--class User--><g id="elem_User"><rect codeLine="16" fill="#F1F1F1" height="224.0938" id="User" rx="2.5" ry="2.5" style="stroke:#181818;stroke-width:0.5;" width="257" x="7" y="573.5"/><ellipse cx="116.75" cy="589.5" fill="#ADD1B2" rx="11" ry="11" style="stroke:#181818;stroke-width:1.0;"/><path d="M119.5156,585.375 Q119.6719,585.1563 119.8594,585.0469 Q120.0469,584.9375 120.2656,584.9375 Q120.6406,584.9375 120.875,585.2031 Q121.1094,585.4531 121.1094,586.0625 L121.1094,587.5156 Q121.1094,588.125 120.875,588.3906 Q120.6406,588.6563 120.2656,588.6563 Q119.9219,588.6563 119.7188,588.4531 Q119.5156,588.2656 119.4063,587.75 Q119.3594,587.3906 119.1719,587.2031 Q118.8438,586.8281 118.2344,586.6094 Q117.625,586.3906 117,586.3906 Q116.2344,586.3906 115.5938,586.7188 Q114.9688,587.0469 114.4688,587.7969 Q113.9844,588.5469 113.9844,589.5781 L113.9844,590.6719 Q113.9844,591.9063 114.875,592.7344 Q115.7656,593.5469 117.3594,593.5469 Q118.2969,593.5469 118.9531,593.2969 Q119.3438,593.1406 119.7656,592.7031 Q120.0313,592.4375 120.1719,592.3594 Q120.3281,592.2813 120.5313,592.2813 Q120.8594,592.2813 121.1094,592.5469 Q121.375,592.7969 121.375,593.1406 Q121.375,593.4844 121.0313,593.8906 Q120.5313,594.4688 119.7344,594.7969 Q118.6563,595.25 117.3594,595.25 Q115.8438,595.25 114.6406,594.625 Q113.6563,594.125 112.9688,593.0625 Q112.2813,591.9844 112.2813,590.7031 L112.2813,589.5469 Q112.2813,588.2188 112.8906,587.0781 Q113.5156,585.9219 114.6094,585.3125 Q115.7031,584.6875 116.9375,584.6875 Q117.6719,584.6875 118.3125,584.8594 Q118.9688,585.0156 119.5156,585.375 Z " fill="#000000"/><text fill="#000000" font-family="sans-serif" font-size="14" lengthAdjust="spacing" textLength="29" x="137.25" y="595.2285">User</text><line style="stroke:#181818;stroke-width:0.5;" x1="8" x2="263" y1="605.5" y2="605.5"/><text fill="#000000" font-family="sans-serif" font-size="14" lengthAdjust="spacing" textLength="104" x="13" y="624.0332">-id : Integer {PK}</text><text fill="#000000" font-family="sans-serif" font-size="14" lengthAdjust="spacing" textLength="174" x="13" y="641.6426">-username : String {unique}</text><text fill="#000000" font-family="sans-serif" font-size="14" lengthAdjust="spacing" textLength="114" x="13" y="659.252">-password : String</text><text fill="#000000" font-family="sans-serif" font-size="14" lengthAdjust="spacing" textLength="146" x="13" y="676.8613">-created_at : DateTime</text><text fill="#000000" font-family="sans-serif" font-size="14" lengthAdjust="spacing" textLength="150" x="13" y="694.4707">-updated_at : DateTime</text><line style="stroke:#181818;stroke-width:0.5;" x1="8" x2="263" y1="701.5469" y2="701.5469"/><text fill="#000000" font-family="sans-serif" font-size="14" lengthAdjust="spacing" textLength="105" x="13" y="720.0801">+getId() : Integer</text><text fill="#000000" font-family="sans-serif" font-size="14" lengthAdjust="spacing" textLength="151" x="13" y="737.6895">+getUsername() : String</text><text fill="#000000" font-family="sans-serif" font-size="14" lengthAdjust="spacing" textLength="245" x="13" y="755.2988">+setPassword(password : String) : void</text><text fill="#000000" font-family="sans-serif" font-size="14" lengthAdjust="spacing" textLength="175" x="13" y="772.9082">+getCreatedAt() : DateTime</text><text fill="#000000" font-family="sans-serif" font-size="14" lengthAdjust="spacing" textLength="177" x="13" y="790.5176">+getUpdatedAt() : DateTime</text></g><!--class UserTopic--><g id="elem_UserTopic"><rect codeLine="30" fill="#F1F1F1" height="241.7031" id="UserTopic" rx="2.5" ry="2.5" style="stroke:#181818;stroke-width:0.5;" width="201" x="445" y="351.5"/><ellipse cx="509.25" cy="367.5" fill="#ADD1B2" rx="11" ry="11" style="stroke:#181818;stroke-width:1.0;"/><path d="M512.0156,363.375 Q512.1719,363.1563 512.3594,363.0469 Q512.5469,362.9375 512.7656,362.9375 Q513.1406,362.9375 513.375,363.2031 Q513.6094,363.4531 513.6094,364.0625 L513.6094,365.5156 Q513.6094,366.125 513.375,366.3906 Q513.1406,366.6563 512.7656,366.6563 Q512.4219,366.6563 512.2188,366.4531 Q512.0156,366.2656 511.9063,365.75 Q511.8594,365.3906 511.6719,365.2031 Q511.3438,364.8281 510.7344,364.6094 Q510.125,364.3906 509.5,364.3906 Q508.7344,364.3906 508.0938,364.7188 Q507.4688,365.0469 506.9688,365.7969 Q506.4844,366.5469 506.4844,367.5781 L506.4844,368.6719 Q506.4844,369.9063 507.375,370.7344 Q508.2656,371.5469 509.8594,371.5469 Q510.7969,371.5469 511.4531,371.2969 Q511.8438,371.1406 512.2656,370.7031 Q512.5313,370.4375 512.6719,370.3594 Q512.8281,370.2813 513.0313,370.2813 Q513.3594,370.2813 513.6094,370.5469 Q513.875,370.7969 513.875,371.1406 Q513.875,371.4844 513.5313,371.8906 Q513.0313,372.4688 512.2344,372.7969 Q511.1563,373.25 509.8594,373.25 Q508.3438,373.25 507.1406,372.625 Q506.1563,372.125 505.4688,371.0625 Q504.7813,369.9844 504.7813,368.7031 L504.7813,367.5469 Q504.7813,366.2188 505.3906,365.0781 Q506.0156,363.9219 507.1094,363.3125 Q508.2031,362.6875 509.4375,362.6875 Q510.1719,362.6875 510.8125,362.8594 Q511.4688,363.0156 512.0156,363.375 Z " fill="#000000"/><text fill="#000000" font-family="sans-serif" font-size="14" lengthAdjust="spacing" textLength="64" x="529.75" y="373.2285">UserTopic</text><line style="stroke:#181818;stroke-width:0.5;" x1="446" x2="645" y1="383.5" y2="383.5"/><text fill="#000000" font-family="sans-serif" font-size="14" lengthAdjust="spacing" textLength="104" x="451" y="402.0332">-id : Integer {PK}</text><text fill="#000000" font-family="sans-serif" font-size="14" lengthAdjust="spacing" textLength="140" x="451" y="419.6426">-user_id : Integer {FK}</text><text fill="#000000" font-family="sans-serif" font-size="14" lengthAdjust="spacing" textLength="84" x="451" y="437.252">-topic : String</text><text fill="#000000" font-family="sans-serif" font-size="14" lengthAdjust="spacing" textLength="146" x="451" y="454.8613">-created_at : DateTime</text><text fill="#000000" font-family="sans-serif" font-size="14" lengthAdjust="spacing" textLength="150" x="451" y="472.4707">-updated_at : DateTime</text><line style="stroke:#181818;stroke-width:0.5;" x1="446" x2="645" y1="479.5469" y2="479.5469"/><text fill="#000000" font-family="sans-serif" font-size="14" lengthAdjust="spacing" textLength="105" x="451" y="498.0801">+getId() : Integer</text><text fill="#000000" font-family="sans-serif" font-size="14" lengthAdjust="spacing" textLength="134" x="451" y="515.6895">+getUserId() : Integer</text><text fill="#000000" font-family="sans-serif" font-size="14" lengthAdjust="spacing" textLength="122" x="451" y="533.2988">+getTopic() : String</text><text fill="#000000" font-family="sans-serif" font-size="14" lengthAdjust="spacing" textLength="189" x="451" y="550.9082">+setTopic(topic : String) : void</text><text fill="#000000" font-family="sans-serif" font-size="14" lengthAdjust="spacing" textLength="175" x="451" y="568.5176">+getCreatedAt() : DateTime</text><text fill="#000000" font-family="sans-serif" font-size="14" lengthAdjust="spacing" textLength="177" x="451" y="586.127">+getUpdatedAt() : DateTime</text></g><!--class UserRoadmap--><g id="elem_UserRoadmap"><rect codeLine="45" fill="#F1F1F1" height="241.7031" id="UserRoadmap" rx="2.5" ry="2.5" style="stroke:#181818;stroke-width:0.5;" width="253" x="846" y="311.5"/><ellipse cx="923.25" cy="327.5" fill="#ADD1B2" rx="11" ry="11" style="stroke:#181818;stroke-width:1.0;"/><path d="M926.0156,323.375 Q926.1719,323.1563 926.3594,323.0469 Q926.5469,322.9375 926.7656,322.9375 Q927.1406,322.9375 927.375,323.2031 Q927.6094,323.4531 927.6094,324.0625 L927.6094,325.5156 Q927.6094,326.125 927.375,326.3906 Q927.1406,326.6563 926.7656,326.6563 Q926.4219,326.6563 926.2188,326.4531 Q926.0156,326.2656 925.9063,325.75 Q925.8594,325.3906 925.6719,325.2031 Q925.3438,324.8281 924.7344,324.6094 Q924.125,324.3906 923.5,324.3906 Q922.7344,324.3906 922.0938,324.7188 Q921.4688,325.0469 920.9688,325.7969 Q920.4844,326.5469 920.4844,327.5781 L920.4844,328.6719 Q920.4844,329.9063 921.375,330.7344 Q922.2656,331.5469 923.8594,331.5469 Q924.7969,331.5469 925.4531,331.2969 Q925.8438,331.1406 926.2656,330.7031 Q926.5313,330.4375 926.6719,330.3594 Q926.8281,330.2813 927.0313,330.2813 Q927.3594,330.2813 927.6094,330.5469 Q927.875,330.7969 927.875,331.1406 Q927.875,331.4844 927.5313,331.8906 Q927.0313,332.4688 926.2344,332.7969 Q925.1563,333.25 923.8594,333.25 Q922.3438,333.25 921.1406,332.625 Q920.1563,332.125 919.4688,331.0625 Q918.7813,329.9844 918.7813,328.7031 L918.7813,327.5469 Q918.7813,326.2188 919.3906,325.0781 Q920.0156,323.9219 921.1094,323.3125 Q922.2031,322.6875 923.4375,322.6875 Q924.1719,322.6875 924.8125,322.8594 Q925.4688,323.0156 926.0156,323.375 Z " fill="#000000"/><text fill="#000000" font-family="sans-serif" font-size="14" lengthAdjust="spacing" textLength="90" x="943.75" y="333.2285">UserRoadmap</text><line style="stroke:#181818;stroke-width:0.5;" x1="847" x2="1098" y1="343.5" y2="343.5"/><text fill="#000000" font-family="sans-serif" font-size="14" lengthAdjust="spacing" textLength="104" x="852" y="362.0332">-id : Integer {PK}</text><text fill="#000000" font-family="sans-serif" font-size="14" lengthAdjust="spacing" textLength="178" x="852" y="379.6426">-user_topic_id : Integer {FK}</text><text fill="#000000" font-family="sans-serif" font-size="14" lengthAdjust="spacing" textLength="144" x="852" y="397.252">-roadmap_data : JSON</text><text fill="#000000" font-family="sans-serif" font-size="14" lengthAdjust="spacing" textLength="146" x="852" y="414.8613">-created_at : DateTime</text><text fill="#000000" font-family="sans-serif" font-size="14" lengthAdjust="spacing" textLength="150" x="852" y="432.4707">-updated_at : DateTime</text><line style="stroke:#181818;stroke-width:0.5;" x1="847" x2="1098" y1="439.5469" y2="439.5469"/><text fill="#000000" font-family="sans-serif" font-size="14" lengthAdjust="spacing" textLength="105" x="852" y="458.0801">+getId() : Integer</text><text fill="#000000" font-family="sans-serif" font-size="14" lengthAdjust="spacing" textLength="169" x="852" y="475.6895">+getUserTopicId() : Integer</text><text fill="#000000" font-family="sans-serif" font-size="14" lengthAdjust="spacing" textLength="176" x="852" y="493.2988">+getRoadmapData() : JSON</text><text fill="#000000" font-family="sans-serif" font-size="14" lengthAdjust="spacing" textLength="241" x="852" y="510.9082">+setRoadmapData(data : JSON) : void</text><text fill="#000000" font-family="sans-serif" font-size="14" lengthAdjust="spacing" textLength="175" x="852" y="528.5176">+getCreatedAt() : DateTime</text><text fill="#000000" font-family="sans-serif" font-size="14" lengthAdjust="spacing" textLength="177" x="852" y="546.127">+getUpdatedAt() : DateTime</text></g><!--class UserVideo--><g id="elem_UserVideo"><rect codeLine="60" fill="#F1F1F1" height="382.5781" id="UserVideo" rx="2.5" ry="2.5" style="stroke:#181818;stroke-width:0.5;" width="331" x="1276" y="7"/><ellipse cx="1404.75" cy="23" fill="#ADD1B2" rx="11" ry="11" style="stroke:#181818;stroke-width:1.0;"/><path d="M1407.5156,18.875 Q1407.6719,18.6563 1407.8594,18.5469 Q1408.0469,18.4375 1408.2656,18.4375 Q1408.6406,18.4375 1408.875,18.7031 Q1409.1094,18.9531 1409.1094,19.5625 L1409.1094,21.0156 Q1409.1094,21.625 1408.875,21.8906 Q1408.6406,22.1563 1408.2656,22.1563 Q1407.9219,22.1563 1407.7188,21.9531 Q1407.5156,21.7656 1407.4063,21.25 Q1407.3594,20.8906 1407.1719,20.7031 Q1406.8438,20.3281 1406.2344,20.1094 Q1405.625,19.8906 1405,19.8906 Q1404.2344,19.8906 1403.5938,20.2188 Q1402.9688,20.5469 1402.4688,21.2969 Q1401.9844,22.0469 1401.9844,23.0781 L1401.9844,24.1719 Q1401.9844,25.4063 1402.875,26.2344 Q1403.7656,27.0469 1405.3594,27.0469 Q1406.2969,27.0469 1406.9531,26.7969 Q1407.3438,26.6406 1407.7656,26.2031 Q1408.0313,25.9375 1408.1719,25.8594 Q1408.3281,25.7813 1408.5313,25.7813 Q1408.8594,25.7813 1409.1094,26.0469 Q1409.375,26.2969 1409.375,26.6406 Q1409.375,26.9844 1409.0313,27.3906 Q1408.5313,27.9688 1407.7344,28.2969 Q1406.6563,28.75 1405.3594,28.75 Q1403.8438,28.75 1402.6406,28.125 Q1401.6563,27.625 1400.9688,26.5625 Q1400.2813,25.4844 1400.2813,24.2031 L1400.2813,23.0469 Q1400.2813,21.7188 1400.8906,20.5781 Q1401.5156,19.4219 1402.6094,18.8125 Q1403.7031,18.1875 1404.9375,18.1875 Q1405.6719,18.1875 1406.3125,18.3594 Q1406.9688,18.5156 1407.5156,18.875 Z " fill="#000000"/><text fill="#000000" font-family="sans-serif" font-size="14" lengthAdjust="spacing" textLength="65" x="1425.25" y="28.7285">UserVideo</text><line style="stroke:#181818;stroke-width:0.5;" x1="1277" x2="1606" y1="39" y2="39"/><text fill="#000000" font-family="sans-serif" font-size="14" lengthAdjust="spacing" textLength="104" x="1282" y="57.5332">-id : Integer {PK}</text><text fill="#000000" font-family="sans-serif" font-size="14" lengthAdjust="spacing" textLength="204" x="1282" y="75.1426">-user_roadmap_id : Integer {FK}</text><text fill="#000000" font-family="sans-serif" font-size="14" lengthAdjust="spacing" textLength="116" x="1282" y="92.752">-level : LevelEnum</text><text fill="#000000" font-family="sans-serif" font-size="14" lengthAdjust="spacing" textLength="122" x="1282" y="110.3613">-video_data : JSON</text><text fill="#000000" font-family="sans-serif" font-size="14" lengthAdjust="spacing" textLength="173" x="1282" y="127.9707">-page_number : Integer = 1</text><text fill="#000000" font-family="sans-serif" font-size="14" lengthAdjust="spacing" textLength="209" x="1282" y="145.5801">-generation_number : Integer = 1</text><text fill="#000000" font-family="sans-serif" font-size="14" lengthAdjust="spacing" textLength="146" x="1282" y="163.1895">-created_at : DateTime</text><text fill="#000000" font-family="sans-serif" font-size="14" lengthAdjust="spacing" textLength="150" x="1282" y="180.7988">-updated_at : DateTime</text><line style="stroke:#181818;stroke-width:0.5;" x1="1277" x2="1606" y1="187.875" y2="187.875"/><text fill="#000000" font-family="sans-serif" font-size="14" lengthAdjust="spacing" textLength="105" x="1282" y="206.4082">+getId() : Integer</text><text fill="#000000" font-family="sans-serif" font-size="14" lengthAdjust="spacing" textLength="195" x="1282" y="224.0176">+getUserRoadmapId() : Integer</text><text fill="#000000" font-family="sans-serif" font-size="14" lengthAdjust="spacing" textLength="154" x="1282" y="241.627">+getLevel() : LevelEnum</text><text fill="#000000" font-family="sans-serif" font-size="14" lengthAdjust="spacing" textLength="151" x="1282" y="259.2363">+getVideoData() : JSON</text><text fill="#000000" font-family="sans-serif" font-size="14" lengthAdjust="spacing" textLength="216" x="1282" y="276.8457">+setVideoData(data : JSON) : void</text><text fill="#000000" font-family="sans-serif" font-size="14" lengthAdjust="spacing" textLength="176" x="1282" y="294.4551">+getPageNumber() : Integer</text><text fill="#000000" font-family="sans-serif" font-size="14" lengthAdjust="spacing" textLength="245" x="1282" y="312.0645">+setPageNumber(page : Integer) : void</text><text fill="#000000" font-family="sans-serif" font-size="14" lengthAdjust="spacing" textLength="214" x="1282" y="329.6738">+getGenerationNumber() : Integer</text><text fill="#000000" font-family="sans-serif" font-size="14" lengthAdjust="spacing" textLength="319" x="1282" y="347.2832">+setGenerationNumber(generation : Integer) : void</text><text fill="#000000" font-family="sans-serif" font-size="14" lengthAdjust="spacing" textLength="175" x="1282" y="364.8926">+getCreatedAt() : DateTime</text><text fill="#000000" font-family="sans-serif" font-size="14" lengthAdjust="spacing" textLength="177" x="1282" y="382.502">+getUpdatedAt() : DateTime</text></g><!--class RoadmapProgress--><g id="elem_RoadmapProgress"><rect codeLine="83" fill="#F1F1F1" height="364.9688" id="RoadmapProgress" rx="2.5" ry="2.5" style="stroke:#181818;stroke-width:0.5;" width="300" x="1291.5" y="503"/><ellipse cx="1378.25" cy="519" fill="#ADD1B2" rx="11" ry="11" style="stroke:#181818;stroke-width:1.0;"/><path d="M1381.0156,514.875 Q1381.1719,514.6563 1381.3594,514.5469 Q1381.5469,514.4375 1381.7656,514.4375 Q1382.1406,514.4375 1382.375,514.7031 Q1382.6094,514.9531 1382.6094,515.5625 L1382.6094,517.0156 Q1382.6094,517.625 1382.375,517.8906 Q1382.1406,518.1563 1381.7656,518.1563 Q1381.4219,518.1563 1381.2188,517.9531 Q1381.0156,517.7656 1380.9063,517.25 Q1380.8594,516.8906 1380.6719,516.7031 Q1380.3438,516.3281 1379.7344,516.1094 Q1379.125,515.8906 1378.5,515.8906 Q1377.7344,515.8906 1377.0938,516.2188 Q1376.4688,516.5469 1375.9688,517.2969 Q1375.4844,518.0469 1375.4844,519.0781 L1375.4844,520.1719 Q1375.4844,521.4063 1376.375,522.2344 Q1377.2656,523.0469 1378.8594,523.0469 Q1379.7969,523.0469 1380.4531,522.7969 Q1380.8438,522.6406 1381.2656,522.2031 Q1381.5313,521.9375 1381.6719,521.8594 Q1381.8281,521.7813 1382.0313,521.7813 Q1382.3594,521.7813 1382.6094,522.0469 Q1382.875,522.2969 1382.875,522.6406 Q1382.875,522.9844 1382.5313,523.3906 Q1382.0313,523.9688 1381.2344,524.2969 Q1380.1563,524.75 1378.8594,524.75 Q1377.3438,524.75 1376.1406,524.125 Q1375.1563,523.625 1374.4688,522.5625 Q1373.7813,521.4844 1373.7813,520.2031 L1373.7813,519.0469 Q1373.7813,517.7188 1374.3906,516.5781 Q1375.0156,515.4219 1376.1094,514.8125 Q1377.2031,514.1875 1378.4375,514.1875 Q1379.1719,514.1875 1379.8125,514.3594 Q1380.4688,514.5156 1381.0156,514.875 Z " fill="#000000"/><text fill="#000000" font-family="sans-serif" font-size="14" lengthAdjust="spacing" textLength="118" x="1398.75" y="524.7285">RoadmapProgress</text><line style="stroke:#181818;stroke-width:0.5;" x1="1292.5" x2="1590.5" y1="535" y2="535"/><text fill="#000000" font-family="sans-serif" font-size="14" lengthAdjust="spacing" textLength="104" x="1297.5" y="553.5332">-id : Integer {PK}</text><text fill="#000000" font-family="sans-serif" font-size="14" lengthAdjust="spacing" textLength="140" x="1297.5" y="571.1426">-user_id : Integer {FK}</text><text fill="#000000" font-family="sans-serif" font-size="14" lengthAdjust="spacing" textLength="168" x="1297.5" y="588.752">-roadmap_id : Integer {FK}</text><text fill="#000000" font-family="sans-serif" font-size="14" lengthAdjust="spacing" textLength="104" x="1297.5" y="606.3613">-point_id : String</text><text fill="#000000" font-family="sans-serif" font-size="14" lengthAdjust="spacing" textLength="198" x="1297.5" y="623.9707">-is_completed : Boolean = false</text><text fill="#000000" font-family="sans-serif" font-size="14" lengthAdjust="spacing" textLength="226" x="1297.5" y="641.5801">-completed_at : DateTime {nullable}</text><text fill="#000000" font-family="sans-serif" font-size="14" lengthAdjust="spacing" textLength="146" x="1297.5" y="659.1895">-created_at : DateTime</text><text fill="#000000" font-family="sans-serif" font-size="14" lengthAdjust="spacing" textLength="150" x="1297.5" y="676.7988">-updated_at : DateTime</text><line style="stroke:#181818;stroke-width:0.5;" x1="1292.5" x2="1590.5" y1="683.875" y2="683.875"/><text fill="#000000" font-family="sans-serif" font-size="14" lengthAdjust="spacing" textLength="105" x="1297.5" y="702.4082">+getId() : Integer</text><text fill="#000000" font-family="sans-serif" font-size="14" lengthAdjust="spacing" textLength="134" x="1297.5" y="720.0176">+getUserId() : Integer</text><text fill="#000000" font-family="sans-serif" font-size="14" lengthAdjust="spacing" textLength="166" x="1297.5" y="737.627">+getRoadmapId() : Integer</text><text fill="#000000" font-family="sans-serif" font-size="14" lengthAdjust="spacing" textLength="130" x="1297.5" y="755.2363">+getPointId() : String</text><text fill="#000000" font-family="sans-serif" font-size="14" lengthAdjust="spacing" textLength="160" x="1297.5" y="772.8457">+isCompleted() : Boolean</text><text fill="#000000" font-family="sans-serif" font-size="14" lengthAdjust="spacing" textLength="272" x="1297.5" y="790.4551">+setCompleted(completed : Boolean) : void</text><text fill="#000000" font-family="sans-serif" font-size="14" lengthAdjust="spacing" textLength="192" x="1297.5" y="808.0645">+getCompletedAt() : DateTime</text><text fill="#000000" font-family="sans-serif" font-size="14" lengthAdjust="spacing" textLength="288" x="1297.5" y="825.6738">+setCompletedAt(dateTime : DateTime) : void</text><text fill="#000000" font-family="sans-serif" font-size="14" lengthAdjust="spacing" textLength="175" x="1297.5" y="843.2832">+getCreatedAt() : DateTime</text><text fill="#000000" font-family="sans-serif" font-size="14" lengthAdjust="spacing" textLength="177" x="1297.5" y="860.8926">+getUpdatedAt() : DateTime</text></g><!--class UserSettings--><g id="elem_UserSettings"><rect codeLine="105" fill="#F1F1F1" height="453.0156" id="UserSettings" rx="2.5" ry="2.5" style="stroke:#181818;stroke-width:0.5;" width="379" x="356" y="739"/><ellipse cx="501.25" cy="755" fill="#ADD1B2" rx="11" ry="11" style="stroke:#181818;stroke-width:1.0;"/><path d="M504.0156,750.875 Q504.1719,750.6563 504.3594,750.5469 Q504.5469,750.4375 504.7656,750.4375 Q505.1406,750.4375 505.375,750.7031 Q505.6094,750.9531 505.6094,751.5625 L505.6094,753.0156 Q505.6094,753.625 505.375,753.8906 Q505.1406,754.1563 504.7656,754.1563 Q504.4219,754.1563 504.2188,753.9531 Q504.0156,753.7656 503.9063,753.25 Q503.8594,752.8906 503.6719,752.7031 Q503.3438,752.3281 502.7344,752.1094 Q502.125,751.8906 501.5,751.8906 Q500.7344,751.8906 500.0938,752.2188 Q499.4688,752.5469 498.9688,753.2969 Q498.4844,754.0469 498.4844,755.0781 L498.4844,756.1719 Q498.4844,757.4063 499.375,758.2344 Q500.2656,759.0469 501.8594,759.0469 Q502.7969,759.0469 503.4531,758.7969 Q503.8438,758.6406 504.2656,758.2031 Q504.5313,757.9375 504.6719,757.8594 Q504.8281,757.7813 505.0313,757.7813 Q505.3594,757.7813 505.6094,758.0469 Q505.875,758.2969 505.875,758.6406 Q505.875,758.9844 505.5313,759.3906 Q505.0313,759.9688 504.2344,760.2969 Q503.1563,760.75 501.8594,760.75 Q500.3438,760.75 499.1406,760.125 Q498.1563,759.625 497.4688,758.5625 Q496.7813,757.4844 496.7813,756.2031 L496.7813,755.0469 Q496.7813,753.7188 497.3906,752.5781 Q498.0156,751.4219 499.1094,750.8125 Q500.2031,750.1875 501.4375,750.1875 Q502.1719,750.1875 502.8125,750.3594 Q503.4688,750.5156 504.0156,750.875 Z " fill="#000000"/><text fill="#000000" font-family="sans-serif" font-size="14" lengthAdjust="spacing" textLength="80" x="521.75" y="760.7285">UserSettings</text><line style="stroke:#181818;stroke-width:0.5;" x1="357" x2="734" y1="771" y2="771"/><text fill="#000000" font-family="sans-serif" font-size="14" lengthAdjust="spacing" textLength="104" x="362" y="789.5332">-id : Integer {PK}</text><text fill="#000000" font-family="sans-serif" font-size="14" lengthAdjust="spacing" textLength="191" x="362" y="807.1426">-user_id : Integer {FK, unique}</text><text fill="#000000" font-family="sans-serif" font-size="14" lengthAdjust="spacing" textLength="178" x="362" y="824.752">-full_name : String {nullable}</text><text fill="#000000" font-family="sans-serif" font-size="14" lengthAdjust="spacing" textLength="230" x="362" y="842.3613">-about_description : String {nullable}</text><text fill="#000000" font-family="sans-serif" font-size="14" lengthAdjust="spacing" textLength="188" x="362" y="859.9707">-theme : ThemeEnum = "light"</text><text fill="#000000" font-family="sans-serif" font-size="14" lengthAdjust="spacing" textLength="318" x="362" y="877.5801">-default_roadmap_depth : DepthEnum = "detailed"</text><text fill="#000000" font-family="sans-serif" font-size="14" lengthAdjust="spacing" textLength="340" x="362" y="895.1895">-default_video_length : VideoLengthEnum = "medium"</text><text fill="#000000" font-family="sans-serif" font-size="14" lengthAdjust="spacing" textLength="146" x="362" y="912.7988">-created_at : DateTime</text><text fill="#000000" font-family="sans-serif" font-size="14" lengthAdjust="spacing" textLength="150" x="362" y="930.4082">-updated_at : DateTime</text><line style="stroke:#181818;stroke-width:0.5;" x1="357" x2="734" y1="937.4844" y2="937.4844"/><text fill="#000000" font-family="sans-serif" font-size="14" lengthAdjust="spacing" textLength="105" x="362" y="956.0176">+getId() : Integer</text><text fill="#000000" font-family="sans-serif" font-size="14" lengthAdjust="spacing" textLength="134" x="362" y="973.627">+getUserId() : Integer</text><text fill="#000000" font-family="sans-serif" font-size="14" lengthAdjust="spacing" textLength="146" x="362" y="991.2363">+getFullName() : String</text><text fill="#000000" font-family="sans-serif" font-size="14" lengthAdjust="spacing" textLength="218" x="362" y="1008.8457">+setFullName(name : String) : void</text><text fill="#000000" font-family="sans-serif" font-size="14" lengthAdjust="spacing" textLength="195" x="362" y="1026.4551">+getAboutDescription() : String</text><text fill="#000000" font-family="sans-serif" font-size="14" lengthAdjust="spacing" textLength="301" x="362" y="1044.0645">+setAboutDescription(description : String) : void</text><text fill="#000000" font-family="sans-serif" font-size="14" lengthAdjust="spacing" textLength="174" x="362" y="1061.6738">+getTheme() : ThemeEnum</text><text fill="#000000" font-family="sans-serif" font-size="14" lengthAdjust="spacing" textLength="250" x="362" y="1079.2832">+setTheme(theme : ThemeEnum) : void</text><text fill="#000000" font-family="sans-serif" font-size="14" lengthAdjust="spacing" textLength="268" x="362" y="1096.8926">+getDefaultRoadmapDepth() : DepthEnum</text><text fill="#000000" font-family="sans-serif" font-size="14" lengthAdjust="spacing" textLength="341" x="362" y="1114.502">+setDefaultRoadmapDepth(depth : DepthEnum) : void</text><text fill="#000000" font-family="sans-serif" font-size="14" lengthAdjust="spacing" textLength="291" x="362" y="1132.1113">+getDefaultVideoLength() : VideoLengthEnum</text><text fill="#000000" font-family="sans-serif" font-size="14" lengthAdjust="spacing" textLength="367" x="362" y="1149.7207">+setDefaultVideoLength(length : VideoLengthEnum) : void</text><text fill="#000000" font-family="sans-serif" font-size="14" lengthAdjust="spacing" textLength="175" x="362" y="1167.3301">+getCreatedAt() : DateTime</text><text fill="#000000" font-family="sans-serif" font-size="14" lengthAdjust="spacing" textLength="177" x="362" y="1184.9395">+getUpdatedAt() : DateTime</text></g><!--class LevelEnum--><g id="elem_LevelEnum"><rect codeLine="133" fill="#F1F1F1" height="100.8281" id="LevelEnum" rx="2.5" ry="2.5" style="stroke:#181818;stroke-width:0.5;" width="112" x="1697" y="148"/><ellipse cx="1716.5" cy="164" fill="#EB937F" rx="11" ry="11" style="stroke:#181818;stroke-width:1.0;"/><path d="M1715.3594,164.7969 L1715.3594,167.2969 L1719.6875,167.2969 L1719.6875,166.375 Q1719.6875,165.7656 1719.9219,165.5 Q1720.1719,165.2344 1720.5469,165.2344 Q1720.9219,165.2344 1721.1563,165.5 Q1721.3906,165.7656 1721.3906,166.375 L1721.3906,169 L1713.3906,169 Q1712.7656,169 1712.5,168.7656 Q1712.25,168.5313 1712.25,168.1406 Q1712.25,167.7656 1712.5156,167.5313 Q1712.7813,167.2969 1713.3906,167.2969 L1713.6563,167.2969 L1713.6563,160.6406 L1713.3906,160.6406 Q1712.7656,160.6406 1712.5,160.4063 Q1712.25,160.1719 1712.25,159.7813 Q1712.25,159.4063 1712.5,159.1719 Q1712.7656,158.9375 1713.3906,158.9375 L1721.0156,158.9375 L1721.0156,161.5313 Q1721.0156,162.1406 1720.7813,162.4063 Q1720.5625,162.6563 1720.1719,162.6563 Q1719.7969,162.6563 1719.5625,162.4063 Q1719.3281,162.1406 1719.3281,161.5313 L1719.3281,160.6406 L1715.3594,160.6406 L1715.3594,163.0938 L1716.8438,163.0938 Q1716.8438,162.4375 1716.9688,162.25 Q1717.2344,161.8438 1717.7031,161.8438 Q1718.0781,161.8438 1718.3125,162.1094 Q1718.5469,162.3594 1718.5469,162.9688 L1718.5469,164.9375 Q1718.5469,165.4844 1718.4219,165.6719 Q1718.1563,166.0625 1717.7031,166.0625 Q1717.2344,166.0625 1716.9688,165.6563 Q1716.8438,165.4688 1716.8438,164.7969 L1715.3594,164.7969 Z " fill="#000000"/><text fill="#000000" font-family="sans-serif" font-size="14" lengthAdjust="spacing" textLength="70" x="1731.5" y="169.7285">LevelEnum</text><line style="stroke:#181818;stroke-width:0.5;" x1="1698" x2="1808" y1="180" y2="180"/><text fill="#000000" font-family="sans-serif" font-size="14" lengthAdjust="spacing" textLength="69" x="1703" y="198.5332">BEGINNER</text><text fill="#000000" font-family="sans-serif" font-size="14" lengthAdjust="spacing" textLength="100" x="1703" y="216.1426">INTERMEDIATE</text><text fill="#000000" font-family="sans-serif" font-size="14" lengthAdjust="spacing" textLength="75" x="1703" y="233.752">ADVANCED</text><line style="stroke:#181818;stroke-width:0.5;" x1="1698" x2="1808" y1="240.8281" y2="240.8281"/></g><!--class ThemeEnum--><g id="elem_ThemeEnum"><rect codeLine="139" fill="#F1F1F1" height="83.2188" id="ThemeEnum" rx="2.5" ry="2.5" style="stroke:#181818;stroke-width:0.5;" width="112" x="916.5" y="797"/><ellipse cx="931.5" cy="813" fill="#EB937F" rx="11" ry="11" style="stroke:#181818;stroke-width:1.0;"/><path d="M930.3594,813.7969 L930.3594,816.2969 L934.6875,816.2969 L934.6875,815.375 Q934.6875,814.7656 934.9219,814.5 Q935.1719,814.2344 935.5469,814.2344 Q935.9219,814.2344 936.1563,814.5 Q936.3906,814.7656 936.3906,815.375 L936.3906,818 L928.3906,818 Q927.7656,818 927.5,817.7656 Q927.25,817.5313 927.25,817.1406 Q927.25,816.7656 927.5156,816.5313 Q927.7813,816.2969 928.3906,816.2969 L928.6563,816.2969 L928.6563,809.6406 L928.3906,809.6406 Q927.7656,809.6406 927.5,809.4063 Q927.25,809.1719 927.25,808.7813 Q927.25,808.4063 927.5,808.1719 Q927.7656,807.9375 928.3906,807.9375 L936.0156,807.9375 L936.0156,810.5313 Q936.0156,811.1406 935.7813,811.4063 Q935.5625,811.6563 935.1719,811.6563 Q934.7969,811.6563 934.5625,811.4063 Q934.3281,811.1406 934.3281,810.5313 L934.3281,809.6406 L930.3594,809.6406 L930.3594,812.0938 L931.8438,812.0938 Q931.8438,811.4375 931.9688,811.25 Q932.2344,810.8438 932.7031,810.8438 Q933.0781,810.8438 933.3125,811.1094 Q933.5469,811.3594 933.5469,811.9688 L933.5469,813.9375 Q933.5469,814.4844 933.4219,814.6719 Q933.1563,815.0625 932.7031,815.0625 Q932.2344,815.0625 931.9688,814.6563 Q931.8438,814.4688 931.8438,813.7969 L930.3594,813.7969 Z " fill="#000000"/><text fill="#000000" font-family="sans-serif" font-size="14" lengthAdjust="spacing" textLength="80" x="945.5" y="818.7285">ThemeEnum</text><line style="stroke:#181818;stroke-width:0.5;" x1="917.5" x2="1027.5" y1="829" y2="829"/><text fill="#000000" font-family="sans-serif" font-size="14" lengthAdjust="spacing" textLength="40" x="922.5" y="847.5332">LIGHT</text><text fill="#000000" font-family="sans-serif" font-size="14" lengthAdjust="spacing" textLength="38" x="922.5" y="865.1426">DARK</text><line style="stroke:#181818;stroke-width:0.5;" x1="917.5" x2="1027.5" y1="872.2188" y2="872.2188"/></g><!--class DepthEnum--><g id="elem_DepthEnum"><rect codeLine="144" fill="#F1F1F1" height="100.8281" id="DepthEnum" rx="2.5" ry="2.5" style="stroke:#181818;stroke-width:0.5;" width="129" x="908" y="915"/><ellipse cx="933.35" cy="931" fill="#EB937F" rx="11" ry="11" style="stroke:#181818;stroke-width:1.0;"/><path d="M932.2094,931.7969 L932.2094,934.2969 L936.5375,934.2969 L936.5375,933.375 Q936.5375,932.7656 936.7719,932.5 Q937.0219,932.2344 937.3969,932.2344 Q937.7719,932.2344 938.0063,932.5 Q938.2406,932.7656 938.2406,933.375 L938.2406,936 L930.2406,936 Q929.6156,936 929.35,935.7656 Q929.1,935.5313 929.1,935.1406 Q929.1,934.7656 929.3656,934.5313 Q929.6313,934.2969 930.2406,934.2969 L930.5063,934.2969 L930.5063,927.6406 L930.2406,927.6406 Q929.6156,927.6406 929.35,927.4063 Q929.1,927.1719 929.1,926.7813 Q929.1,926.4063 929.35,926.1719 Q929.6156,925.9375 930.2406,925.9375 L937.8656,925.9375 L937.8656,928.5313 Q937.8656,929.1406 937.6313,929.4063 Q937.4125,929.6563 937.0219,929.6563 Q936.6469,929.6563 936.4125,929.4063 Q936.1781,929.1406 936.1781,928.5313 L936.1781,927.6406 L932.2094,927.6406 L932.2094,930.0938 L933.6938,930.0938 Q933.6938,929.4375 933.8188,929.25 Q934.0844,928.8438 934.5531,928.8438 Q934.9281,928.8438 935.1625,929.1094 Q935.3969,929.3594 935.3969,929.9688 L935.3969,931.9375 Q935.3969,932.4844 935.2719,932.6719 Q935.0063,933.0625 934.5531,933.0625 Q934.0844,933.0625 933.8188,932.6563 Q933.6938,932.4688 933.6938,931.7969 L932.2094,931.7969 Z " fill="#000000"/><text fill="#000000" font-family="sans-serif" font-size="14" lengthAdjust="spacing" textLength="74" x="949.65" y="936.7285">DepthEnum</text><line style="stroke:#181818;stroke-width:0.5;" x1="909" x2="1036" y1="947" y2="947"/><text fill="#000000" font-family="sans-serif" font-size="14" lengthAdjust="spacing" textLength="40" x="914" y="965.5332">BASIC</text><text fill="#000000" font-family="sans-serif" font-size="14" lengthAdjust="spacing" textLength="67" x="914" y="983.1426">DETAILED</text><text fill="#000000" font-family="sans-serif" font-size="14" lengthAdjust="spacing" textLength="117" x="914" y="1000.752">COMPREHENSIVE</text><line style="stroke:#181818;stroke-width:0.5;" x1="909" x2="1036" y1="1007.8281" y2="1007.8281"/></g><!--class VideoLengthEnum--><g id="elem_VideoLengthEnum"><rect codeLine="150" fill="#F1F1F1" height="100.8281" id="VideoLengthEnum" rx="2.5" ry="2.5" style="stroke:#181818;stroke-width:0.5;" width="148" x="898.5" y="1051"/><ellipse cx="913.5" cy="1067" fill="#EB937F" rx="11" ry="11" style="stroke:#181818;stroke-width:1.0;"/><path d="M912.3594,1067.7969 L912.3594,1070.2969 L916.6875,1070.2969 L916.6875,1069.375 Q916.6875,1068.7656 916.9219,1068.5 Q917.1719,1068.2344 917.5469,1068.2344 Q917.9219,1068.2344 918.1563,1068.5 Q918.3906,1068.7656 918.3906,1069.375 L918.3906,1072 L910.3906,1072 Q909.7656,1072 909.5,1071.7656 Q909.25,1071.5313 909.25,1071.1406 Q909.25,1070.7656 909.5156,1070.5313 Q909.7813,1070.2969 910.3906,1070.2969 L910.6563,1070.2969 L910.6563,1063.6406 L910.3906,1063.6406 Q909.7656,1063.6406 909.5,1063.4063 Q909.25,1063.1719 909.25,1062.7813 Q909.25,1062.4063 909.5,1062.1719 Q909.7656,1061.9375 910.3906,1061.9375 L918.0156,1061.9375 L918.0156,1064.5313 Q918.0156,1065.1406 917.7813,1065.4063 Q917.5625,1065.6563 917.1719,1065.6563 Q916.7969,1065.6563 916.5625,1065.4063 Q916.3281,1065.1406 916.3281,1064.5313 L916.3281,1063.6406 L912.3594,1063.6406 L912.3594,1066.0938 L913.8438,1066.0938 Q913.8438,1065.4375 913.9688,1065.25 Q914.2344,1064.8438 914.7031,1064.8438 Q915.0781,1064.8438 915.3125,1065.1094 Q915.5469,1065.3594 915.5469,1065.9688 L915.5469,1067.9375 Q915.5469,1068.4844 915.4219,1068.6719 Q915.1563,1069.0625 914.7031,1069.0625 Q914.2344,1069.0625 913.9688,1068.6563 Q913.8438,1068.4688 913.8438,1067.7969 L912.3594,1067.7969 Z " fill="#000000"/><text fill="#000000" font-family="sans-serif" font-size="14" lengthAdjust="spacing" textLength="116" x="927.5" y="1072.7285">VideoLengthEnum</text><line style="stroke:#181818;stroke-width:0.5;" x1="899.5" x2="1045.5" y1="1083" y2="1083"/><text fill="#000000" font-family="sans-serif" font-size="14" lengthAdjust="spacing" textLength="48" x="904.5" y="1101.5332">SHORT</text><text fill="#000000" font-family="sans-serif" font-size="14" lengthAdjust="spacing" textLength="53" x="904.5" y="1119.1426">MEDIUM</text><text fill="#000000" font-family="sans-serif" font-size="14" lengthAdjust="spacing" textLength="39" x="904.5" y="1136.752">LONG</text><line style="stroke:#181818;stroke-width:0.5;" x1="899.5" x2="1045.5" y1="1143.8281" y2="1143.8281"/></g><g id="elem_GMN22"><path d="M42,833 L42,875.7031 A0,0 0 0 0 42,875.7031 L229,875.7031 A0,0 0 0 0 229,875.7031 L229,843 L219,833 L139.5,833 L135.5,797.64 L131.5,833 L42,833 A0,0 0 0 0 42,833 " fill="#FEFFDD" style="stroke:#181818;stroke-width:0.5;"/><path d="M219,833 L219,843 L229,843 L219,833 " fill="#FEFFDD" style="stroke:#181818;stroke-width:0.5;"/><text fill="#000000" font-family="sans-serif" font-size="13" lengthAdjust="spacing" textLength="166" x="48" y="851.4951">Core entity for authentication</text><text fill="#000000" font-family="sans-serif" font-size="13" lengthAdjust="spacing" textLength="129" x="48" y="867.8467">and user management</text></g><g id="elem_GMN25"><path d="M891,589 L891,631.7031 A0,0 0 0 0 891,631.7031 L1054,631.7031 A0,0 0 0 0 1054,631.7031 L1054,599 L1044,589 L976.5,589 L972.5,553.5 L968.5,589 L891,589 A0,0 0 0 0 891,589 " fill="#FEFFDD" style="stroke:#181818;stroke-width:0.5;"/><path d="M1044,589 L1044,599 L1054,599 L1044,589 " fill="#FEFFDD" style="stroke:#181818;stroke-width:0.5;"/><text fill="#000000" font-family="sans-serif" font-size="13" lengthAdjust="spacing" textLength="112" x="897" y="607.4951">Learning paths with</text><text fill="#000000" font-family="sans-serif" font-size="13" lengthAdjust="spacing" textLength="142" x="897" y="623.8467">JSON document storage</text></g><g id="elem_GMN28"><path d="M1376.5,425 L1376.5,467.7031 A0,0 0 0 0 1376.5,467.7031 L1506.5,467.7031 A0,0 0 0 0 1506.5,467.7031 L1506.5,435 L1496.5,425 L1445.5,425 L1441.5,390.24 L1437.5,425 L1376.5,425 A0,0 0 0 0 1376.5,425 " fill="#FEFFDD" style="stroke:#181818;stroke-width:0.5;"/><path d="M1496.5,425 L1496.5,435 L1506.5,435 L1496.5,425 " fill="#FEFFDD" style="stroke:#181818;stroke-width:0.5;"/><text fill="#000000" font-family="sans-serif" font-size="13" lengthAdjust="spacing" textLength="109" x="1382.5" y="443.4951">Media content with</text><text fill="#000000" font-family="sans-serif" font-size="13" lengthAdjust="spacing" textLength="106" x="1382.5" y="459.8467">pagination support</text></g><!--link User to UserTopic--><g id="link_User_UserTopic"><path codeLine="157" d="M271.2817,615.1376 C329.4917,584.7476 374.3348,561.3426 428.7148,532.9426 " fill="none" id="User-UserTopic" style="stroke:#181818;stroke-width:1.0;"/><line style="stroke:#181818;stroke-width:1.0;" x1="269.5871" x2="265.8846" y1="620.5346" y2="613.4429"/><line style="stroke:#181818;stroke-width:1.0;" x1="272.2464" x2="268.544" y1="619.1462" y2="612.0545"/><line style="stroke:#181818;stroke-width:1.0;" x1="271.2817" x2="264.19" y1="615.1376" y2="618.84"/><line style="stroke:#181818;stroke-width:1.0;" x1="437.5788" x2="441.8925" y1="528.3134" y2="519.2916"/><line style="stroke:#181818;stroke-width:1.0;" x1="437.5788" x2="447.4475" y1="528.3134" y2="529.9284"/><line style="stroke:#181818;stroke-width:1.0;" x1="437.5788" x2="444.67" y1="528.3134" y2="524.61"/><ellipse cx="432.2604" cy="531.0909" fill="none" rx="4" ry="4" style="stroke:#181818;stroke-width:1.0;"/><text fill="#000000" font-family="sans-serif" font-size="13" lengthAdjust="spacing" textLength="30" x="295" y="588.9951">owns</text></g><!--link UserTopic to UserRoadmap--><g id="link_UserTopic_UserRoadmap"><path codeLine="158" d="M654.1048,462.3705 C713.7248,456.7605 764.1592,452.0172 827.8892,446.0172 " fill="none" id="UserTopic-UserRoadmap" style="stroke:#181818;stroke-width:1.0;"/><line style="stroke:#181818;stroke-width:1.0;" x1="650.4971" x2="649.7477" y1="466.7277" y2="458.7629"/><line style="stroke:#181818;stroke-width:1.0;" x1="653.4839" x2="652.7345" y1="466.4466" y2="458.4818"/><line style="stroke:#181818;stroke-width:1.0;" x1="654.1048" x2="646.14" y1="462.3705" y2="463.12"/><line style="stroke:#181818;stroke-width:1.0;" x1="837.8452" x2="845.2476" y1="445.0799" y2="438.3564"/><line style="stroke:#181818;stroke-width:1.0;" x1="837.8452" x2="846.3724" y1="445.0799" y2="450.3036"/><line style="stroke:#181818;stroke-width:1.0;" x1="837.8452" x2="845.81" y1="445.0799" y2="444.33"/><ellipse cx="831.8716" cy="445.6423" fill="none" rx="4" ry="4" style="stroke:#181818;stroke-width:1.0;"/><text fill="#000000" font-family="sans-serif" font-size="13" lengthAdjust="spacing" textLength="49" x="766" y="444.9951">contains</text></g><!--link UserRoadmap to UserVideo--><g id="link_UserRoadmap_UserVideo"><path codeLine="159" d="M1106.4128,365.897 C1160.7128,338.697 1201.7275,318.1443 1259.7575,289.0643 " fill="none" id="UserRoadmap-UserVideo" style="stroke:#181818;stroke-width:1.0;"/><line style="stroke:#181818;stroke-width:1.0;" x1="1104.6279" x2="1101.0449" y1="371.2649" y2="364.1121"/><line style="stroke:#181818;stroke-width:1.0;" x1="1107.3102" x2="1103.7272" y1="369.9213" y2="362.7685"/><line style="stroke:#181818;stroke-width:1.0;" x1="1106.4128" x2="1099.26" y1="365.897" y2="369.48"/><line style="stroke:#181818;stroke-width:1.0;" x1="1268.6978" x2="1273.1619" y1="284.5841" y2="275.6358"/><line style="stroke:#181818;stroke-width:1.0;" x1="1268.6978" x2="1278.5381" y1="284.5841" y2="286.3642"/><line style="stroke:#181818;stroke-width:1.0;" x1="1268.6978" x2="1275.85" y1="284.5841" y2="281"/><ellipse cx="1263.3336" cy="287.2722" fill="none" rx="4" ry="4" style="stroke:#181818;stroke-width:1.0;"/><text fill="#000000" font-family="sans-serif" font-size="13" lengthAdjust="spacing" textLength="48" x="1163.5" y="297.9951">includes</text></g><!--link User to RoadmapProgress--><g id="link_User_RoadmapProgress"><path codeLine="161" d="M272.21,685.5 C514.77,685.5 1014.93,685.5 1273.28,685.5 " fill="none" id="User-RoadmapProgress" style="stroke:#181818;stroke-width:1.0;"/><line style="stroke:#181818;stroke-width:1.0;" x1="268.21" x2="268.21" y1="689.5" y2="681.5"/><line style="stroke:#181818;stroke-width:1.0;" x1="271.21" x2="271.21" y1="689.5" y2="681.5"/><line style="stroke:#181818;stroke-width:1.0;" x1="272.21" x2="264.21" y1="685.5" y2="685.5"/><line style="stroke:#181818;stroke-width:1.0;" x1="1283.28" x2="1291.28" y1="685.5" y2="679.5"/><line style="stroke:#181818;stroke-width:1.0;" x1="1283.28" x2="1291.28" y1="685.5" y2="691.5"/><line style="stroke:#181818;stroke-width:1.0;" x1="1283.28" x2="1291.28" y1="685.5" y2="685.5"/><ellipse cx="1277.28" cy="685.5" fill="none" rx="4" ry="4" style="stroke:#181818;stroke-width:1.0;"/><text fill="#000000" font-family="sans-serif" font-size="13" lengthAdjust="spacing" textLength="36" x="772.5" y="681.9951">tracks</text></g><!--link UserRoadmap to RoadmapProgress--><g id="link_UserRoadmap_RoadmapProgress"><path codeLine="162" d="M1106.2944,504.4402 C1165.4644,536.4902 1213.5841,562.5644 1275.4441,596.0844 " fill="none" id="UserRoadmap-RoadmapProgress" style="stroke:#181818;stroke-width:1.0;"/><line style="stroke:#181818;stroke-width:1.0;" x1="1100.8721" x2="1104.6823" y1="506.0523" y2="499.0179"/><line style="stroke:#181818;stroke-width:1.0;" x1="1103.5099" x2="1107.3202" y1="507.4811" y2="500.4468"/><line style="stroke:#181818;stroke-width:1.0;" x1="1106.2944" x2="1099.26" y1="504.4402" y2="500.63"/><line style="stroke:#181818;stroke-width:1.0;" x1="1284.2363" x2="1294.1285" y1="600.8486" y2="599.3847"/><line style="stroke:#181818;stroke-width:1.0;" x1="1284.2363" x2="1288.4115" y1="600.8486" y2="609.9353"/><line style="stroke:#181818;stroke-width:1.0;" x1="1284.2363" x2="1291.27" y1="600.8486" y2="604.66"/><ellipse cx="1278.961" cy="597.9901" fill="none" rx="4" ry="4" style="stroke:#181818;stroke-width:1.0;"/><text fill="#000000" font-family="sans-serif" font-size="13" lengthAdjust="spacing" textLength="115" x="1130" y="518.9951">progress tracked by</text></g><!--link User to UserSettings--><g id="link_User_UserSettings"><path codeLine="163" d="M270.7858,777.6571 C299.8958,797.6371 318.224,810.2131 349.274,831.5231 " fill="none" id="User-UserSettings" style="stroke:#181818;stroke-width:1.0;"/><line style="stroke:#181818;stroke-width:1.0;" x1="265.2244" x2="269.7515" y1="778.6915" y2="772.0956"/><line style="stroke:#181818;stroke-width:1.0;" x1="267.6978" x2="272.2249" y1="780.3892" y2="773.7933"/><line style="stroke:#181818;stroke-width:1.0;" x1="270.7858" x2="264.19" y1="777.6571" y2="773.13"/><line style="stroke:#181818;stroke-width:1.0;" x1="354.8355" x2="350.3085" y1="830.4885" y2="837.0845"/><line style="stroke:#181818;stroke-width:1.0;" x1="352.362" x2="347.8351" y1="828.791" y2="835.3869"/><line style="stroke:#181818;stroke-width:1.0;" x1="349.274" x2="355.87" y1="831.5231" y2="836.05"/><text fill="#000000" font-family="sans-serif" font-size="13" lengthAdjust="spacing" textLength="21" x="299.5" y="796.9951">has</text></g><!--link UserVideo to LevelEnum--><g id="link_UserVideo_LevelEnum"><path codeLine="166" d="M1607.22,198.5 C1639.56,198.5 1665.31,198.5 1690.8,198.5 " fill="none" id="UserVideo-to-LevelEnum" style="stroke:#181818;stroke-width:1.0;"/><polygon fill="#181818" points="1696.8,198.5,1687.8,194.5,1691.8,198.5,1687.8,202.5,1696.8,198.5" style="stroke:#181818;stroke-width:1.0;"/><text fill="#000000" font-family="sans-serif" font-size="13" lengthAdjust="spacing" textLength="28" x="1638" y="194.9951">uses</text></g><!--link UserSettings to ThemeEnum--><g id="link_UserSettings_ThemeEnum"><path codeLine="167" d="M735.08,909.15 C800.97,889.46 864.2214,870.5585 910.5514,856.7085 " fill="none" id="UserSettings-to-ThemeEnum" style="stroke:#181818;stroke-width:1.0;"/><polygon fill="#181818" points="916.3,854.99,906.5314,853.7353,911.5095,856.4221,908.8227,861.4002,916.3,854.99" style="stroke:#181818;stroke-width:1.0;"/><text fill="#000000" font-family="sans-serif" font-size="13" lengthAdjust="spacing" textLength="28" x="776.5" y="883.9951">uses</text></g><!--link UserSettings to DepthEnum--><g id="link_UserSettings_DepthEnum"><path codeLine="168" d="M735.08,965.5 C796.98,965.5 855.62,965.5 901.63,965.5 " fill="none" id="UserSettings-to-DepthEnum" style="stroke:#181818;stroke-width:1.0;"/><polygon fill="#181818" points="907.63,965.5,898.63,961.5,902.63,965.5,898.63,969.5,907.63,965.5" style="stroke:#181818;stroke-width:1.0;"/><text fill="#000000" font-family="sans-serif" font-size="13" lengthAdjust="spacing" textLength="28" x="776.5" y="961.9951">uses</text></g><!--link UserSettings to VideoLengthEnum--><g id="link_UserSettings_VideoLengthEnum"><path codeLine="169" d="M735.08,1025.84 C792.87,1044.34 847.3455,1061.7711 892.5255,1076.2311 " fill="none" id="UserSettings-to-VideoLengthEnum" style="stroke:#181818;stroke-width:1.0;"/><polygon fill="#181818" points="898.24,1078.06,890.8876,1071.507,893.478,1076.5359,888.449,1079.1262,898.24,1078.06" style="stroke:#181818;stroke-width:1.0;"/><text fill="#000000" font-family="sans-serif" font-size="13" lengthAdjust="spacing" textLength="28" x="776.5" y="1034.9951">uses</text></g><!--SRC=[lLVRRjiu47tNLt3zaXHTxmteIu0MS6qbyTQH1Ll9Oe420YsERI8IgHMf1Dca_xv3wYxB2T1Dyv3OrZapd3ap6f8dvFfgGQOnLOhCEDrbD25RcP4PrNH35H1NQAuvAEU4dCiublTSxApD7xzy86jD1QCPC-WorJpX_mApzWi4L4HJ-DNt0-9de41eghaKZlCJWoqNG1QJlvVNGHWi_N2s_CiZMgRuHpPIQvaGnZE8h46Flt3FWt0rlxWCI0nRRKmoljlhbeLpG7KSTSj5Iar-aSbsedN6Dxc6UIJ56kCclxKeAOrkwGxM-Y46OhnIiOkXHL1xoWejjZHMRMI3fhjCve9DPOnAw8mAXH3cxpXsQNAj82EF3Y5ZmXav8tEXOMSU-L- -sQSv4WHD0B4rXechFEQ2_vD30QVev5vch8RjqoW3ge65LEDph1y4F872NSe6aJ34V-_93lISdRvh0gcUNfTXMAnUwJrHeFqoXDE3M0ptJd9MEPaMOKsqzT9QlLYY2AsFVcjB5SYKHo_g5NQXynBIrlWDX1f6REm3-XNFky6zld8hILb2qvUriu4SKJ0hd8Iu74Nyp_NI-u4oMc66uJ8RCveiN4PYzMnZhK1VNz8Rpa2-B6Wbsh2aCTn1ZC32VBeYJ-pJE-FwGEOKvr28b0qwQ5nz9BzRT0S2CZjNZtD-JA5AnOS9DZ4Bj5Eqa1Lmi8ODyam5VPJ3ivaUhAiwgD6j8VJTNDIw7NTsm6d4Fkxu_tLOAQgVoHrkcUfxXzxptPTABdI1jQOYLs4aapG6Z0-HprB6G0KsKR71sKQgy6x3a4UHnp7TnENsz9RpzTakz4sY9TGQlrnDgqGiLAPQbRq11_GuA7T56IguwkAiqgkXlVvyMeFMcEXtjCxFf7t6s699mzuPf5jckf6v3XceAEDf-L8CC_KUh9_0V9fPW5qrYisPRMHnFD_HFDRrq6IGwht9q7nMV0QQyXXOrwIOcJ68dRMm8sHXVrLs2J2U9wCtxynpbC0RFZpLK4VVVYzCZBwpHju1HmUKeMhq_TegM6TrFUfJYOKEojNtC2l4h_PSKwMY8wjwLVw6Y0V5FUAzLKhhl5VQtX9jzh5kUAsNxOGORmhdgE96wVBA4rTN7lpsW7Lnm7HWlV_P5_ApUp7tF7U5N-TUuAwktDby4hZuSpAxcNXJTsOMi8RDos8C5_OIGyXiilfIKvhtm_gUhETJGt63oNo1dWYPBg_ybNlfUklvZLkRzLyIOxo-NAwCVnFGzPLPSEbT5CdMLxcnhAzuHOQr0gObxQNcwMaybe-jK_iP6SbxeKPEywZ5gSwdoC9R6BxV5RC2MjpYu8LCBg8unqOVEPqr-ridCl7g5TqEUnnWfzLtQuP9RXv6pGfFJztnYWPxQc8u8Nwf0W7R5ZX2oYkiwOeD6a1MjKIJo7ZygTKRPsOaAwUpWc4qJN2CqVJ0CKQ_t2KF0vzAeJ1Pt2I99pKe6x2vhvyUQ-rtZa1YbP_S5bVPC_IK0QQlkNwm1ZJ78O8_8tjQ-YhGtcuw9A42psM9kGmFU6hwOG4qCss5nr-zL-IUw_rNOSw3XCaeD_P4QPcPCnuPybHronLEVqfCSncJmWsU3BaeZd4gJrEPQUS_]--></g></svg>