<?xml version="1.0" encoding="us-ascii" standalone="no"?><svg xmlns="http://www.w3.org/2000/svg" xmlns:xlink="http://www.w3.org/1999/xlink" contentStyleType="text/css" height="1891px" preserveAspectRatio="none" style="width:2435px;height:1891px;" version="1.1" viewBox="0 0 2435 1891" width="2435px" zoomAndPan="magnify"><defs/><g><!--cluster Controllers--><g id="cluster_Controllers"><path d="M8.5,842.84 L88.5,842.84 A3.75,3.75 0 0 1 91,845.34 L98,866.4494 L442.5,866.4494 A2.5,2.5 0 0 1 445,868.9494 L445,1526.34 A2.5,2.5 0 0 1 442.5,1528.84 L8.5,1528.84 A2.5,2.5 0 0 1 6,1526.34 L6,845.34 A2.5,2.5 0 0 1 8.5,842.84 " fill="none" style="stroke:#000000;stroke-width:1.5;"/><line style="stroke:#000000;stroke-width:1.5;" x1="6" x2="98" y1="866.4494" y2="866.4494"/><text fill="#000000" font-family="sans-serif" font-size="14" font-weight="bold" lengthAdjust="spacing" textLength="79" x="10" y="859.3732">Controllers</text></g><!--cluster Services--><g id="cluster_Services"><path d="M509.5,277.84 L572.5,277.84 A3.75,3.75 0 0 1 575,280.34 L582,301.4494 L2425.5,301.4494 A2.5,2.5 0 0 1 2428,303.9494 L2428,745.34 A2.5,2.5 0 0 1 2425.5,747.84 L509.5,747.84 A2.5,2.5 0 0 1 507,745.34 L507,280.34 A2.5,2.5 0 0 1 509.5,277.84 " fill="none" style="stroke:#000000;stroke-width:1.5;"/><line style="stroke:#000000;stroke-width:1.5;" x1="507" x2="582" y1="301.4494" y2="301.4494"/><text fill="#000000" font-family="sans-serif" font-size="14" font-weight="bold" lengthAdjust="spacing" textLength="62" x="511" y="294.3732">Services</text></g><!--cluster External Services--><g id="cluster_External Services"><path d="M601.5,1008.84 L726.5,1008.84 A3.75,3.75 0 0 1 729,1011.34 L736,1032.4494 L1263.5,1032.4494 A2.5,2.5 0 0 1 1266,1034.9494 L1266,1419.34 A2.5,2.5 0 0 1 1263.5,1421.84 L601.5,1421.84 A2.5,2.5 0 0 1 599,1419.34 L599,1011.34 A2.5,2.5 0 0 1 601.5,1008.84 " fill="none" style="stroke:#000000;stroke-width:1.5;"/><line style="stroke:#000000;stroke-width:1.5;" x1="599" x2="736" y1="1032.4494" y2="1032.4494"/><text fill="#000000" font-family="sans-serif" font-size="14" font-weight="bold" lengthAdjust="spacing" textLength="124" x="603" y="1025.3732">External Services</text></g><!--cluster Models & Utilities--><g id="cluster_Models &amp; Utilities"><path d="M1676.5,1022.84 L1800.5,1022.84 A3.75,3.75 0 0 1 1803,1025.34 L1810,1046.4494 L2206.5,1046.4494 A2.5,2.5 0 0 1 2209,1048.9494 L2209,1748.34 A2.5,2.5 0 0 1 2206.5,1750.84 L1676.5,1750.84 A2.5,2.5 0 0 1 1674,1748.34 L1674,1025.34 A2.5,2.5 0 0 1 1676.5,1022.84 " fill="none" style="stroke:#000000;stroke-width:1.5;"/><line style="stroke:#000000;stroke-width:1.5;" x1="1674" x2="1810" y1="1046.4494" y2="1046.4494"/><text fill="#000000" font-family="sans-serif" font-size="14" font-weight="bold" lengthAdjust="spacing" textLength="123" x="1678" y="1039.3732">Models &amp; Utilities</text></g><!--class UserRoutes--><g id="elem_UserRoutes"><rect codeLine="16" fill="#F1F1F1" height="270.0156" id="UserRoutes" rx="2.5" ry="2.5" style="stroke:#181818;stroke-width:0.5;" width="407" x="22" y="878.84"/><ellipse cx="184.25" cy="900.1916" fill="#ADD1B2" rx="11" ry="11" style="stroke:#181818;stroke-width:1.0;"/><path d="M187.0156,896.0666 Q187.1719,895.8478 187.3594,895.7384 Q187.5469,895.6291 187.7656,895.6291 Q188.1406,895.6291 188.375,895.8947 Q188.6094,896.1447 188.6094,896.7541 L188.6094,898.2072 Q188.6094,898.8166 188.375,899.0822 Q188.1406,899.3478 187.7656,899.3478 Q187.4219,899.3478 187.2188,899.1447 Q187.0156,898.9572 186.9063,898.4416 Q186.8594,898.0822 186.6719,897.8947 Q186.3438,897.5197 185.7344,897.3009 Q185.125,897.0822 184.5,897.0822 Q183.7344,897.0822 183.0938,897.4103 Q182.4688,897.7384 181.9688,898.4884 Q181.4844,899.2384 181.4844,900.2697 L181.4844,901.3634 Q181.4844,902.5978 182.375,903.4259 Q183.2656,904.2384 184.8594,904.2384 Q185.7969,904.2384 186.4531,903.9884 Q186.8438,903.8322 187.2656,903.3947 Q187.5313,903.1291 187.6719,903.0509 Q187.8281,902.9728 188.0313,902.9728 Q188.3594,902.9728 188.6094,903.2384 Q188.875,903.4884 188.875,903.8322 Q188.875,904.1759 188.5313,904.5822 Q188.0313,905.1603 187.2344,905.4884 Q186.1563,905.9416 184.8594,905.9416 Q183.3438,905.9416 182.1406,905.3166 Q181.1563,904.8166 180.4688,903.7541 Q179.7813,902.6759 179.7813,901.3947 L179.7813,900.2384 Q179.7813,898.9103 180.3906,897.7697 Q181.0156,896.6134 182.1094,896.0041 Q183.2031,895.3791 184.4375,895.3791 Q185.1719,895.3791 185.8125,895.5509 Q186.4688,895.7072 187.0156,896.0666 Z " fill="#000000"/><text fill="#000000" font-family="sans-serif" font-size="12" font-style="italic" lengthAdjust="spacing" textLength="68" x="207.75" y="896.297">&#171;Controller&#187;</text><text fill="#000000" font-family="sans-serif" font-size="14" lengthAdjust="spacing" textLength="74" x="204.75" y="913.467">UserRoutes</text><line style="stroke:#181818;stroke-width:0.5;" x1="23" x2="428" y1="921.5431" y2="921.5431"/><text fill="#000000" font-family="sans-serif" font-size="14" lengthAdjust="spacing" textLength="231" x="28" y="940.0763">-databaseService : DatabaseService</text><text fill="#000000" font-family="sans-serif" font-size="14" lengthAdjust="spacing" textLength="102" x="28" y="957.6857">-logger : Logger</text><text fill="#000000" font-family="sans-serif" font-size="14" lengthAdjust="spacing" textLength="117" x="28" y="975.2951">-security : Security</text><line style="stroke:#181818;stroke-width:0.5;" x1="23" x2="428" y1="982.3713" y2="982.3713"/><text fill="#000000" font-family="sans-serif" font-size="14" lengthAdjust="spacing" textLength="315" x="28" y="1000.9045">+createUser(req : Request, res : Response) : void</text><text fill="#000000" font-family="sans-serif" font-size="14" lengthAdjust="spacing" textLength="363" x="28" y="1018.5138">+getUserRoadmaps(req : Request, res : Response) : void</text><text fill="#000000" font-family="sans-serif" font-size="14" lengthAdjust="spacing" textLength="380" x="28" y="1036.1232">+updateUserRoadmap(req : Request, res : Response) : void</text><text fill="#000000" font-family="sans-serif" font-size="14" lengthAdjust="spacing" textLength="375" x="28" y="1053.7326">+deleteUserRoadmap(req : Request, res : Response) : void</text><text fill="#000000" font-family="sans-serif" font-size="14" lengthAdjust="spacing" textLength="395" x="28" y="1071.342">+markRoadmapProgress(req : Request, res : Response) : void</text><text fill="#000000" font-family="sans-serif" font-size="14" lengthAdjust="spacing" textLength="338" x="28" y="1088.9513">+getUserVideos(req : Request, res : Response) : void</text><text fill="#000000" font-family="sans-serif" font-size="14" lengthAdjust="spacing" textLength="346" x="28" y="1106.5607">+getUserSettings(req : Request, res : Response) : void</text><text fill="#000000" font-family="sans-serif" font-size="14" lengthAdjust="spacing" textLength="370" x="28" y="1124.1701">+updateUserSettings(req : Request, res : Response) : void</text><text fill="#000000" font-family="sans-serif" font-size="14" lengthAdjust="spacing" textLength="351" x="28" y="1141.7795">+clearAllUserData(req : Request, res : Response) : void</text></g><!--class RoadmapRoutes--><g id="elem_RoadmapRoutes"><rect codeLine="32" fill="#F1F1F1" height="129.1406" id="RoadmapRoutes" rx="2.5" ry="2.5" style="stroke:#181818;stroke-width:0.5;" width="376" x="37.5" y="1184.34"/><ellipse cx="168.25" cy="1205.6916" fill="#ADD1B2" rx="11" ry="11" style="stroke:#181818;stroke-width:1.0;"/><path d="M171.0156,1201.5666 Q171.1719,1201.3478 171.3594,1201.2384 Q171.5469,1201.1291 171.7656,1201.1291 Q172.1406,1201.1291 172.375,1201.3947 Q172.6094,1201.6447 172.6094,1202.2541 L172.6094,1203.7072 Q172.6094,1204.3166 172.375,1204.5822 Q172.1406,1204.8478 171.7656,1204.8478 Q171.4219,1204.8478 171.2188,1204.6447 Q171.0156,1204.4572 170.9063,1203.9416 Q170.8594,1203.5822 170.6719,1203.3947 Q170.3438,1203.0197 169.7344,1202.8009 Q169.125,1202.5822 168.5,1202.5822 Q167.7344,1202.5822 167.0938,1202.9103 Q166.4688,1203.2384 165.9688,1203.9884 Q165.4844,1204.7384 165.4844,1205.7697 L165.4844,1206.8634 Q165.4844,1208.0978 166.375,1208.9259 Q167.2656,1209.7384 168.8594,1209.7384 Q169.7969,1209.7384 170.4531,1209.4884 Q170.8438,1209.3322 171.2656,1208.8947 Q171.5313,1208.6291 171.6719,1208.5509 Q171.8281,1208.4728 172.0313,1208.4728 Q172.3594,1208.4728 172.6094,1208.7384 Q172.875,1208.9884 172.875,1209.3322 Q172.875,1209.6759 172.5313,1210.0822 Q172.0313,1210.6603 171.2344,1210.9884 Q170.1563,1211.4416 168.8594,1211.4416 Q167.3438,1211.4416 166.1406,1210.8166 Q165.1563,1210.3166 164.4688,1209.2541 Q163.7813,1208.1759 163.7813,1206.8947 L163.7813,1205.7384 Q163.7813,1204.4103 164.3906,1203.2697 Q165.0156,1202.1134 166.1094,1201.5041 Q167.2031,1200.8791 168.4375,1200.8791 Q169.1719,1200.8791 169.8125,1201.0509 Q170.4688,1201.2072 171.0156,1201.5666 Z " fill="#000000"/><text fill="#000000" font-family="sans-serif" font-size="12" font-style="italic" lengthAdjust="spacing" textLength="68" x="207.75" y="1201.797">&#171;Controller&#187;</text><text fill="#000000" font-family="sans-serif" font-size="14" lengthAdjust="spacing" textLength="106" x="188.75" y="1218.967">RoadmapRoutes</text><line style="stroke:#181818;stroke-width:0.5;" x1="38.5" x2="412.5" y1="1227.0431" y2="1227.0431"/><text fill="#000000" font-family="sans-serif" font-size="14" lengthAdjust="spacing" textLength="196" x="43.5" y="1245.5763">-geminiService : GeminiService</text><text fill="#000000" font-family="sans-serif" font-size="14" lengthAdjust="spacing" textLength="231" x="43.5" y="1263.1857">-databaseService : DatabaseService</text><text fill="#000000" font-family="sans-serif" font-size="14" lengthAdjust="spacing" textLength="102" x="43.5" y="1280.7951">-logger : Logger</text><line style="stroke:#181818;stroke-width:0.5;" x1="38.5" x2="412.5" y1="1287.8713" y2="1287.8713"/><text fill="#000000" font-family="sans-serif" font-size="14" lengthAdjust="spacing" textLength="364" x="43.5" y="1306.4045">+generateRoadmap(req : Request, res : Response) : void</text></g><!--class PlaylistRoutes--><g id="elem_PlaylistRoutes"><rect codeLine="40" fill="#F1F1F1" height="164.3594" id="PlaylistRoutes" rx="2.5" ry="2.5" style="stroke:#181818;stroke-width:0.5;" width="372" x="39.5" y="1348.84"/><ellipse cx="176.75" cy="1370.1916" fill="#ADD1B2" rx="11" ry="11" style="stroke:#181818;stroke-width:1.0;"/><path d="M179.5156,1366.0666 Q179.6719,1365.8478 179.8594,1365.7384 Q180.0469,1365.6291 180.2656,1365.6291 Q180.6406,1365.6291 180.875,1365.8947 Q181.1094,1366.1447 181.1094,1366.7541 L181.1094,1368.2072 Q181.1094,1368.8166 180.875,1369.0822 Q180.6406,1369.3478 180.2656,1369.3478 Q179.9219,1369.3478 179.7188,1369.1447 Q179.5156,1368.9572 179.4063,1368.4416 Q179.3594,1368.0822 179.1719,1367.8947 Q178.8438,1367.5197 178.2344,1367.3009 Q177.625,1367.0822 177,1367.0822 Q176.2344,1367.0822 175.5938,1367.4103 Q174.9688,1367.7384 174.4688,1368.4884 Q173.9844,1369.2384 173.9844,1370.2697 L173.9844,1371.3634 Q173.9844,1372.5978 174.875,1373.4259 Q175.7656,1374.2384 177.3594,1374.2384 Q178.2969,1374.2384 178.9531,1373.9884 Q179.3438,1373.8322 179.7656,1373.3947 Q180.0313,1373.1291 180.1719,1373.0509 Q180.3281,1372.9728 180.5313,1372.9728 Q180.8594,1372.9728 181.1094,1373.2384 Q181.375,1373.4884 181.375,1373.8322 Q181.375,1374.1759 181.0313,1374.5822 Q180.5313,1375.1603 179.7344,1375.4884 Q178.6563,1375.9416 177.3594,1375.9416 Q175.8438,1375.9416 174.6406,1375.3166 Q173.6563,1374.8166 172.9688,1373.7541 Q172.2813,1372.6759 172.2813,1371.3947 L172.2813,1370.2384 Q172.2813,1368.9103 172.8906,1367.7697 Q173.5156,1366.6134 174.6094,1366.0041 Q175.7031,1365.3791 176.9375,1365.3791 Q177.6719,1365.3791 178.3125,1365.5509 Q178.9688,1365.7072 179.5156,1366.0666 Z " fill="#000000"/><text fill="#000000" font-family="sans-serif" font-size="12" font-style="italic" lengthAdjust="spacing" textLength="68" x="207.75" y="1366.297">&#171;Controller&#187;</text><text fill="#000000" font-family="sans-serif" font-size="14" lengthAdjust="spacing" textLength="89" x="197.25" y="1383.467">PlaylistRoutes</text><line style="stroke:#181818;stroke-width:0.5;" x1="40.5" x2="410.5" y1="1391.5431" y2="1391.5431"/><text fill="#000000" font-family="sans-serif" font-size="14" lengthAdjust="spacing" textLength="196" x="45.5" y="1410.0763">-geminiService : GeminiService</text><text fill="#000000" font-family="sans-serif" font-size="14" lengthAdjust="spacing" textLength="215" x="45.5" y="1427.6857">-youtubeService : YoutubeService</text><text fill="#000000" font-family="sans-serif" font-size="14" lengthAdjust="spacing" textLength="231" x="45.5" y="1445.2951">-databaseService : DatabaseService</text><text fill="#000000" font-family="sans-serif" font-size="14" lengthAdjust="spacing" textLength="102" x="45.5" y="1462.9045">-logger : Logger</text><line style="stroke:#181818;stroke-width:0.5;" x1="40.5" x2="410.5" y1="1469.9806" y2="1469.9806"/><text fill="#000000" font-family="sans-serif" font-size="14" lengthAdjust="spacing" textLength="347" x="45.5" y="1488.5138">+generatePlaylist(req : Request, res : Response) : void</text><text fill="#000000" font-family="sans-serif" font-size="14" lengthAdjust="spacing" textLength="360" x="45.5" y="1506.1232">+regeneratePlaylist(req : Request, res : Response) : void</text></g><!--class DatabaseService--><g id="elem_DatabaseService"><rect codeLine="52" fill="#F1F1F1" height="329.75" id="DatabaseService" rx="2.5" ry="2.5" style="stroke:#181818;stroke-width:0.5;" width="819" x="523" y="398.84"/><ellipse cx="874.75" cy="414.84" fill="#B4A7E5" rx="11" ry="11" style="stroke:#181818;stroke-width:1.0;"/><path d="M875.7031,411.4806 L875.7031,418.1369 L877.4219,418.1369 Q878.0313,418.1369 878.2969,418.3713 Q878.5625,418.6056 878.5625,418.9963 Q878.5625,419.3713 878.2969,419.6056 Q878.0313,419.84 877.4219,419.84 L872.2813,419.84 Q871.6719,419.84 871.4063,419.6056 Q871.1406,419.3713 871.1406,418.9806 Q871.1406,418.6056 871.4063,418.3713 Q871.6719,418.1369 872.2813,418.1369 L874,418.1369 L874,411.4806 L872.2813,411.4806 Q871.6719,411.4806 871.4063,411.2463 Q871.1406,411.0119 871.1406,410.6213 Q871.1406,410.2463 871.4063,410.0119 Q871.6719,409.7775 872.2813,409.7775 L877.4219,409.7775 Q878.0313,409.7775 878.2969,410.0119 Q878.5625,410.2463 878.5625,410.6213 Q878.5625,411.0119 878.2969,411.2463 Q878.0313,411.4806 877.4219,411.4806 L875.7031,411.4806 Z " fill="#000000"/><text fill="#000000" font-family="sans-serif" font-size="14" font-style="italic" lengthAdjust="spacing" textLength="107" x="895.25" y="420.5685">DatabaseService</text><line style="stroke:#181818;stroke-width:0.5;" x1="524" x2="1341" y1="430.84" y2="430.84"/><line style="stroke:#181818;stroke-width:0.5;" x1="524" x2="1341" y1="438.84" y2="438.84"/><text fill="#000000" font-family="sans-serif" font-size="14" lengthAdjust="spacing" textLength="357" x="529" y="457.3732">+createUser(username : String, password : String) : User</text><text fill="#000000" font-family="sans-serif" font-size="14" lengthAdjust="spacing" textLength="425" x="529" y="474.9826">+getUserByCredentials(username : String, password : String) : User</text><text fill="#000000" font-family="sans-serif" font-size="14" lengthAdjust="spacing" textLength="296" x="529" y="492.592">+checkUserExists(username : String) : Boolean</text><text fill="#000000" font-family="sans-serif" font-size="14" lengthAdjust="spacing" textLength="380" x="529" y="510.2013">+createUserTopic(userId : Integer, topic : String) : UserTopic</text><text fill="#000000" font-family="sans-serif" font-size="14" lengthAdjust="spacing" textLength="288" x="529" y="527.8107">+getUserTopics(userId : Integer) : UserTopic[]</text><text fill="#000000" font-family="sans-serif" font-size="14" lengthAdjust="spacing" textLength="521" x="529" y="545.4201">+createUserRoadmap(userTopicId : Integer, roadmapData : JSON) : UserRoadmap</text><text fill="#000000" font-family="sans-serif" font-size="14" lengthAdjust="spacing" textLength="340" x="529" y="563.0295">+getUserRoadmaps(userId : Integer) : UserRoadmap[]</text><text fill="#000000" font-family="sans-serif" font-size="14" lengthAdjust="spacing" textLength="518" x="529" y="580.6388">+updateUserRoadmap(roadmapId : Integer, roadmapData : JSON) : UserRoadmap</text><text fill="#000000" font-family="sans-serif" font-size="14" lengthAdjust="spacing" textLength="437" x="529" y="598.2482">+deleteUserRoadmap(roadmapId : Integer, userId : Integer) : Boolean</text><text fill="#000000" font-family="sans-serif" font-size="14" lengthAdjust="spacing" textLength="568" x="529" y="615.8576">+createUserVideos(userRoadmapId : Integer, level : String, videoData : JSON) : UserVideo</text><text fill="#000000" font-family="sans-serif" font-size="14" lengthAdjust="spacing" textLength="533" x="529" y="633.467">+getUserVideos(userRoadmapId : Integer, level : String, page : Integer) : UserVideo[]</text><text fill="#000000" font-family="sans-serif" font-size="14" lengthAdjust="spacing" textLength="560" x="529" y="651.0763">+storeUserVideos(userRoadmapId : Integer, level : String, videoData : JSON) : UserVideo</text><text fill="#000000" font-family="sans-serif" font-size="14" lengthAdjust="spacing" textLength="807" x="529" y="668.6857">+markRoadmapPointComplete(userId : Integer, roadmapId : Integer, pointId : String, isCompleted : Boolean) : RoadmapProgress</text><text fill="#000000" font-family="sans-serif" font-size="14" lengthAdjust="spacing" textLength="520" x="529" y="686.2951">+getRoadmapProgress(userId : Integer, roadmapId : Integer) : RoadmapProgress[]</text><text fill="#000000" font-family="sans-serif" font-size="14" lengthAdjust="spacing" textLength="305" x="529" y="703.9045">+getUserSettings(userId : Integer) : UserSettings</text><text fill="#000000" font-family="sans-serif" font-size="14" lengthAdjust="spacing" textLength="435" x="529" y="721.5138">+updateUserSettings(userId : Integer, updates : JSON) : UserSettings</text></g><!--class NeonDbService--><g id="elem_NeonDbService"><rect codeLine="71" fill="#F1F1F1" height="417.7969" id="NeonDbService" rx="2.5" ry="2.5" style="stroke:#181818;stroke-width:0.5;" width="941" x="1471" y="313.84"/><ellipse cx="1888.25" cy="329.84" fill="#ADD1B2" rx="11" ry="11" style="stroke:#181818;stroke-width:1.0;"/><path d="M1891.0156,325.715 Q1891.1719,325.4963 1891.3594,325.3869 Q1891.5469,325.2775 1891.7656,325.2775 Q1892.1406,325.2775 1892.375,325.5431 Q1892.6094,325.7931 1892.6094,326.4025 L1892.6094,327.8556 Q1892.6094,328.465 1892.375,328.7306 Q1892.1406,328.9963 1891.7656,328.9963 Q1891.4219,328.9963 1891.2188,328.7931 Q1891.0156,328.6056 1890.9063,328.09 Q1890.8594,327.7306 1890.6719,327.5431 Q1890.3438,327.1681 1889.7344,326.9494 Q1889.125,326.7306 1888.5,326.7306 Q1887.7344,326.7306 1887.0938,327.0588 Q1886.4688,327.3869 1885.9688,328.1369 Q1885.4844,328.8869 1885.4844,329.9181 L1885.4844,331.0119 Q1885.4844,332.2463 1886.375,333.0744 Q1887.2656,333.8869 1888.8594,333.8869 Q1889.7969,333.8869 1890.4531,333.6369 Q1890.8438,333.4806 1891.2656,333.0431 Q1891.5313,332.7775 1891.6719,332.6994 Q1891.8281,332.6213 1892.0313,332.6213 Q1892.3594,332.6213 1892.6094,332.8869 Q1892.875,333.1369 1892.875,333.4806 Q1892.875,333.8244 1892.5313,334.2306 Q1892.0313,334.8088 1891.2344,335.1369 Q1890.1563,335.59 1888.8594,335.59 Q1887.3438,335.59 1886.1406,334.965 Q1885.1563,334.465 1884.4688,333.4025 Q1883.7813,332.3244 1883.7813,331.0431 L1883.7813,329.8869 Q1883.7813,328.5588 1884.3906,327.4181 Q1885.0156,326.2619 1886.1094,325.6525 Q1887.2031,325.0275 1888.4375,325.0275 Q1889.1719,325.0275 1889.8125,325.1994 Q1890.4688,325.3556 1891.0156,325.715 Z " fill="#000000"/><text fill="#000000" font-family="sans-serif" font-size="14" lengthAdjust="spacing" textLength="98" x="1908.75" y="335.5685">NeonDbService</text><line style="stroke:#181818;stroke-width:0.5;" x1="1472" x2="2411" y1="345.84" y2="345.84"/><text fill="#000000" font-family="sans-serif" font-size="14" lengthAdjust="spacing" textLength="90" x="1477" y="364.3732">-sql : Function</text><line style="stroke:#181818;stroke-width:0.5;" x1="1472" x2="2411" y1="371.4494" y2="371.4494"/><text fill="#000000" font-family="sans-serif" font-size="14" lengthAdjust="spacing" textLength="89" x="1477" y="389.9826">+constructor()</text><text fill="#000000" font-family="sans-serif" font-size="14" lengthAdjust="spacing" textLength="218" x="1477" y="407.592">+testConnection() : Promise&lt;void&gt;</text><text fill="#000000" font-family="sans-serif" font-size="14" lengthAdjust="spacing" textLength="228" x="1477" y="425.2013">+closeConnection() : Promise&lt;void&gt;</text><text fill="#000000" font-family="sans-serif" font-size="14" lengthAdjust="spacing" textLength="170" x="1477" y="442.8107">-_checkConnection() : void</text><text fill="#000000" font-family="sans-serif" font-size="14" lengthAdjust="spacing" textLength="424" x="1477" y="460.4201">+createUser(username : String, password : String) : Promise&lt;User&gt;</text><text fill="#000000" font-family="sans-serif" font-size="14" lengthAdjust="spacing" textLength="492" x="1477" y="478.0295">+getUserByCredentials(username : String, password : String) : Promise&lt;User&gt;</text><text fill="#000000" font-family="sans-serif" font-size="14" lengthAdjust="spacing" textLength="363" x="1477" y="495.6388">+checkUserExists(username : String) : Promise&lt;Boolean&gt;</text><text fill="#000000" font-family="sans-serif" font-size="14" lengthAdjust="spacing" textLength="447" x="1477" y="513.2482">+createUserTopic(userId : Integer, topic : String) : Promise&lt;UserTopic&gt;</text><text fill="#000000" font-family="sans-serif" font-size="14" lengthAdjust="spacing" textLength="355" x="1477" y="530.8576">+getUserTopics(userId : Integer) : Promise&lt;UserTopic[]&gt;</text><text fill="#000000" font-family="sans-serif" font-size="14" lengthAdjust="spacing" textLength="515" x="1477" y="548.467">+getUserTopicByName(userId : Integer, topicName : String) : Promise&lt;UserTopic&gt;</text><text fill="#000000" font-family="sans-serif" font-size="14" lengthAdjust="spacing" textLength="588" x="1477" y="566.0763">+createUserRoadmap(userTopicId : Integer, roadmapData : JSON) : Promise&lt;UserRoadmap&gt;</text><text fill="#000000" font-family="sans-serif" font-size="14" lengthAdjust="spacing" textLength="407" x="1477" y="583.6857">+getUserRoadmaps(userId : Integer) : Promise&lt;UserRoadmap[]&gt;</text><text fill="#000000" font-family="sans-serif" font-size="14" lengthAdjust="spacing" textLength="585" x="1477" y="601.2951">+updateUserRoadmap(roadmapId : Integer, roadmapData : JSON) : Promise&lt;UserRoadmap&gt;</text><text fill="#000000" font-family="sans-serif" font-size="14" lengthAdjust="spacing" textLength="635" x="1477" y="618.9045">+createUserVideos(userRoadmapId : Integer, level : String, videoData : JSON) : Promise&lt;UserVideo&gt;</text><text fill="#000000" font-family="sans-serif" font-size="14" lengthAdjust="spacing" textLength="929" x="1477" y="636.5138">+storeUserVideos(userRoadmapId : Integer, level : String, videoData : JSON, pageNumber : Integer, isRegenerate : Boolean) : Promise&lt;UserVideo&gt;</text><text fill="#000000" font-family="sans-serif" font-size="14" lengthAdjust="spacing" textLength="600" x="1477" y="654.1232">+getUserVideos(userRoadmapId : Integer, level : String, page : Integer) : Promise&lt;UserVideo[]&gt;</text><text fill="#000000" font-family="sans-serif" font-size="14" lengthAdjust="spacing" textLength="874" x="1477" y="671.7326">+markRoadmapPointComplete(userId : Integer, roadmapId : Integer, pointId : String, isCompleted : Boolean) : Promise&lt;RoadmapProgress&gt;</text><text fill="#000000" font-family="sans-serif" font-size="14" lengthAdjust="spacing" textLength="587" x="1477" y="689.342">+getRoadmapProgress(userId : Integer, roadmapId : Integer) : Promise&lt;RoadmapProgress[]&gt;</text><text fill="#000000" font-family="sans-serif" font-size="14" lengthAdjust="spacing" textLength="372" x="1477" y="706.9513">+getUserSettings(userId : Integer) : Promise&lt;UserSettings&gt;</text><text fill="#000000" font-family="sans-serif" font-size="14" lengthAdjust="spacing" textLength="502" x="1477" y="724.5607">+updateUserSettings(userId : Integer, updates : JSON) : Promise&lt;UserSettings&gt;</text></g><!--class GeminiService--><g id="elem_GeminiService"><rect codeLine="100" fill="#F1F1F1" height="153.6563" id="GeminiService" rx="2.5" ry="2.5" style="stroke:#181818;stroke-width:0.5;" width="635" x="615" y="1044.84"/><ellipse cx="882.75" cy="1060.84" fill="#ADD1B2" rx="11" ry="11" style="stroke:#181818;stroke-width:1.0;"/><path d="M885.5156,1056.715 Q885.6719,1056.4963 885.8594,1056.3869 Q886.0469,1056.2775 886.2656,1056.2775 Q886.6406,1056.2775 886.875,1056.5431 Q887.1094,1056.7931 887.1094,1057.4025 L887.1094,1058.8556 Q887.1094,1059.465 886.875,1059.7306 Q886.6406,1059.9963 886.2656,1059.9963 Q885.9219,1059.9963 885.7188,1059.7931 Q885.5156,1059.6056 885.4063,1059.09 Q885.3594,1058.7306 885.1719,1058.5431 Q884.8438,1058.1681 884.2344,1057.9494 Q883.625,1057.7306 883,1057.7306 Q882.2344,1057.7306 881.5938,1058.0588 Q880.9688,1058.3869 880.4688,1059.1369 Q879.9844,1059.8869 879.9844,1060.9181 L879.9844,1062.0119 Q879.9844,1063.2463 880.875,1064.0744 Q881.7656,1064.8869 883.3594,1064.8869 Q884.2969,1064.8869 884.9531,1064.6369 Q885.3438,1064.4806 885.7656,1064.0431 Q886.0313,1063.7775 886.1719,1063.6994 Q886.3281,1063.6213 886.5313,1063.6213 Q886.8594,1063.6213 887.1094,1063.8869 Q887.375,1064.1369 887.375,1064.4806 Q887.375,1064.8244 887.0313,1065.2306 Q886.5313,1065.8088 885.7344,1066.1369 Q884.6563,1066.59 883.3594,1066.59 Q881.8438,1066.59 880.6406,1065.965 Q879.6563,1065.465 878.9688,1064.4025 Q878.2813,1063.3244 878.2813,1062.0431 L878.2813,1060.8869 Q878.2813,1059.5588 878.8906,1058.4181 Q879.5156,1057.2619 880.6094,1056.6525 Q881.7031,1056.0275 882.9375,1056.0275 Q883.6719,1056.0275 884.3125,1056.1994 Q884.9688,1056.3556 885.5156,1056.715 Z " fill="#000000"/><text fill="#000000" font-family="sans-serif" font-size="14" lengthAdjust="spacing" textLength="91" x="903.25" y="1066.5685">GeminiService</text><line style="stroke:#181818;stroke-width:0.5;" x1="616" x2="1249" y1="1076.84" y2="1076.84"/><text fill="#000000" font-family="sans-serif" font-size="14" lengthAdjust="spacing" textLength="181" x="621" y="1095.3732">-genAI : GoogleGenerativeAI</text><line style="stroke:#181818;stroke-width:0.5;" x1="616" x2="1249" y1="1102.4494" y2="1102.4494"/><text fill="#000000" font-family="sans-serif" font-size="14" lengthAdjust="spacing" textLength="89" x="621" y="1120.9826">+constructor()</text><text fill="#000000" font-family="sans-serif" font-size="14" lengthAdjust="spacing" textLength="489" x="621" y="1138.592">+generateRoadmap(topic : String, userPreferences : JSON) : Promise&lt;JSON&gt;</text><text fill="#000000" font-family="sans-serif" font-size="14" lengthAdjust="spacing" textLength="623" x="621" y="1156.2013">+generateVideoTitles(topic : String, pointTitle : String, userPreferences : JSON) : Promise&lt;String[]&gt;</text><text fill="#000000" font-family="sans-serif" font-size="14" lengthAdjust="spacing" textLength="339" x="621" y="1173.8107">-_parseRoadmapResponse(response : String) : JSON</text><text fill="#000000" font-family="sans-serif" font-size="14" lengthAdjust="spacing" textLength="358" x="621" y="1191.4201">-_parseVideoTitlesResponse(response : String) : String[]</text></g><!--class YoutubeService--><g id="elem_YoutubeService"><rect codeLine="110" fill="#F1F1F1" height="171.2656" id="YoutubeService" rx="2.5" ry="2.5" style="stroke:#181818;stroke-width:0.5;" width="619" x="623" y="1234.34"/><ellipse cx="878.25" cy="1250.34" fill="#ADD1B2" rx="11" ry="11" style="stroke:#181818;stroke-width:1.0;"/><path d="M881.0156,1246.215 Q881.1719,1245.9963 881.3594,1245.8869 Q881.5469,1245.7775 881.7656,1245.7775 Q882.1406,1245.7775 882.375,1246.0431 Q882.6094,1246.2931 882.6094,1246.9025 L882.6094,1248.3556 Q882.6094,1248.965 882.375,1249.2306 Q882.1406,1249.4963 881.7656,1249.4963 Q881.4219,1249.4963 881.2188,1249.2931 Q881.0156,1249.1056 880.9063,1248.59 Q880.8594,1248.2306 880.6719,1248.0431 Q880.3438,1247.6681 879.7344,1247.4494 Q879.125,1247.2306 878.5,1247.2306 Q877.7344,1247.2306 877.0938,1247.5588 Q876.4688,1247.8869 875.9688,1248.6369 Q875.4844,1249.3869 875.4844,1250.4181 L875.4844,1251.5119 Q875.4844,1252.7463 876.375,1253.5744 Q877.2656,1254.3869 878.8594,1254.3869 Q879.7969,1254.3869 880.4531,1254.1369 Q880.8438,1253.9806 881.2656,1253.5431 Q881.5313,1253.2775 881.6719,1253.1994 Q881.8281,1253.1213 882.0313,1253.1213 Q882.3594,1253.1213 882.6094,1253.3869 Q882.875,1253.6369 882.875,1253.9806 Q882.875,1254.3244 882.5313,1254.7306 Q882.0313,1255.3088 881.2344,1255.6369 Q880.1563,1256.09 878.8594,1256.09 Q877.3438,1256.09 876.1406,1255.465 Q875.1563,1254.965 874.4688,1253.9025 Q873.7813,1252.8244 873.7813,1251.5431 L873.7813,1250.3869 Q873.7813,1249.0588 874.3906,1247.9181 Q875.0156,1246.7619 876.1094,1246.1525 Q877.2031,1245.5275 878.4375,1245.5275 Q879.1719,1245.5275 879.8125,1245.6994 Q880.4688,1245.8556 881.0156,1246.215 Z " fill="#000000"/><text fill="#000000" font-family="sans-serif" font-size="14" lengthAdjust="spacing" textLength="100" x="898.75" y="1256.0685">YoutubeService</text><line style="stroke:#181818;stroke-width:0.5;" x1="624" x2="1241" y1="1266.34" y2="1266.34"/><text fill="#000000" font-family="sans-serif" font-size="14" lengthAdjust="spacing" textLength="199" x="629" y="1284.8732">-youtube : youtube_v3.Youtube</text><line style="stroke:#181818;stroke-width:0.5;" x1="624" x2="1241" y1="1291.9494" y2="1291.9494"/><text fill="#000000" font-family="sans-serif" font-size="14" lengthAdjust="spacing" textLength="89" x="629" y="1310.4826">+constructor()</text><text fill="#000000" font-family="sans-serif" font-size="14" lengthAdjust="spacing" textLength="607" x="629" y="1328.092">+searchVideos(query : String, maxResults : Integer, userPreferences : JSON) : Promise&lt;JSON[]&gt;</text><text fill="#000000" font-family="sans-serif" font-size="14" lengthAdjust="spacing" textLength="538" x="629" y="1345.7013">+searchMultipleVideos(queries : String[], userPreferences : JSON) : Promise&lt;JSON[]&gt;</text><text fill="#000000" font-family="sans-serif" font-size="14" lengthAdjust="spacing" textLength="271" x="629" y="1363.3107">-_buildSearchQuery(query : String) : String</text><text fill="#000000" font-family="sans-serif" font-size="14" lengthAdjust="spacing" textLength="440" x="629" y="1380.9201">-_filterVideosByDuration(videos : JSON[], preference : String) : JSON[]</text><text fill="#000000" font-family="sans-serif" font-size="14" lengthAdjust="spacing" textLength="290" x="629" y="1398.5295">-_deduplicateVideos(videos : JSON[]) : JSON[]</text></g><!--class ResponseModels--><g id="elem_ResponseModels"><rect codeLine="123" fill="#F1F1F1" height="199.5781" id="ResponseModels" rx="2.5" ry="2.5" style="stroke:#181818;stroke-width:0.5;" width="222" x="1830.5" y="1534.84"/><ellipse cx="1882.75" cy="1556.1916" fill="#ADD1B2" rx="11" ry="11" style="stroke:#181818;stroke-width:1.0;"/><path d="M1885.5156,1552.0666 Q1885.6719,1551.8478 1885.8594,1551.7384 Q1886.0469,1551.6291 1886.2656,1551.6291 Q1886.6406,1551.6291 1886.875,1551.8947 Q1887.1094,1552.1447 1887.1094,1552.7541 L1887.1094,1554.2072 Q1887.1094,1554.8166 1886.875,1555.0822 Q1886.6406,1555.3478 1886.2656,1555.3478 Q1885.9219,1555.3478 1885.7188,1555.1447 Q1885.5156,1554.9572 1885.4063,1554.4416 Q1885.3594,1554.0822 1885.1719,1553.8947 Q1884.8438,1553.5197 1884.2344,1553.3009 Q1883.625,1553.0822 1883,1553.0822 Q1882.2344,1553.0822 1881.5938,1553.4103 Q1880.9688,1553.7384 1880.4688,1554.4884 Q1879.9844,1555.2384 1879.9844,1556.2697 L1879.9844,1557.3634 Q1879.9844,1558.5978 1880.875,1559.4259 Q1881.7656,1560.2384 1883.3594,1560.2384 Q1884.2969,1560.2384 1884.9531,1559.9884 Q1885.3438,1559.8322 1885.7656,1559.3947 Q1886.0313,1559.1291 1886.1719,1559.0509 Q1886.3281,1558.9728 1886.5313,1558.9728 Q1886.8594,1558.9728 1887.1094,1559.2384 Q1887.375,1559.4884 1887.375,1559.8322 Q1887.375,1560.1759 1887.0313,1560.5822 Q1886.5313,1561.1603 1885.7344,1561.4884 Q1884.6563,1561.9416 1883.3594,1561.9416 Q1881.8438,1561.9416 1880.6406,1561.3166 Q1879.6563,1560.8166 1878.9688,1559.7541 Q1878.2813,1558.6759 1878.2813,1557.3947 L1878.2813,1556.2384 Q1878.2813,1554.9103 1878.8906,1553.7697 Q1879.5156,1552.6134 1880.6094,1552.0041 Q1881.7031,1551.3791 1882.9375,1551.3791 Q1883.6719,1551.3791 1884.3125,1551.5509 Q1884.9688,1551.7072 1885.5156,1552.0666 Z " fill="#000000"/><text fill="#000000" font-family="sans-serif" font-size="12" font-style="italic" lengthAdjust="spacing" textLength="44" x="1935.75" y="1552.297">&#171;Utility&#187;</text><text fill="#000000" font-family="sans-serif" font-size="14" lengthAdjust="spacing" textLength="109" x="1903.25" y="1569.467">ResponseModels</text><line style="stroke:#181818;stroke-width:0.5;" x1="1831.5" x2="2051.5" y1="1577.5431" y2="1577.5431"/><text fill="#000000" font-family="sans-serif" font-size="14" lengthAdjust="spacing" textLength="172" x="1836.5" y="1596.0763">+SuccessResponse : Class</text><text fill="#000000" font-family="sans-serif" font-size="14" lengthAdjust="spacing" textLength="151" x="1836.5" y="1613.6857">+ErrorResponse : Class</text><text fill="#000000" font-family="sans-serif" font-size="14" lengthAdjust="spacing" textLength="130" x="1836.5" y="1631.2951">+ErrorDetails : Class</text><text fill="#000000" font-family="sans-serif" font-size="14" lengthAdjust="spacing" textLength="210" x="1836.5" y="1648.9045">+RoadmapDataResponse : Class</text><text fill="#000000" font-family="sans-serif" font-size="14" lengthAdjust="spacing" textLength="151" x="1836.5" y="1666.5138">+PointResponse : Class</text><text fill="#000000" font-family="sans-serif" font-size="14" lengthAdjust="spacing" textLength="176" x="1836.5" y="1684.1232">+ProgressResponse : Class</text><text fill="#000000" font-family="sans-serif" font-size="14" lengthAdjust="spacing" textLength="163" x="1836.5" y="1701.7326">+PlaylistResponse : Class</text><text fill="#000000" font-family="sans-serif" font-size="14" lengthAdjust="spacing" textLength="125" x="1836.5" y="1719.342">+PlaylistItem : Class</text><line style="stroke:#181818;stroke-width:0.5;" x1="1831.5" x2="2051.5" y1="1726.4181" y2="1726.4181"/></g><!--class Helpers--><g id="elem_Helpers"><rect codeLine="134" fill="#F1F1F1" height="129.1406" id="Helpers" rx="2.5" ry="2.5" style="stroke:#181818;stroke-width:0.5;" width="313" x="1785" y="1206.34"/><ellipse cx="1913.25" cy="1227.6916" fill="#ADD1B2" rx="11" ry="11" style="stroke:#181818;stroke-width:1.0;"/><path d="M1916.0156,1223.5666 Q1916.1719,1223.3478 1916.3594,1223.2384 Q1916.5469,1223.1291 1916.7656,1223.1291 Q1917.1406,1223.1291 1917.375,1223.3947 Q1917.6094,1223.6447 1917.6094,1224.2541 L1917.6094,1225.7072 Q1917.6094,1226.3166 1917.375,1226.5822 Q1917.1406,1226.8478 1916.7656,1226.8478 Q1916.4219,1226.8478 1916.2188,1226.6447 Q1916.0156,1226.4572 1915.9063,1225.9416 Q1915.8594,1225.5822 1915.6719,1225.3947 Q1915.3438,1225.0197 1914.7344,1224.8009 Q1914.125,1224.5822 1913.5,1224.5822 Q1912.7344,1224.5822 1912.0938,1224.9103 Q1911.4688,1225.2384 1910.9688,1225.9884 Q1910.4844,1226.7384 1910.4844,1227.7697 L1910.4844,1228.8634 Q1910.4844,1230.0978 1911.375,1230.9259 Q1912.2656,1231.7384 1913.8594,1231.7384 Q1914.7969,1231.7384 1915.4531,1231.4884 Q1915.8438,1231.3322 1916.2656,1230.8947 Q1916.5313,1230.6291 1916.6719,1230.5509 Q1916.8281,1230.4728 1917.0313,1230.4728 Q1917.3594,1230.4728 1917.6094,1230.7384 Q1917.875,1230.9884 1917.875,1231.3322 Q1917.875,1231.6759 1917.5313,1232.0822 Q1917.0313,1232.6603 1916.2344,1232.9884 Q1915.1563,1233.4416 1913.8594,1233.4416 Q1912.3438,1233.4416 1911.1406,1232.8166 Q1910.1563,1232.3166 1909.4688,1231.2541 Q1908.7813,1230.1759 1908.7813,1228.8947 L1908.7813,1227.7384 Q1908.7813,1226.4103 1909.3906,1225.2697 Q1910.0156,1224.1134 1911.1094,1223.5041 Q1912.2031,1222.8791 1913.4375,1222.8791 Q1914.1719,1222.8791 1914.8125,1223.0509 Q1915.4688,1223.2072 1916.0156,1223.5666 Z " fill="#000000"/><text fill="#000000" font-family="sans-serif" font-size="12" font-style="italic" lengthAdjust="spacing" textLength="44" x="1935.75" y="1223.797">&#171;Utility&#187;</text><text fill="#000000" font-family="sans-serif" font-size="14" lengthAdjust="spacing" textLength="48" x="1933.75" y="1240.967">Helpers</text><line style="stroke:#181818;stroke-width:0.5;" x1="1786" x2="2097" y1="1249.0431" y2="1249.0431"/><line style="stroke:#181818;stroke-width:0.5;" x1="1786" x2="2097" y1="1257.0431" y2="1257.0431"/><text fill="#000000" font-family="sans-serif" font-size="14" lengthAdjust="spacing" text-decoration="underline" textLength="218" x="1791" y="1275.5763">+generateId(prefix : String) : String</text><text fill="#000000" font-family="sans-serif" font-size="14" lengthAdjust="spacing" text-decoration="underline" textLength="204" x="1791" y="1293.1857">+getCurrentTimestamp() : String</text><text fill="#000000" font-family="sans-serif" font-size="14" lengthAdjust="spacing" text-decoration="underline" textLength="237" x="1791" y="1310.7951">+capitalizeWords(text : String) : String</text><text fill="#000000" font-family="sans-serif" font-size="14" lengthAdjust="spacing" text-decoration="underline" textLength="301" x="1791" y="1328.4045">+extractTopicFromQuery(query : String) : String</text></g><!--class Logger--><g id="elem_Logger"><rect codeLine="141" fill="#F1F1F1" height="129.1406" id="Logger" rx="2.5" ry="2.5" style="stroke:#181818;stroke-width:0.5;" width="402" x="1740.5" y="1370.34"/><ellipse cx="1914.75" cy="1391.6916" fill="#ADD1B2" rx="11" ry="11" style="stroke:#181818;stroke-width:1.0;"/><path d="M1917.5156,1387.5666 Q1917.6719,1387.3478 1917.8594,1387.2384 Q1918.0469,1387.1291 1918.2656,1387.1291 Q1918.6406,1387.1291 1918.875,1387.3947 Q1919.1094,1387.6447 1919.1094,1388.2541 L1919.1094,1389.7072 Q1919.1094,1390.3166 1918.875,1390.5822 Q1918.6406,1390.8478 1918.2656,1390.8478 Q1917.9219,1390.8478 1917.7188,1390.6447 Q1917.5156,1390.4572 1917.4063,1389.9416 Q1917.3594,1389.5822 1917.1719,1389.3947 Q1916.8438,1389.0197 1916.2344,1388.8009 Q1915.625,1388.5822 1915,1388.5822 Q1914.2344,1388.5822 1913.5938,1388.9103 Q1912.9688,1389.2384 1912.4688,1389.9884 Q1911.9844,1390.7384 1911.9844,1391.7697 L1911.9844,1392.8634 Q1911.9844,1394.0978 1912.875,1394.9259 Q1913.7656,1395.7384 1915.3594,1395.7384 Q1916.2969,1395.7384 1916.9531,1395.4884 Q1917.3438,1395.3322 1917.7656,1394.8947 Q1918.0313,1394.6291 1918.1719,1394.5509 Q1918.3281,1394.4728 1918.5313,1394.4728 Q1918.8594,1394.4728 1919.1094,1394.7384 Q1919.375,1394.9884 1919.375,1395.3322 Q1919.375,1395.6759 1919.0313,1396.0822 Q1918.5313,1396.6603 1917.7344,1396.9884 Q1916.6563,1397.4416 1915.3594,1397.4416 Q1913.8438,1397.4416 1912.6406,1396.8166 Q1911.6563,1396.3166 1910.9688,1395.2541 Q1910.2813,1394.1759 1910.2813,1392.8947 L1910.2813,1391.7384 Q1910.2813,1390.4103 1910.8906,1389.2697 Q1911.5156,1388.1134 1912.6094,1387.5041 Q1913.7031,1386.8791 1914.9375,1386.8791 Q1915.6719,1386.8791 1916.3125,1387.0509 Q1916.9688,1387.2072 1917.5156,1387.5666 Z " fill="#000000"/><text fill="#000000" font-family="sans-serif" font-size="12" font-style="italic" lengthAdjust="spacing" textLength="44" x="1935.75" y="1387.797">&#171;Utility&#187;</text><text fill="#000000" font-family="sans-serif" font-size="14" lengthAdjust="spacing" textLength="45" x="1935.25" y="1404.967">Logger</text><line style="stroke:#181818;stroke-width:0.5;" x1="1741.5" x2="2141.5" y1="1413.0431" y2="1413.0431"/><text fill="#000000" font-family="sans-serif" font-size="14" lengthAdjust="spacing" textLength="130" x="1746.5" y="1431.5763">+appLogger : Object</text><line style="stroke:#181818;stroke-width:0.5;" x1="1741.5" x2="2141.5" y1="1438.6525" y2="1438.6525"/><text fill="#000000" font-family="sans-serif" font-size="14" lengthAdjust="spacing" textLength="299" x="1746.5" y="1457.1857">+info(message : String, metadata : JSON) : void</text><text fill="#000000" font-family="sans-serif" font-size="14" lengthAdjust="spacing" textLength="390" x="1746.5" y="1474.7951">+error(message : String, error : Error, metadata : JSON) : void</text><text fill="#000000" font-family="sans-serif" font-size="14" lengthAdjust="spacing" textLength="306" x="1746.5" y="1492.4045">+warn(message : String, metadata : JSON) : void</text></g><!--class Security--><g id="elem_Security"><rect codeLine="148" fill="#F1F1F1" height="111.5313" id="Security" rx="2.5" ry="2.5" style="stroke:#181818;stroke-width:0.5;" width="503" x="1690" y="1058.84"/><ellipse cx="1911.75" cy="1080.1916" fill="#ADD1B2" rx="11" ry="11" style="stroke:#181818;stroke-width:1.0;"/><path d="M1914.5156,1076.0666 Q1914.6719,1075.8478 1914.8594,1075.7384 Q1915.0469,1075.6291 1915.2656,1075.6291 Q1915.6406,1075.6291 1915.875,1075.8947 Q1916.1094,1076.1447 1916.1094,1076.7541 L1916.1094,1078.2072 Q1916.1094,1078.8166 1915.875,1079.0822 Q1915.6406,1079.3478 1915.2656,1079.3478 Q1914.9219,1079.3478 1914.7188,1079.1447 Q1914.5156,1078.9572 1914.4063,1078.4416 Q1914.3594,1078.0822 1914.1719,1077.8947 Q1913.8438,1077.5197 1913.2344,1077.3009 Q1912.625,1077.0822 1912,1077.0822 Q1911.2344,1077.0822 1910.5938,1077.4103 Q1909.9688,1077.7384 1909.4688,1078.4884 Q1908.9844,1079.2384 1908.9844,1080.2697 L1908.9844,1081.3634 Q1908.9844,1082.5978 1909.875,1083.4259 Q1910.7656,1084.2384 1912.3594,1084.2384 Q1913.2969,1084.2384 1913.9531,1083.9884 Q1914.3438,1083.8322 1914.7656,1083.3947 Q1915.0313,1083.1291 1915.1719,1083.0509 Q1915.3281,1082.9728 1915.5313,1082.9728 Q1915.8594,1082.9728 1916.1094,1083.2384 Q1916.375,1083.4884 1916.375,1083.8322 Q1916.375,1084.1759 1916.0313,1084.5822 Q1915.5313,1085.1603 1914.7344,1085.4884 Q1913.6563,1085.9416 1912.3594,1085.9416 Q1910.8438,1085.9416 1909.6406,1085.3166 Q1908.6563,1084.8166 1907.9688,1083.7541 Q1907.2813,1082.6759 1907.2813,1081.3947 L1907.2813,1080.2384 Q1907.2813,1078.9103 1907.8906,1077.7697 Q1908.5156,1076.6134 1909.6094,1076.0041 Q1910.7031,1075.3791 1911.9375,1075.3791 Q1912.6719,1075.3791 1913.3125,1075.5509 Q1913.9688,1075.7072 1914.5156,1076.0666 Z " fill="#000000"/><text fill="#000000" font-family="sans-serif" font-size="12" font-style="italic" lengthAdjust="spacing" textLength="44" x="1935.75" y="1076.297">&#171;Utility&#187;</text><text fill="#000000" font-family="sans-serif" font-size="14" lengthAdjust="spacing" textLength="51" x="1932.25" y="1093.467">Security</text><line style="stroke:#181818;stroke-width:0.5;" x1="1691" x2="2192" y1="1101.5431" y2="1101.5431"/><text fill="#000000" font-family="sans-serif" font-size="14" lengthAdjust="spacing" textLength="142" x="1696" y="1120.0763">+rateLimiter : Function</text><text fill="#000000" font-family="sans-serif" font-size="14" lengthAdjust="spacing" textLength="175" x="1696" y="1137.6857">+userDataLimiter : Function</text><line style="stroke:#181818;stroke-width:0.5;" x1="1691" x2="2192" y1="1144.7619" y2="1144.7619"/><text fill="#000000" font-family="sans-serif" font-size="14" lengthAdjust="spacing" textLength="491" x="1696" y="1163.2951">+handleValidationErrors(req : Request, res : Response, next : Function) : void</text></g><g id="elem_GMN33"><path d="M867,62.34 L867,105.0431 L998,105.0431 L998,72.34 L988,62.34 L867,62.34 " fill="#FEFFDD" style="stroke:#181818;stroke-width:0.5;"/><path d="M988,62.34 L988,72.34 L998,72.34 L988,62.34 " fill="#FEFFDD" style="stroke:#181818;stroke-width:1.0;"/><text fill="#000000" font-family="sans-serif" font-size="13" lengthAdjust="spacing" textLength="96" x="873" y="80.8351">Interface for data</text><text fill="#000000" font-family="sans-serif" font-size="13" lengthAdjust="spacing" textLength="110" x="873" y="97.1867">access abstraction</text></g><g id="elem_GMN36"><path d="M861.5,140.34 L861.5,183.0431 L1003.5,183.0431 L1003.5,150.34 L993.5,140.34 L861.5,140.34 " fill="#FEFFDD" style="stroke:#181818;stroke-width:0.5;"/><path d="M993.5,140.34 L993.5,150.34 L1003.5,150.34 L993.5,140.34 " fill="#FEFFDD" style="stroke:#181818;stroke-width:1.0;"/><text fill="#000000" font-family="sans-serif" font-size="13" lengthAdjust="spacing" textLength="121" x="867.5" y="158.8351">AI service for content</text><text fill="#000000" font-family="sans-serif" font-size="13" lengthAdjust="spacing" textLength="60" x="867.5" y="175.1867">generation</text></g><g id="elem_GMN39"><path d="M876.5,218.34 L876.5,261.0431 L988.5,261.0431 L988.5,228.34 L978.5,218.34 L876.5,218.34 " fill="#FEFFDD" style="stroke:#181818;stroke-width:0.5;"/><path d="M978.5,218.34 L978.5,228.34 L988.5,228.34 L978.5,218.34 " fill="#FEFFDD" style="stroke:#181818;stroke-width:1.0;"/><text fill="#000000" font-family="sans-serif" font-size="13" lengthAdjust="spacing" textLength="91" x="882.5" y="236.8351">External API for</text><text fill="#000000" font-family="sans-serif" font-size="13" lengthAdjust="spacing" textLength="72" x="882.5" y="253.1867">video search</text></g><!--reverse link DatabaseService to NeonDbService--><g id="link_DatabaseService_NeonDbService"><path codeLine="156" d="M1360.3452,546.4597 C1402.7052,544.7397 1428.01,543.7 1470.97,541.95 " fill="none" id="DatabaseService-backto-NeonDbService" style="stroke:#181818;stroke-width:1.0;stroke-dasharray:7.0,7.0;"/><polygon fill="none" points="1342.36,547.19,1360.5886,552.4548,1360.1018,540.4647,1342.36,547.19" style="stroke:#181818;stroke-width:1.0;"/><text fill="#000000" font-family="sans-serif" font-size="13" lengthAdjust="spacing" textLength="67" x="1373" y="540.3351">implements</text></g><!--link UserRoutes to DatabaseService--><g id="link_UserRoutes_DatabaseService"><path codeLine="159" d="M328.96,878.83 C366.86,835.37 412.51,789.74 461,755.84 C480.61,742.12 496.1396,732.1353 517.5396,719.9153 " fill="none" id="UserRoutes-to-DatabaseService" style="stroke:#181818;stroke-width:1.0;"/><polygon fill="#181818" points="522.75,716.94,512.951,717.9293,518.408,719.4194,516.918,724.8765,522.75,716.94" style="stroke:#181818;stroke-width:1.0;"/><text fill="#000000" font-family="sans-serif" font-size="13" lengthAdjust="spacing" textLength="28" x="462" y="737.3351">uses</text></g><!--link RoadmapRoutes to GeminiService--><g id="link_RoadmapRoutes_GeminiService"><path codeLine="160" d="M413.58,1215.14 C475.38,1204 540.045,1192.3533 608.795,1179.9733 " fill="none" id="RoadmapRoutes-to-GeminiService" style="stroke:#181818;stroke-width:1.0;"/><polygon fill="#181818" points="614.7,1178.91,605.1336,1176.5683,609.7791,1179.7961,606.5514,1184.4417,614.7,1178.91" style="stroke:#181818;stroke-width:1.0;"/><text fill="#000000" font-family="sans-serif" font-size="13" lengthAdjust="spacing" textLength="28" x="462" y="1201.3351">uses</text></g><!--link RoadmapRoutes to DatabaseService--><g id="link_RoadmapRoutes_DatabaseService"><path codeLine="161" d="M413.75,1202.52 C428.85,1192.57 442.36,1180.5 453,1165.84 C460.25,1155.85 459.55,956.09 461,943.84 C462.25,933.26 492.33,764.15 499,755.84 C506.46,746.55 510.2023,741.9276 518.6623,733.4876 " fill="none" id="RoadmapRoutes-to-DatabaseService" style="stroke:#181818;stroke-width:1.0;"/><polygon fill="#181818" points="522.91,729.25,513.7134,732.7747,519.3703,732.7813,519.3636,738.4382,522.91,729.25" style="stroke:#181818;stroke-width:1.0;"/><text fill="#000000" font-family="sans-serif" font-size="13" lengthAdjust="spacing" textLength="28" x="462" y="782.3351">uses</text></g><!--link PlaylistRoutes to GeminiService--><g id="link_PlaylistRoutes_GeminiService"><path codeLine="162" d="M411.77,1364.32 C426.77,1354.53 440.82,1343.42 453,1330.84 C462.5,1321.02 488.57,1225.65 499,1216.84 C532.61,1188.43 567.1517,1169.9374 609.3317,1155.2974 " fill="none" id="PlaylistRoutes-to-GeminiService" style="stroke:#181818;stroke-width:1.0;"/><polygon fill="#181818" points="615,1153.33,605.186,1152.5022,610.2764,1154.9695,607.8092,1160.0599,615,1153.33" style="stroke:#181818;stroke-width:1.0;"/><text fill="#000000" font-family="sans-serif" font-size="13" lengthAdjust="spacing" textLength="28" x="462" y="1230.3351">uses</text></g><!--link PlaylistRoutes to YoutubeService--><g id="link_PlaylistRoutes_YoutubeService"><path codeLine="163" d="M389.39,1512.86 C426.13,1519.98 462.61,1516.64 491,1491.84 C510.93,1474.43 481.45,1452.64 499,1432.84 C532.13,1395.44 570.3294,1371.8098 617.3594,1354.2398 " fill="none" id="PlaylistRoutes-to-YoutubeService" style="stroke:#181818;stroke-width:1.0;"/><polygon fill="#181818" points="622.98,1352.14,613.1493,1351.5426,618.2962,1353.8898,615.949,1359.0367,622.98,1352.14" style="stroke:#181818;stroke-width:1.0;"/><text fill="#000000" font-family="sans-serif" font-size="13" lengthAdjust="spacing" textLength="28" x="462" y="1488.3351">uses</text></g><!--link PlaylistRoutes to DatabaseService--><g id="link_PlaylistRoutes_DatabaseService"><path codeLine="164" d="M411.55,1371.85 C427.58,1360.47 441.9,1346.94 453,1330.84 C462.6,1316.92 459.35,1195.67 461,1178.84 C470.14,1085.44 482.57,1063.3 491,969.84 C492.07,957.99 492.33,765.69 499,755.84 C506.25,745.12 510.2295,739.4537 518.8595,729.8937 " fill="none" id="PlaylistRoutes-to-DatabaseService" style="stroke:#181818;stroke-width:1.0;"/><polygon fill="#181818" points="522.88,725.44,513.8801,729.4403,519.5296,729.1514,519.8184,734.8009,522.88,725.44" style="stroke:#181818;stroke-width:1.0;"/><text fill="#000000" font-family="sans-serif" font-size="13" lengthAdjust="spacing" textLength="28" x="462" y="966.3351">uses</text></g><!--link UserRoutes to Logger--><g id="link_UserRoutes_Logger"><path codeLine="167" d="M429.3,895.54 C439.84,891.81 450.44,888.53 461,885.84 C555.98,861.6 1264.79,871.45 1342,931.84 C1361.27,946.91 1452.66,1336.65 1471,1352.84 C1543.73,1417.04 1642.3412,1439.2629 1734.3512,1444.9029 " fill="none" id="UserRoutes-to-Logger" style="stroke:#181818;stroke-width:1.0;"/><polygon fill="#181818" points="1740.34,1445.27,1731.6016,1440.7268,1735.3494,1444.9641,1731.1121,1448.7119,1740.34,1445.27" style="stroke:#181818;stroke-width:1.0;"/><text fill="#000000" font-family="sans-serif" font-size="13" lengthAdjust="spacing" textLength="24" x="920.5" y="870.3351">logs</text></g><!--link UserRoutes to Security--><g id="link_UserRoutes_Security"><path codeLine="168" d="M378.43,878.67 C404.46,861.93 432.39,847.38 461,837.84 C646.72,775.89 1150.77,801.85 1342,843.84 C1532.37,885.63 1730.0661,989.3488 1843.9461,1055.7188 " fill="none" id="UserRoutes-to-Security" style="stroke:#181818;stroke-width:1.0;"/><polygon fill="#181818" points="1849.13,1058.74,1843.3683,1050.7523,1844.8101,1056.2223,1839.3401,1057.6641,1849.13,1058.74" style="stroke:#181818;stroke-width:1.0;"/><text fill="#000000" font-family="sans-serif" font-size="13" lengthAdjust="spacing" textLength="41" x="912" y="798.3351">applies</text></g><!--link UserRoutes to ResponseModels--><g id="link_UserRoutes_ResponseModels"><path codeLine="169" d="M429.04,1002.34 C732.38,987.23 1276.33,969.07 1342,1028.84 C1387.95,1070.66 1355.19,1247.02 1372,1306.84 C1399.92,1406.17 1391.3,1451.3 1471,1516.84 C1573.08,1600.78 1720.9139,1625.7116 1824.3939,1632.7716 " fill="none" id="UserRoutes-to-ResponseModels" style="stroke:#181818;stroke-width:1.0;"/><polygon fill="#181818" points="1830.38,1633.18,1821.6731,1628.5767,1825.3916,1632.8397,1821.1286,1636.5581,1830.38,1633.18" style="stroke:#181818;stroke-width:1.0;"/><text fill="#000000" font-family="sans-serif" font-size="13" lengthAdjust="spacing" textLength="43" x="911" y="984.3351">creates</text></g><!--link RoadmapRoutes to Logger--><g id="link_RoadmapRoutes_Logger"><path codeLine="170" d="M413.78,1308.6 C427.43,1315.37 440.66,1322.77 453,1330.84 C473.52,1344.26 480.61,1348.63 491,1370.84 C497.54,1384.82 487.47,1429.57 499,1439.84 C589.37,1520.34 1360.2148,1476.7509 1734.5148,1450.4309 " fill="none" id="RoadmapRoutes-to-Logger" style="stroke:#181818;stroke-width:1.0;"/><polygon fill="#181818" points="1740.5,1450.01,1731.2416,1446.6512,1735.5123,1450.3607,1731.8027,1454.6314,1740.5,1450.01" style="stroke:#181818;stroke-width:1.0;"/><text fill="#000000" font-family="sans-serif" font-size="13" lengthAdjust="spacing" textLength="24" x="920.5" y="1436.3351">logs</text></g><!--link RoadmapRoutes to ResponseModels--><g id="link_RoadmapRoutes_ResponseModels"><path codeLine="171" d="M413.56,1297.88 C428.24,1307.05 441.72,1317.93 453,1330.84 C464.07,1343.51 454.36,1352.38 461,1367.84 C470.34,1389.58 483.42,1389.42 491,1411.84 C496.31,1427.54 487.26,1549.13 499,1560.84 C592.5,1654.11 1503.5312,1644.0715 1824.3612,1637.5715 " fill="none" id="RoadmapRoutes-to-ResponseModels" style="stroke:#181818;stroke-width:1.0;"/><polygon fill="#181818" points="1830.36,1637.45,1821.2808,1633.6331,1825.361,1637.5513,1821.4429,1641.6315,1830.36,1637.45" style="stroke:#181818;stroke-width:1.0;"/><text fill="#000000" font-family="sans-serif" font-size="13" lengthAdjust="spacing" textLength="43" x="911" y="1557.3351">creates</text></g><!--link PlaylistRoutes to Logger--><g id="link_PlaylistRoutes_Logger"><path codeLine="172" d="M411.56,1505.29 C428.09,1510.17 444.73,1514.47 461,1517.84 C477.56,1521.26 482.09,1519.39 499,1519.84 C873.54,1529.69 968.27,1546.24 1342,1519.84 C1475.48,1510.41 1618.5375,1490.2414 1734.4675,1471.4214 " fill="none" id="PlaylistRoutes-to-Logger" style="stroke:#181818;stroke-width:1.0;"/><polygon fill="#181818" points="1740.39,1470.46,1730.8653,1467.9539,1735.4546,1471.2612,1732.1473,1475.8505,1740.39,1470.46" style="stroke:#181818;stroke-width:1.0;"/><text fill="#000000" font-family="sans-serif" font-size="13" lengthAdjust="spacing" textLength="24" x="920.5" y="1516.3351">logs</text></g><!--link PlaylistRoutes to ResponseModels--><g id="link_PlaylistRoutes_ResponseModels"><path codeLine="173" d="M282.76,1512.92 C331.57,1576.26 408.51,1659.09 499,1695.84 C963.16,1884.32 1576.1252,1742.7334 1824.6152,1671.0334 " fill="none" id="PlaylistRoutes-to-ResponseModels" style="stroke:#181818;stroke-width:1.0;"/><polygon fill="#181818" points="1830.38,1669.37,1820.6238,1668.0219,1825.576,1670.7562,1822.8417,1675.7083,1830.38,1669.37" style="stroke:#181818;stroke-width:1.0;"/><text fill="#000000" font-family="sans-serif" font-size="13" lengthAdjust="spacing" textLength="43" x="911" y="1692.3351">creates</text></g><!--link GeminiService to Helpers--><g id="link_GeminiService_Helpers"><path codeLine="176" d="M1250.05,1168.67 C1428.23,1195.04 1636.8947,1225.9115 1779.0447,1246.9515 " fill="none" id="GeminiService-to-Helpers" style="stroke:#181818;stroke-width:1.0;"/><polygon fill="#181818" points="1784.98,1247.83,1776.6627,1242.5554,1780.0339,1247.0979,1775.4913,1250.4691,1784.98,1247.83" style="stroke:#181818;stroke-width:1.0;"/><text fill="#000000" font-family="sans-serif" font-size="13" lengthAdjust="spacing" textLength="28" x="1392.5" y="1184.3351">uses</text></g><!--link YoutubeService to Helpers--><g id="link_YoutubeService_Helpers"><path codeLine="177" d="M1242.13,1304.82 C1421.81,1296.08 1634.6471,1285.7216 1778.9171,1278.7016 " fill="none" id="YoutubeService-to-Helpers" style="stroke:#181818;stroke-width:1.0;"/><polygon fill="#181818" points="1784.91,1278.41,1775.7262,1274.8521,1779.9159,1278.653,1776.115,1282.8427,1784.91,1278.41" style="stroke:#181818;stroke-width:1.0;"/><text fill="#000000" font-family="sans-serif" font-size="13" lengthAdjust="spacing" textLength="28" x="1392.5" y="1292.3351">uses</text></g><!--link DatabaseService to GMN33--><g id="link_DatabaseService_GMN33"><path d="M586.62,398.76 C491.41,329 426.31,240.59 476,140.34 C542.59,6 757.04,38.32 866.66,65.1 " fill="none" id="DatabaseService-GMN33" style="stroke:#181818;stroke-width:1.0;stroke-dasharray:7.0,7.0;"/></g><!--link GeminiService to GMN36--><g id="link_GeminiService_GMN36"><path d="M614.85,1096.56 C555.88,1075.08 504.05,1039.92 476,983.34 C457.13,945.26 457.13,256.42 476,218.34 C509.47,150.81 741.75,152.15 861.47,157.51 " fill="none" id="GeminiService-GMN36" style="stroke:#181818;stroke-width:1.0;stroke-dasharray:7.0,7.0;"/></g><!--link YoutubeService to GMN39--><g id="link_YoutubeService_GMN39"><path d="M622.9,1309.78 C560.47,1290.93 505.09,1257.03 476,1198.34 C454.21,1154.38 454.21,359.29 476,315.34 C544.94,176.25 769.93,204.13 876.09,226.15 " fill="none" id="YoutubeService-GMN39" style="stroke:#181818;stroke-width:1.0;stroke-dasharray:7.0,7.0;"/></g><!--SRC=[lLbjK-Cs4FxkNw7UXvAR0zfffryO9ZCGNfeE1vH0EpTtDunYRuoABFaaEP2xyj-xacN7hq02royGMxlFhbQhPrVo1hbwVq96d6fD3XYD5Kt8J2eo0JLd8P0z5Tum0w7950GRv4XoBk-OY9tQBzk_aOcX8g8gqZXwbXgMiAyGEOWJ7D0XJU6dy_DBSgv0Wp3KC2c2u8S8Pam0ETdxS7PrUNroU7HvVJ4-_lsIS9WPOYHHBBun968ARJkLbcWGw5icKcfTJcbuIsEOc0K7ObMeY3bK1FGDZNB7PvJhwiWKLMCbCn6D94UtZQ92un0wMv4AROJsZ55icXaOXr9CSABavo3mficRaHH6ONn0wJTaTnT35O4Q3ictWEJgv4g3kf2eht5yAUvb2DaY4JLqIZKKuTyX1_KtNexBE0Q5moVkXt-h8SmKCmjyF_4_tSZrjVltZeGAg07hna315nIxW2yPQBE9CTFkKQTIQ7YBl-UIHLuj1fExJgE4fdebtIoDl4cllf9s11pMrqweklLwvqh6AAlNcVTVB0AvbkO4ZC6SMpTYQwc77AZQuzm2sEHvjl93K2Qg3zhZkHf3mWHRPkfnzVaLyhdCsXW4A0p9gYbGcT0vfmlEj7dvZ1Q8a4qh4_fGU_4zvbqulr8QA5XR_I5ugD2QTxZDQKmOK3EAislCpSUpHZSP_X4qiP6O88cAU1CvM-ixgQBobNN12jVtqFvYf212DcP8tElWX3SGtjhdmtkCGWU4bT-N4lUDQ3b-ALCMEfMnDJ36EUCwRMA5mlSjYqwwxhvxfLi8DOsFdrjsYrpF2fcwUPKFsy3ZwpycPwS5e5ViOUu-Dxn0wKW7Q-V_rtEZWyQxuBgywriOJyhP4hEEnM4El98bSolVuQZ3wUJxPqEdTf-qGkfGoe1g8zLtyxjQvoHkov5CKXlmZhpjZ7jgbSPHnIhJ1KQqN0Dhkb5Ebu5hrjbdcUv0B2FMBA5zgLi8z5VFjYkva6w4j89KAHsd8CN1j4vjs6fziOjqb8cyEwrtMSYdHcKXBldWhN-7rd1PXCYxsO4rYJDEc8PToxh3idXB3K_ARP5hHseDmPBzDyW8iusCBguEY4nj4K0HlJuf5nvOfU5hi7CNuBDekb3q6Jby0LzNVN1QmsSJTqlru-SkvVt5AVhVvynftznQ3hsmAbHnFS1mXVBGeRwSxelgHAzZ6yIn6y4394azBpoMoA_1gLLd7DxmjPaxBnIdMJ9r7L-fn_H5sQlLoRRNfrShL2qBowNz7ujAuKMZ50nVeRhqGBSsxADbfXgbGd3uidhJ1rdllG_lZIL1JdgRyBn6rGugbUECs1lROuoKCOVZFCNO7FR6JzUhvfchpfzvgtQkO0OAHDWvC_iyRA2v5BjaXeDk8RfySMChcSabY_N4ofXIfGktYyCD7dto7pN2jL0rhOfxZsiMHkkTGlqaM2w3Fp6YclzrFVzrsyi-lH0QJ_FXZT_fU79JYqfu4dgFZcRSw6OR_VJQBBT0Rk8zmZ3SdHLJp2aNarqL6ACwpHYF9Wx-J-jwOmBBK1OACyPDmMlxYuCiP_o1ezB2dlKaBRrehQXl814iWYXBEGkBnDDDd9fAVUUzbtXcqUH7ScKOPuRrRhqYKRp2xcwki2Yl5TwHIHPYjCgKGgFkljMF7YebrMDZ1s0euxenTB4igJtAZhNxnZmFzWqNroMF3uyD99MXobRu7JYMwwvmVDFs3ZXygB32E1hOzMJtVObHqp6ZJDdBsKkMO4zDatJGBntIb1dAsLVu6rjGv1ouDyymWbAAXiPrM4UOsK_cRcNc-KLEPnxGD3qfxdlEflzWv-u7c9Z90Sv6v_MvtDsuy56zIwbSy83DZGujznwVNUuy1N97bLZ9ScMcnHLpvrpjkfwmX1atszevwPtZ4PkulG8tsFaX4-7AHOu0t5oUk0RT929VtGAhUQEruRvPN03FkyWRbceoA3zIB3zUl0sQzrcx_svlDyw1EuJPLYR1HDGMUdcVQ3zU5587a8B0qr68_15KRl-tjeQjIxCT6nOTrAzUhU1nurQoHwm7ht7psGlO8VUXUTNP9zXZseP5IQstmimrE8-6ezmPNCQjmSdommPk8jwXtg3X7Nyww0fKtL9xl1UgO-Prh0w1NZ2RZlckgOUblZWMek1I7zN6gdH88FIfj0waKZERw_w372zpVSxWBX0eGwRI69aGEUjOn75vmMkrBHzy4jILCaAdsb6atR8Dd6PsOGkg_OE5mHx7uARv93pxTo2qygviW_VEnnRaat25t3SkmNy0]--></g></svg>