<?xml version="1.0" encoding="us-ascii" standalone="no"?><svg xmlns="http://www.w3.org/2000/svg" xmlns:xlink="http://www.w3.org/1999/xlink" contentStyleType="text/css" height="1930px" preserveAspectRatio="none" style="width:1215px;height:1930px;" version="1.1" viewBox="0 0 1215 1930" width="1215px" zoomAndPan="magnify"><defs/><g><rect fill="#FFFFFF" height="1806.1484" style="stroke:#181818;stroke-width:1.0;" width="10" x="246.5" y="69.9609"/><rect fill="#FFFFFF" height="509.3281" style="stroke:#181818;stroke-width:1.0;" width="10" x="411.5" y="149.3672"/><rect fill="#FFFFFF" height="159.1094" style="stroke:#181818;stroke-width:1.0;" width="10" x="644.5" y="366.1797"/><rect fill="#FFFFFF" height="107.4063" style="stroke:#181818;stroke-width:1.0;" width="10" x="828.5" y="205.0703"/><rect fill="#FFFFFF" height="172.8125" style="stroke:#181818;stroke-width:1.0;" width="10" x="828.5" y="840.5078"/><rect fill="#FFFFFF" height="91.0547" style="stroke:#181818;stroke-width:1.0;" width="10" x="828.5" y="1085.375"/><rect fill="#FFFFFF" height="140.1094" style="stroke:#181818;stroke-width:1.0;" width="10" x="828.5" y="1213.7813"/><rect fill="#FFFFFF" height="140.1094" style="stroke:#181818;stroke-width:1.0;" width="10" x="828.5" y="1425.9453"/><rect fill="#FFFFFF" height="140.1094" style="stroke:#181818;stroke-width:1.0;" width="10" x="828.5" y="1628.5938"/><rect fill="#FFFFFF" height="1044.9531" style="stroke:#181818;stroke-width:1.0;" width="10" x="1049.5" y="793.8047"/><rect fill="#FFFFFF" height="46.7031" style="stroke:#181818;stroke-width:1.0;" width="10" x="1145" y="235.4219"/><rect fill="#FFFFFF" height="46.7031" style="stroke:#181818;stroke-width:1.0;" width="10" x="1145" y="919.9141"/><rect fill="#FFFFFF" height="30.3516" style="stroke:#181818;stroke-width:1.0;" width="10" x="1145" y="1115.7266"/><rect fill="#FFFFFF" height="46.7031" style="stroke:#181818;stroke-width:1.0;" width="10" x="1145" y="1260.4844"/><rect fill="#FFFFFF" height="46.7031" style="stroke:#181818;stroke-width:1.0;" width="10" x="1145" y="1472.6484"/><rect fill="#FFFFFF" height="46.7031" style="stroke:#181818;stroke-width:1.0;" width="10" x="1145" y="1675.2969"/><rect fill="none" height="156.1094" style="stroke:#000000;stroke-width:1.5;" width="855" x="344.5" y="164.3672"/><rect fill="none" height="1173.0625" style="stroke:#000000;stroke-width:1.5;" width="1199.5" x="10" y="673.6953"/><rect fill="none" height="156.1094" style="stroke:#000000;stroke-width:1.5;" width="439" x="760.5" y="1028.3203"/><rect fill="none" height="407.8125" style="stroke:#000000;stroke-width:1.5;" width="439" x="760.5" y="1368.8906"/><line style="stroke:#181818;stroke-width:0.5;stroke-dasharray:5.0,5.0;" x1="41" x2="41" y1="37.6094" y2="1894.1094"/><line style="stroke:#181818;stroke-width:0.5;stroke-dasharray:5.0,5.0;" x1="251.5" x2="251.5" y1="37.6094" y2="1894.1094"/><line style="stroke:#181818;stroke-width:0.5;stroke-dasharray:5.0,5.0;" x1="416.5" x2="416.5" y1="37.6094" y2="1894.1094"/><line style="stroke:#181818;stroke-width:0.5;stroke-dasharray:5.0,5.0;" x1="649" x2="649" y1="37.6094" y2="1894.1094"/><line style="stroke:#181818;stroke-width:0.5;stroke-dasharray:5.0,5.0;" x1="833.5" x2="833.5" y1="37.6094" y2="1894.1094"/><line style="stroke:#181818;stroke-width:0.5;stroke-dasharray:5.0,5.0;" x1="1054.5" x2="1054.5" y1="37.6094" y2="1894.1094"/><line style="stroke:#181818;stroke-width:0.5;stroke-dasharray:5.0,5.0;" x1="1149.5" x2="1149.5" y1="37.6094" y2="1894.1094"/><rect fill="#E2E2F0" height="31.6094" rx="2.5" ry="2.5" style="stroke:#181818;stroke-width:0.5;" width="43" x="20" y="5"/><text fill="#000000" font-family="sans-serif" font-size="14" lengthAdjust="spacing" textLength="29" x="27" y="26.5332">User</text><rect fill="#E2E2F0" height="31.6094" rx="2.5" ry="2.5" style="stroke:#181818;stroke-width:0.5;" width="43" x="20" y="1893.1094"/><text fill="#000000" font-family="sans-serif" font-size="14" lengthAdjust="spacing" textLength="29" x="27" y="1914.6426">User</text><rect fill="#E2E2F0" height="31.6094" rx="2.5" ry="2.5" style="stroke:#181818;stroke-width:0.5;" width="76" x="213.5" y="5"/><text fill="#000000" font-family="sans-serif" font-size="14" lengthAdjust="spacing" textLength="62" x="220.5" y="26.5332">:Frontend</text><rect fill="#E2E2F0" height="31.6094" rx="2.5" ry="2.5" style="stroke:#181818;stroke-width:0.5;" width="76" x="213.5" y="1893.1094"/><text fill="#000000" font-family="sans-serif" font-size="14" lengthAdjust="spacing" textLength="62" x="220.5" y="1914.6426">:Frontend</text><rect fill="#E2E2F0" height="31.6094" rx="2.5" ry="2.5" style="stroke:#181818;stroke-width:0.5;" width="124" x="354.5" y="5"/><text fill="#000000" font-family="sans-serif" font-size="14" lengthAdjust="spacing" textLength="110" x="361.5" y="26.5332">:RoadmapRoutes</text><rect fill="#E2E2F0" height="31.6094" rx="2.5" ry="2.5" style="stroke:#181818;stroke-width:0.5;" width="124" x="354.5" y="1893.1094"/><text fill="#000000" font-family="sans-serif" font-size="14" lengthAdjust="spacing" textLength="110" x="361.5" y="1914.6426">:RoadmapRoutes</text><rect fill="#E2E2F0" height="31.6094" rx="2.5" ry="2.5" style="stroke:#181818;stroke-width:0.5;" width="109" x="595" y="5"/><text fill="#000000" font-family="sans-serif" font-size="14" lengthAdjust="spacing" textLength="95" x="602" y="26.5332">:GeminiService</text><rect fill="#E2E2F0" height="31.6094" rx="2.5" ry="2.5" style="stroke:#181818;stroke-width:0.5;" width="109" x="595" y="1893.1094"/><text fill="#000000" font-family="sans-serif" font-size="14" lengthAdjust="spacing" textLength="95" x="602" y="1914.6426">:GeminiService</text><rect fill="#E2E2F0" height="31.6094" rx="2.5" ry="2.5" style="stroke:#181818;stroke-width:0.5;" width="126" x="770.5" y="5"/><text fill="#000000" font-family="sans-serif" font-size="14" lengthAdjust="spacing" textLength="112" x="777.5" y="26.5332">:DatabaseService</text><rect fill="#E2E2F0" height="31.6094" rx="2.5" ry="2.5" style="stroke:#181818;stroke-width:0.5;" width="126" x="770.5" y="1893.1094"/><text fill="#000000" font-family="sans-serif" font-size="14" lengthAdjust="spacing" textLength="112" x="777.5" y="1914.6426">:DatabaseService</text><rect fill="#E2E2F0" height="31.6094" rx="2.5" ry="2.5" style="stroke:#181818;stroke-width:0.5;" width="92" x="1008.5" y="5"/><text fill="#000000" font-family="sans-serif" font-size="14" lengthAdjust="spacing" textLength="78" x="1015.5" y="26.5332">:UserRoutes</text><rect fill="#E2E2F0" height="31.6094" rx="2.5" ry="2.5" style="stroke:#181818;stroke-width:0.5;" width="92" x="1008.5" y="1893.1094"/><text fill="#000000" font-family="sans-serif" font-size="14" lengthAdjust="spacing" textLength="78" x="1015.5" y="1914.6426">:UserRoutes</text><rect fill="#E2E2F0" height="31.6094" rx="2.5" ry="2.5" style="stroke:#181818;stroke-width:0.5;" width="79" x="1110.5" y="5"/><text fill="#000000" font-family="sans-serif" font-size="14" lengthAdjust="spacing" textLength="65" x="1117.5" y="26.5332">:Database</text><rect fill="#E2E2F0" height="31.6094" rx="2.5" ry="2.5" style="stroke:#181818;stroke-width:0.5;" width="79" x="1110.5" y="1893.1094"/><text fill="#000000" font-family="sans-serif" font-size="14" lengthAdjust="spacing" textLength="65" x="1117.5" y="1914.6426">:Database</text><rect fill="#FFFFFF" height="1806.1484" style="stroke:#181818;stroke-width:1.0;" width="10" x="246.5" y="69.9609"/><rect fill="#FFFFFF" height="509.3281" style="stroke:#181818;stroke-width:1.0;" width="10" x="411.5" y="149.3672"/><rect fill="#FFFFFF" height="159.1094" style="stroke:#181818;stroke-width:1.0;" width="10" x="644.5" y="366.1797"/><rect fill="#FFFFFF" height="107.4063" style="stroke:#181818;stroke-width:1.0;" width="10" x="828.5" y="205.0703"/><rect fill="#FFFFFF" height="172.8125" style="stroke:#181818;stroke-width:1.0;" width="10" x="828.5" y="840.5078"/><rect fill="#FFFFFF" height="91.0547" style="stroke:#181818;stroke-width:1.0;" width="10" x="828.5" y="1085.375"/><rect fill="#FFFFFF" height="140.1094" style="stroke:#181818;stroke-width:1.0;" width="10" x="828.5" y="1213.7813"/><rect fill="#FFFFFF" height="140.1094" style="stroke:#181818;stroke-width:1.0;" width="10" x="828.5" y="1425.9453"/><rect fill="#FFFFFF" height="140.1094" style="stroke:#181818;stroke-width:1.0;" width="10" x="828.5" y="1628.5938"/><rect fill="#FFFFFF" height="1044.9531" style="stroke:#181818;stroke-width:1.0;" width="10" x="1049.5" y="793.8047"/><rect fill="#FFFFFF" height="46.7031" style="stroke:#181818;stroke-width:1.0;" width="10" x="1145" y="235.4219"/><rect fill="#FFFFFF" height="46.7031" style="stroke:#181818;stroke-width:1.0;" width="10" x="1145" y="919.9141"/><rect fill="#FFFFFF" height="30.3516" style="stroke:#181818;stroke-width:1.0;" width="10" x="1145" y="1115.7266"/><rect fill="#FFFFFF" height="46.7031" style="stroke:#181818;stroke-width:1.0;" width="10" x="1145" y="1260.4844"/><rect fill="#FFFFFF" height="46.7031" style="stroke:#181818;stroke-width:1.0;" width="10" x="1145" y="1472.6484"/><rect fill="#FFFFFF" height="46.7031" style="stroke:#181818;stroke-width:1.0;" width="10" x="1145" y="1675.2969"/><polygon fill="#181818" points="234.5,65.9609,244.5,69.9609,234.5,73.9609,238.5,69.9609" style="stroke:#181818;stroke-width:1.0;"/><line style="stroke:#181818;stroke-width:1.0;" x1="41.5" x2="240.5" y1="69.9609" y2="69.9609"/><text fill="#000000" font-family="sans-serif" font-size="13" lengthAdjust="spacing" textLength="150" x="69" y="65.1045">requestRoadmap("React")</text><polygon fill="#181818" points="399.5,145.3672,409.5,149.3672,399.5,153.3672,403.5,149.3672" style="stroke:#181818;stroke-width:1.0;"/><line style="stroke:#181818;stroke-width:1.0;" x1="256.5" x2="405.5" y1="149.3672" y2="149.3672"/><text fill="#000000" font-family="sans-serif" font-size="13" lengthAdjust="spacing" textLength="35" x="316.5" y="95.4561">POST</text><text fill="#000000" font-family="sans-serif" font-size="13" lengthAdjust="spacing" textLength="136" x="266" y="111.8076">/api/roadmaps/generate</text><text fill="#000000" font-family="sans-serif" font-size="13" lengthAdjust="spacing" textLength="36" x="268.5" y="128.1592">{topic:</text><text fill="#000000" font-family="sans-serif" font-size="13" lengthAdjust="spacing" textLength="4" x="304.5" y="128.1592">&#160;</text><text fill="#000000" font-family="sans-serif" font-size="13" lengthAdjust="spacing" textLength="48" x="308.5" y="128.1592">"React",</text><text fill="#000000" font-family="sans-serif" font-size="13" lengthAdjust="spacing" textLength="4" x="356.5" y="128.1592">&#160;</text><text fill="#000000" font-family="sans-serif" font-size="13" lengthAdjust="spacing" textLength="39" x="360.5" y="128.1592">userId:</text><text fill="#000000" font-family="sans-serif" font-size="13" lengthAdjust="spacing" textLength="25" x="321.5" y="144.5107">123}</text><path d="M344.5,164.3672 L409.5,164.3672 L409.5,172.7188 L399.5,182.7188 L344.5,182.7188 L344.5,164.3672 " fill="#EEEEEE" style="stroke:#000000;stroke-width:1.5;"/><rect fill="none" height="156.1094" style="stroke:#000000;stroke-width:1.5;" width="855" x="344.5" y="164.3672"/><text fill="#000000" font-family="sans-serif" font-size="13" font-weight="bold" lengthAdjust="spacing" textLength="20" x="359.5" y="178.8623">opt</text><text fill="#000000" font-family="sans-serif" font-size="11" font-weight="bold" lengthAdjust="spacing" textLength="158" x="424.5" y="177.7861">[User preferences provided]</text><polygon fill="#181818" points="816.5,201.0703,826.5,205.0703,816.5,209.0703,820.5,205.0703" style="stroke:#181818;stroke-width:1.0;"/><line style="stroke:#181818;stroke-width:1.0;" x1="421.5" x2="822.5" y1="205.0703" y2="205.0703"/><text fill="#000000" font-family="sans-serif" font-size="13" lengthAdjust="spacing" textLength="136" x="557" y="200.2139">getUserSettings(userId)</text><polygon fill="#181818" points="1133,231.4219,1143,235.4219,1133,239.4219,1137,235.4219" style="stroke:#181818;stroke-width:1.0;"/><line style="stroke:#181818;stroke-width:1.0;" x1="838.5" x2="1139" y1="235.4219" y2="235.4219"/><text fill="#000000" font-family="sans-serif" font-size="13" lengthAdjust="spacing" textLength="50" x="925.75" y="230.5654">SELECT</text><text fill="#000000" font-family="sans-serif" font-size="13" lengthAdjust="spacing" textLength="4" x="975.75" y="230.5654">&#160;</text><text fill="#000000" font-family="sans-serif" font-size="13" lengthAdjust="spacing" textLength="78" x="979.75" y="230.5654">user_settings</text><polygon fill="#181818" points="849.5,278.125,839.5,282.125,849.5,286.125,845.5,282.125" style="stroke:#181818;stroke-width:1.0;"/><line style="stroke:#181818;stroke-width:1.0;stroke-dasharray:2.0,2.0;" x1="843.5" x2="1149" y1="282.125" y2="282.125"/><text fill="#000000" font-family="sans-serif" font-size="13" lengthAdjust="spacing" textLength="73" x="953.75" y="260.917">userSettings</text><text fill="#000000" font-family="sans-serif" font-size="13" lengthAdjust="spacing" textLength="4" x="1026.75" y="260.917">&#160;</text><text fill="#000000" font-family="sans-serif" font-size="13" lengthAdjust="spacing" textLength="4" x="1030.75" y="260.917">:</text><text fill="#000000" font-family="sans-serif" font-size="13" lengthAdjust="spacing" textLength="75" x="956.75" y="277.2686">UserSettings</text><polygon fill="#181818" points="432.5,308.4766,422.5,312.4766,432.5,316.4766,428.5,312.4766" style="stroke:#181818;stroke-width:1.0;"/><line style="stroke:#181818;stroke-width:1.0;stroke-dasharray:2.0,2.0;" x1="426.5" x2="832.5" y1="312.4766" y2="312.4766"/><text fill="#000000" font-family="sans-serif" font-size="13" lengthAdjust="spacing" textLength="94" x="557.5" y="307.6201">userPreferences</text><text fill="#000000" font-family="sans-serif" font-size="13" lengthAdjust="spacing" textLength="4" x="651.5" y="307.6201">&#160;</text><text fill="#000000" font-family="sans-serif" font-size="13" lengthAdjust="spacing" textLength="4" x="655.5" y="307.6201">:</text><text fill="#000000" font-family="sans-serif" font-size="13" lengthAdjust="spacing" textLength="4" x="659.5" y="307.6201">&#160;</text><text fill="#000000" font-family="sans-serif" font-size="13" lengthAdjust="spacing" textLength="34" x="663.5" y="307.6201">JSON</text><polygon fill="#181818" points="632.5,362.1797,642.5,366.1797,632.5,370.1797,636.5,366.1797" style="stroke:#181818;stroke-width:1.0;"/><line style="stroke:#181818;stroke-width:1.0;" x1="421.5" x2="638.5" y1="366.1797" y2="366.1797"/><text fill="#000000" font-family="sans-serif" font-size="13" lengthAdjust="spacing" textLength="141" x="462.5" y="344.9717">generateRoadmap(topic,</text><text fill="#000000" font-family="sans-serif" font-size="13" lengthAdjust="spacing" textLength="71" x="497.5" y="361.3232">preferences)</text><path d="M571,379.1797 L571,421.1797 L727,421.1797 L727,389.1797 L717,379.1797 L571,379.1797 " fill="#FEFFDD" style="stroke:#181818;stroke-width:0.5;"/><path d="M717,379.1797 L717,389.1797 L727,389.1797 L717,379.1797 " fill="#FEFFDD" style="stroke:#181818;stroke-width:0.5;"/><text fill="#000000" font-family="sans-serif" font-size="13" lengthAdjust="spacing" textLength="135" x="577" y="397.6748">AI generates structured</text><text fill="#000000" font-family="sans-serif" font-size="13" lengthAdjust="spacing" textLength="99" x="577" y="414.0264">learning roadmap</text><line style="stroke:#181818;stroke-width:1.0;" x1="654.5" x2="696.5" y1="449.2344" y2="449.2344"/><line style="stroke:#181818;stroke-width:1.0;" x1="696.5" x2="696.5" y1="449.2344" y2="462.2344"/><line style="stroke:#181818;stroke-width:1.0;" x1="655.5" x2="696.5" y1="462.2344" y2="462.2344"/><polygon fill="#181818" points="665.5,458.2344,655.5,462.2344,665.5,466.2344,661.5,462.2344" style="stroke:#181818;stroke-width:1.0;"/><text fill="#000000" font-family="sans-serif" font-size="13" lengthAdjust="spacing" textLength="160" x="661.5" y="444.3779">_parseRoadmapResponse()</text><polygon fill="#181818" points="432.5,521.2891,422.5,525.2891,432.5,529.2891,428.5,525.2891" style="stroke:#181818;stroke-width:1.0;"/><line style="stroke:#181818;stroke-width:1.0;stroke-dasharray:2.0,2.0;" x1="426.5" x2="648.5" y1="525.2891" y2="525.2891"/><text fill="#000000" font-family="sans-serif" font-size="13" lengthAdjust="spacing" textLength="77" x="474" y="487.7295">roadmapData</text><text fill="#000000" font-family="sans-serif" font-size="13" lengthAdjust="spacing" textLength="4" x="551" y="487.7295">&#160;</text><text fill="#000000" font-family="sans-serif" font-size="13" lengthAdjust="spacing" textLength="4" x="555" y="487.7295">:</text><text fill="#000000" font-family="sans-serif" font-size="13" lengthAdjust="spacing" textLength="4" x="559" y="487.7295">&#160;</text><text fill="#000000" font-family="sans-serif" font-size="13" lengthAdjust="spacing" textLength="34" x="563" y="487.7295">JSON</text><text fill="#000000" font-family="sans-serif" font-size="13" lengthAdjust="spacing" textLength="93" x="489" y="504.0811">{extractedTopic,</text><text fill="#000000" font-family="sans-serif" font-size="13" lengthAdjust="spacing" textLength="54" x="508.5" y="520.4326">roadmap}</text><line style="stroke:#181818;stroke-width:1.0;" x1="421.5" x2="463.5" y1="555.6406" y2="555.6406"/><line style="stroke:#181818;stroke-width:1.0;" x1="463.5" x2="463.5" y1="555.6406" y2="568.6406"/><line style="stroke:#181818;stroke-width:1.0;" x1="422.5" x2="463.5" y1="568.6406" y2="568.6406"/><polygon fill="#181818" points="432.5,564.6406,422.5,568.6406,432.5,572.6406,428.5,568.6406" style="stroke:#181818;stroke-width:1.0;"/><text fill="#000000" font-family="sans-serif" font-size="13" lengthAdjust="spacing" textLength="209" x="428.5" y="550.7842">transformToPointResponseObjects()</text><line style="stroke:#181818;stroke-width:1.0;" x1="421.5" x2="463.5" y1="598.9922" y2="598.9922"/><line style="stroke:#181818;stroke-width:1.0;" x1="463.5" x2="463.5" y1="598.9922" y2="611.9922"/><line style="stroke:#181818;stroke-width:1.0;" x1="422.5" x2="463.5" y1="611.9922" y2="611.9922"/><polygon fill="#181818" points="432.5,607.9922,422.5,611.9922,432.5,615.9922,428.5,611.9922" style="stroke:#181818;stroke-width:1.0;"/><text fill="#000000" font-family="sans-serif" font-size="13" lengthAdjust="spacing" textLength="184" x="428.5" y="594.1357">createRoadmapDataResponse()</text><polygon fill="#181818" points="267.5,654.6953,257.5,658.6953,267.5,662.6953,263.5,658.6953" style="stroke:#181818;stroke-width:1.0;"/><line style="stroke:#181818;stroke-width:1.0;stroke-dasharray:2.0,2.0;" x1="261.5" x2="415.5" y1="658.6953" y2="658.6953"/><text fill="#000000" font-family="sans-serif" font-size="13" lengthAdjust="spacing" textLength="108" x="278.5" y="637.4873">roadmapResponse</text><text fill="#000000" font-family="sans-serif" font-size="13" lengthAdjust="spacing" textLength="4" x="386.5" y="637.4873">&#160;</text><text fill="#000000" font-family="sans-serif" font-size="13" lengthAdjust="spacing" textLength="4" x="390.5" y="637.4873">:</text><text fill="#000000" font-family="sans-serif" font-size="13" lengthAdjust="spacing" textLength="34" x="319.5" y="653.8389">JSON</text><path d="M10,673.6953 L75,673.6953 L75,682.0469 L65,692.0469 L10,692.0469 L10,673.6953 " fill="#EEEEEE" style="stroke:#000000;stroke-width:1.5;"/><rect fill="none" height="1173.0625" style="stroke:#000000;stroke-width:1.5;" width="1199.5" x="10" y="673.6953"/><text fill="#000000" font-family="sans-serif" font-size="13" font-weight="bold" lengthAdjust="spacing" textLength="20" x="25" y="688.1904">opt</text><text fill="#000000" font-family="sans-serif" font-size="11" font-weight="bold" lengthAdjust="spacing" textLength="122" x="90" y="687.1143">[User saves roadmap]</text><polygon fill="#181818" points="234.5,710.3984,244.5,714.3984,234.5,718.3984,238.5,714.3984" style="stroke:#181818;stroke-width:1.0;"/><line style="stroke:#181818;stroke-width:1.0;" x1="41.5" x2="240.5" y1="714.3984" y2="714.3984"/><text fill="#000000" font-family="sans-serif" font-size="13" lengthAdjust="spacing" textLength="89" x="99.5" y="709.542">saveRoadmap()</text><polygon fill="#181818" points="1037.5,789.8047,1047.5,793.8047,1037.5,797.8047,1041.5,793.8047" style="stroke:#181818;stroke-width:1.0;"/><line style="stroke:#181818;stroke-width:1.0;" x1="256.5" x2="1043.5" y1="793.8047" y2="793.8047"/><text fill="#000000" font-family="sans-serif" font-size="13" lengthAdjust="spacing" textLength="35" x="635.5" y="739.8936">POST</text><text fill="#000000" font-family="sans-serif" font-size="13" lengthAdjust="spacing" textLength="118" x="594" y="756.2451">/api/users/roadmaps</text><text fill="#000000" font-family="sans-serif" font-size="13" lengthAdjust="spacing" textLength="43" x="613.5" y="772.5967">{userId,</text><text fill="#000000" font-family="sans-serif" font-size="13" lengthAdjust="spacing" textLength="4" x="656.5" y="772.5967">&#160;</text><text fill="#000000" font-family="sans-serif" font-size="13" lengthAdjust="spacing" textLength="32" x="660.5" y="772.5967">topic,</text><text fill="#000000" font-family="sans-serif" font-size="13" lengthAdjust="spacing" textLength="81" x="612.5" y="788.9482">roadmapData}</text><polygon fill="#181818" points="849.5,836.5078,839.5,840.5078,849.5,844.5078,845.5,840.5078" style="stroke:#181818;stroke-width:1.0;"/><line style="stroke:#181818;stroke-width:1.0;" x1="843.5" x2="1048.5" y1="840.5078" y2="840.5078"/><text fill="#000000" font-family="sans-serif" font-size="13" lengthAdjust="spacing" textLength="169" x="859.5" y="819.2998">getUserTopicByName(userId,</text><text fill="#000000" font-family="sans-serif" font-size="13" lengthAdjust="spacing" textLength="32" x="928" y="835.6514">topic)</text><polygon fill="#181818" points="1133,915.9141,1143,919.9141,1133,923.9141,1137,919.9141" style="stroke:#181818;stroke-width:1.0;"/><line style="stroke:#181818;stroke-width:1.0;" x1="838.5" x2="1139" y1="919.9141" y2="919.9141"/><text fill="#000000" font-family="sans-serif" font-size="13" lengthAdjust="spacing" textLength="50" x="931.25" y="866.0029">SELECT</text><text fill="#000000" font-family="sans-serif" font-size="13" lengthAdjust="spacing" textLength="4" x="981.25" y="866.0029">&#160;</text><text fill="#000000" font-family="sans-serif" font-size="13" lengthAdjust="spacing" textLength="67" x="985.25" y="866.0029">user_topics</text><text fill="#000000" font-family="sans-serif" font-size="13" lengthAdjust="spacing" textLength="49" x="967.25" y="882.3545">WHERE</text><text fill="#000000" font-family="sans-serif" font-size="13" lengthAdjust="spacing" textLength="42" x="918.25" y="898.7061">user_id</text><text fill="#000000" font-family="sans-serif" font-size="13" lengthAdjust="spacing" textLength="4" x="960.25" y="898.7061">&#160;</text><text fill="#000000" font-family="sans-serif" font-size="13" lengthAdjust="spacing" textLength="8" x="964.25" y="898.7061">=</text><text fill="#000000" font-family="sans-serif" font-size="13" lengthAdjust="spacing" textLength="4" x="972.25" y="898.7061">&#160;</text><text fill="#000000" font-family="sans-serif" font-size="13" lengthAdjust="spacing" textLength="14" x="976.25" y="898.7061">$1</text><text fill="#000000" font-family="sans-serif" font-size="13" lengthAdjust="spacing" textLength="4" x="990.25" y="898.7061">&#160;</text><text fill="#000000" font-family="sans-serif" font-size="13" lengthAdjust="spacing" textLength="27" x="994.25" y="898.7061">AND</text><text fill="#000000" font-family="sans-serif" font-size="13" lengthAdjust="spacing" textLength="4" x="1021.25" y="898.7061">&#160;</text><text fill="#000000" font-family="sans-serif" font-size="13" lengthAdjust="spacing" textLength="28" x="1025.25" y="898.7061">topic</text><text fill="#000000" font-family="sans-serif" font-size="13" lengthAdjust="spacing" textLength="4" x="1053.25" y="898.7061">&#160;</text><text fill="#000000" font-family="sans-serif" font-size="13" lengthAdjust="spacing" textLength="8" x="1057.25" y="898.7061">=</text><text fill="#000000" font-family="sans-serif" font-size="13" lengthAdjust="spacing" textLength="14" x="984.75" y="915.0576">$2</text><polygon fill="#181818" points="849.5,962.6172,839.5,966.6172,849.5,970.6172,845.5,966.6172" style="stroke:#181818;stroke-width:1.0;"/><line style="stroke:#181818;stroke-width:1.0;stroke-dasharray:2.0,2.0;" x1="843.5" x2="1149" y1="966.6172" y2="966.6172"/><text fill="#000000" font-family="sans-serif" font-size="13" lengthAdjust="spacing" textLength="76" x="921.25" y="945.4092">existingTopic</text><text fill="#000000" font-family="sans-serif" font-size="13" lengthAdjust="spacing" textLength="4" x="997.25" y="945.4092">&#160;</text><text fill="#000000" font-family="sans-serif" font-size="13" lengthAdjust="spacing" textLength="4" x="1001.25" y="945.4092">:</text><text fill="#000000" font-family="sans-serif" font-size="13" lengthAdjust="spacing" textLength="4" x="1005.25" y="945.4092">&#160;</text><text fill="#000000" font-family="sans-serif" font-size="13" lengthAdjust="spacing" textLength="58" x="1009.25" y="945.4092">UserTopic</text><text fill="#000000" font-family="sans-serif" font-size="13" lengthAdjust="spacing" textLength="3" x="980.75" y="961.7607">|</text><text fill="#000000" font-family="sans-serif" font-size="13" lengthAdjust="spacing" textLength="4" x="983.75" y="961.7607">&#160;</text><text fill="#000000" font-family="sans-serif" font-size="13" lengthAdjust="spacing" textLength="20" x="987.75" y="961.7607">null</text><polygon fill="#181818" points="1037.5,1009.3203,1047.5,1013.3203,1037.5,1017.3203,1041.5,1013.3203" style="stroke:#181818;stroke-width:1.0;"/><line style="stroke:#181818;stroke-width:1.0;stroke-dasharray:2.0,2.0;" x1="833.5" x2="1043.5" y1="1013.3203" y2="1013.3203"/><text fill="#000000" font-family="sans-serif" font-size="13" lengthAdjust="spacing" textLength="76" x="868.5" y="992.1123">existingTopic</text><text fill="#000000" font-family="sans-serif" font-size="13" lengthAdjust="spacing" textLength="4" x="944.5" y="992.1123">&#160;</text><text fill="#000000" font-family="sans-serif" font-size="13" lengthAdjust="spacing" textLength="4" x="948.5" y="992.1123">:</text><text fill="#000000" font-family="sans-serif" font-size="13" lengthAdjust="spacing" textLength="4" x="952.5" y="992.1123">&#160;</text><text fill="#000000" font-family="sans-serif" font-size="13" lengthAdjust="spacing" textLength="58" x="956.5" y="992.1123">UserTopic</text><text fill="#000000" font-family="sans-serif" font-size="13" lengthAdjust="spacing" textLength="3" x="928" y="1008.4639">|</text><text fill="#000000" font-family="sans-serif" font-size="13" lengthAdjust="spacing" textLength="4" x="931" y="1008.4639">&#160;</text><text fill="#000000" font-family="sans-serif" font-size="13" lengthAdjust="spacing" textLength="20" x="935" y="1008.4639">null</text><path d="M760.5,1028.3203 L825.5,1028.3203 L825.5,1036.6719 L815.5,1046.6719 L760.5,1046.6719 L760.5,1028.3203 " fill="#EEEEEE" style="stroke:#000000;stroke-width:1.5;"/><rect fill="none" height="156.1094" style="stroke:#000000;stroke-width:1.5;" width="439" x="760.5" y="1028.3203"/><text fill="#000000" font-family="sans-serif" font-size="13" font-weight="bold" lengthAdjust="spacing" textLength="20" x="775.5" y="1042.8154">opt</text><text fill="#000000" font-family="sans-serif" font-size="11" font-weight="bold" lengthAdjust="spacing" textLength="113" x="840.5" y="1041.7393">[Topic doesn't exist]</text><polygon fill="#181818" points="849.5,1081.375,839.5,1085.375,849.5,1089.375,845.5,1085.375" style="stroke:#181818;stroke-width:1.0;"/><line style="stroke:#181818;stroke-width:1.0;" x1="843.5" x2="1048.5" y1="1085.375" y2="1085.375"/><text fill="#000000" font-family="sans-serif" font-size="13" lengthAdjust="spacing" textLength="137" x="875.5" y="1064.167">createUserTopic(userId,</text><text fill="#000000" font-family="sans-serif" font-size="13" lengthAdjust="spacing" textLength="32" x="928" y="1080.5186">topic)</text><polygon fill="#181818" points="1133,1111.7266,1143,1115.7266,1133,1119.7266,1137,1115.7266" style="stroke:#181818;stroke-width:1.0;"/><line style="stroke:#181818;stroke-width:1.0;" x1="838.5" x2="1139" y1="1115.7266" y2="1115.7266"/><text fill="#000000" font-family="sans-serif" font-size="13" lengthAdjust="spacing" textLength="46" x="916.75" y="1110.8701">INSERT</text><text fill="#000000" font-family="sans-serif" font-size="13" lengthAdjust="spacing" textLength="4" x="962.75" y="1110.8701">&#160;</text><text fill="#000000" font-family="sans-serif" font-size="13" lengthAdjust="spacing" textLength="29" x="966.75" y="1110.8701">INTO</text><text fill="#000000" font-family="sans-serif" font-size="13" lengthAdjust="spacing" textLength="4" x="995.75" y="1110.8701">&#160;</text><text fill="#000000" font-family="sans-serif" font-size="13" lengthAdjust="spacing" textLength="67" x="999.75" y="1110.8701">user_topics</text><polygon fill="#181818" points="849.5,1142.0781,839.5,1146.0781,849.5,1150.0781,845.5,1146.0781" style="stroke:#181818;stroke-width:1.0;"/><line style="stroke:#181818;stroke-width:1.0;stroke-dasharray:2.0,2.0;" x1="843.5" x2="1149" y1="1146.0781" y2="1146.0781"/><text fill="#000000" font-family="sans-serif" font-size="13" lengthAdjust="spacing" textLength="54" x="932.25" y="1141.2217">newTopic</text><text fill="#000000" font-family="sans-serif" font-size="13" lengthAdjust="spacing" textLength="4" x="986.25" y="1141.2217">&#160;</text><text fill="#000000" font-family="sans-serif" font-size="13" lengthAdjust="spacing" textLength="4" x="990.25" y="1141.2217">:</text><text fill="#000000" font-family="sans-serif" font-size="13" lengthAdjust="spacing" textLength="4" x="994.25" y="1141.2217">&#160;</text><text fill="#000000" font-family="sans-serif" font-size="13" lengthAdjust="spacing" textLength="58" x="998.25" y="1141.2217">UserTopic</text><polygon fill="#181818" points="1037.5,1172.4297,1047.5,1176.4297,1037.5,1180.4297,1041.5,1176.4297" style="stroke:#181818;stroke-width:1.0;"/><line style="stroke:#181818;stroke-width:1.0;stroke-dasharray:2.0,2.0;" x1="833.5" x2="1043.5" y1="1176.4297" y2="1176.4297"/><text fill="#000000" font-family="sans-serif" font-size="13" lengthAdjust="spacing" textLength="74" x="869.5" y="1171.5732">createdTopic</text><text fill="#000000" font-family="sans-serif" font-size="13" lengthAdjust="spacing" textLength="4" x="943.5" y="1171.5732">&#160;</text><text fill="#000000" font-family="sans-serif" font-size="13" lengthAdjust="spacing" textLength="4" x="947.5" y="1171.5732">:</text><text fill="#000000" font-family="sans-serif" font-size="13" lengthAdjust="spacing" textLength="4" x="951.5" y="1171.5732">&#160;</text><text fill="#000000" font-family="sans-serif" font-size="13" lengthAdjust="spacing" textLength="58" x="955.5" y="1171.5732">UserTopic</text><polygon fill="#181818" points="849.5,1209.7813,839.5,1213.7813,849.5,1217.7813,845.5,1213.7813" style="stroke:#181818;stroke-width:1.0;"/><line style="stroke:#181818;stroke-width:1.0;" x1="843.5" x2="1048.5" y1="1213.7813" y2="1213.7813"/><text fill="#000000" font-family="sans-serif" font-size="13" lengthAdjust="spacing" textLength="150" x="869" y="1208.9248">getUserRoadmaps(userId)</text><polygon fill="#181818" points="1133,1256.4844,1143,1260.4844,1133,1264.4844,1137,1260.4844" style="stroke:#181818;stroke-width:1.0;"/><line style="stroke:#181818;stroke-width:1.0;" x1="838.5" x2="1139" y1="1260.4844" y2="1260.4844"/><text fill="#000000" font-family="sans-serif" font-size="13" lengthAdjust="spacing" textLength="50" x="922.75" y="1239.2764">SELECT</text><text fill="#000000" font-family="sans-serif" font-size="13" lengthAdjust="spacing" textLength="4" x="972.75" y="1239.2764">&#160;</text><text fill="#000000" font-family="sans-serif" font-size="13" lengthAdjust="spacing" textLength="57" x="976.75" y="1239.2764">roadmaps</text><text fill="#000000" font-family="sans-serif" font-size="13" lengthAdjust="spacing" textLength="4" x="1033.75" y="1239.2764">&#160;</text><text fill="#000000" font-family="sans-serif" font-size="13" lengthAdjust="spacing" textLength="23" x="1037.75" y="1239.2764">with</text><text fill="#000000" font-family="sans-serif" font-size="13" lengthAdjust="spacing" textLength="35" x="974.25" y="1255.6279">JOINs</text><polygon fill="#181818" points="849.5,1303.1875,839.5,1307.1875,849.5,1311.1875,845.5,1307.1875" style="stroke:#181818;stroke-width:1.0;"/><line style="stroke:#181818;stroke-width:1.0;stroke-dasharray:2.0,2.0;" x1="843.5" x2="1149" y1="1307.1875" y2="1307.1875"/><text fill="#000000" font-family="sans-serif" font-size="13" lengthAdjust="spacing" textLength="107" x="936.75" y="1285.9795">existingRoadmaps</text><text fill="#000000" font-family="sans-serif" font-size="13" lengthAdjust="spacing" textLength="4" x="1043.75" y="1285.9795">&#160;</text><text fill="#000000" font-family="sans-serif" font-size="13" lengthAdjust="spacing" textLength="4" x="1047.75" y="1285.9795">:</text><text fill="#000000" font-family="sans-serif" font-size="13" lengthAdjust="spacing" textLength="90" x="949.25" y="1302.3311">UserRoadmap[]</text><polygon fill="#181818" points="1037.5,1349.8906,1047.5,1353.8906,1037.5,1357.8906,1041.5,1353.8906" style="stroke:#181818;stroke-width:1.0;"/><line style="stroke:#181818;stroke-width:1.0;stroke-dasharray:2.0,2.0;" x1="833.5" x2="1043.5" y1="1353.8906" y2="1353.8906"/><text fill="#000000" font-family="sans-serif" font-size="13" lengthAdjust="spacing" textLength="71" x="902" y="1332.6826">roadmapList</text><text fill="#000000" font-family="sans-serif" font-size="13" lengthAdjust="spacing" textLength="4" x="973" y="1332.6826">&#160;</text><text fill="#000000" font-family="sans-serif" font-size="13" lengthAdjust="spacing" textLength="4" x="977" y="1332.6826">:</text><text fill="#000000" font-family="sans-serif" font-size="13" lengthAdjust="spacing" textLength="90" x="896.5" y="1349.0342">UserRoadmap[]</text><path d="M760.5,1368.8906 L821.5,1368.8906 L821.5,1377.2422 L811.5,1387.2422 L760.5,1387.2422 L760.5,1368.8906 " fill="#EEEEEE" style="stroke:#000000;stroke-width:1.5;"/><rect fill="none" height="407.8125" style="stroke:#000000;stroke-width:1.5;" width="439" x="760.5" y="1368.8906"/><text fill="#000000" font-family="sans-serif" font-size="13" font-weight="bold" lengthAdjust="spacing" textLength="16" x="775.5" y="1383.3857">alt</text><text fill="#000000" font-family="sans-serif" font-size="11" font-weight="bold" lengthAdjust="spacing" textLength="145" x="836.5" y="1382.3096">[Roadmap exists for topic]</text><polygon fill="#181818" points="849.5,1421.9453,839.5,1425.9453,849.5,1429.9453,845.5,1425.9453" style="stroke:#181818;stroke-width:1.0;"/><line style="stroke:#181818;stroke-width:1.0;" x1="843.5" x2="1048.5" y1="1425.9453" y2="1425.9453"/><text fill="#000000" font-family="sans-serif" font-size="13" lengthAdjust="spacing" textLength="189" x="849.5" y="1404.7373">updateUserRoadmap(roadmapId,</text><text fill="#000000" font-family="sans-serif" font-size="13" lengthAdjust="spacing" textLength="81" x="903.5" y="1421.0889">roadmapData)</text><polygon fill="#181818" points="1133,1468.6484,1143,1472.6484,1133,1476.6484,1137,1472.6484" style="stroke:#181818;stroke-width:1.0;"/><line style="stroke:#181818;stroke-width:1.0;" x1="838.5" x2="1139" y1="1472.6484" y2="1472.6484"/><text fill="#000000" font-family="sans-serif" font-size="13" lengthAdjust="spacing" textLength="52" x="919.25" y="1451.4404">UPDATE</text><text fill="#000000" font-family="sans-serif" font-size="13" lengthAdjust="spacing" textLength="4" x="971.25" y="1451.4404">&#160;</text><text fill="#000000" font-family="sans-serif" font-size="13" lengthAdjust="spacing" textLength="89" x="975.25" y="1451.4404">user_roadmaps</text><text fill="#000000" font-family="sans-serif" font-size="13" lengthAdjust="spacing" textLength="25" x="921.25" y="1467.792">SET</text><text fill="#000000" font-family="sans-serif" font-size="13" lengthAdjust="spacing" textLength="4" x="946.25" y="1467.792">&#160;</text><text fill="#000000" font-family="sans-serif" font-size="13" lengthAdjust="spacing" textLength="82" x="950.25" y="1467.792">roadmap_data</text><text fill="#000000" font-family="sans-serif" font-size="13" lengthAdjust="spacing" textLength="4" x="1032.25" y="1467.792">&#160;</text><text fill="#000000" font-family="sans-serif" font-size="13" lengthAdjust="spacing" textLength="8" x="1036.25" y="1467.792">=</text><text fill="#000000" font-family="sans-serif" font-size="13" lengthAdjust="spacing" textLength="4" x="1044.25" y="1467.792">&#160;</text><text fill="#000000" font-family="sans-serif" font-size="13" lengthAdjust="spacing" textLength="14" x="1048.25" y="1467.792">$2</text><polygon fill="#181818" points="849.5,1515.3516,839.5,1519.3516,849.5,1523.3516,845.5,1519.3516" style="stroke:#181818;stroke-width:1.0;"/><line style="stroke:#181818;stroke-width:1.0;stroke-dasharray:2.0,2.0;" x1="843.5" x2="1149" y1="1519.3516" y2="1519.3516"/><text fill="#000000" font-family="sans-serif" font-size="13" lengthAdjust="spacing" textLength="101" x="939.75" y="1498.1436">updatedRoadmap</text><text fill="#000000" font-family="sans-serif" font-size="13" lengthAdjust="spacing" textLength="4" x="1040.75" y="1498.1436">&#160;</text><text fill="#000000" font-family="sans-serif" font-size="13" lengthAdjust="spacing" textLength="4" x="1044.75" y="1498.1436">:</text><text fill="#000000" font-family="sans-serif" font-size="13" lengthAdjust="spacing" textLength="82" x="953.25" y="1514.4951">UserRoadmap</text><polygon fill="#181818" points="1037.5,1562.0547,1047.5,1566.0547,1037.5,1570.0547,1041.5,1566.0547" style="stroke:#181818;stroke-width:1.0;"/><line style="stroke:#181818;stroke-width:1.0;stroke-dasharray:2.0,2.0;" x1="833.5" x2="1043.5" y1="1566.0547" y2="1566.0547"/><text fill="#000000" font-family="sans-serif" font-size="13" lengthAdjust="spacing" textLength="101" x="887" y="1544.8467">updatedRoadmap</text><text fill="#000000" font-family="sans-serif" font-size="13" lengthAdjust="spacing" textLength="4" x="988" y="1544.8467">&#160;</text><text fill="#000000" font-family="sans-serif" font-size="13" lengthAdjust="spacing" textLength="4" x="992" y="1544.8467">:</text><text fill="#000000" font-family="sans-serif" font-size="13" lengthAdjust="spacing" textLength="82" x="900.5" y="1561.1982">UserRoadmap</text><line style="stroke:#000000;stroke-width:1.0;stroke-dasharray:2.0,2.0;" x1="760.5" x2="1199.5" y1="1575.0547" y2="1575.0547"/><text fill="#000000" font-family="sans-serif" font-size="11" font-weight="bold" lengthAdjust="spacing" textLength="84" x="765.5" y="1586.4736">[New roadmap]</text><polygon fill="#181818" points="849.5,1624.5938,839.5,1628.5938,849.5,1632.5938,845.5,1628.5938" style="stroke:#181818;stroke-width:1.0;"/><line style="stroke:#181818;stroke-width:1.0;" x1="843.5" x2="1048.5" y1="1628.5938" y2="1628.5938"/><text fill="#000000" font-family="sans-serif" font-size="13" lengthAdjust="spacing" textLength="192" x="848" y="1607.3857">createUserRoadmap(userTopicId,</text><text fill="#000000" font-family="sans-serif" font-size="13" lengthAdjust="spacing" textLength="81" x="903.5" y="1623.7373">roadmapData)</text><polygon fill="#181818" points="1133,1671.2969,1143,1675.2969,1133,1679.2969,1137,1675.2969" style="stroke:#181818;stroke-width:1.0;"/><line style="stroke:#181818;stroke-width:1.0;" x1="838.5" x2="1139" y1="1675.2969" y2="1675.2969"/><text fill="#000000" font-family="sans-serif" font-size="13" lengthAdjust="spacing" textLength="46" x="952.25" y="1654.0889">INSERT</text><text fill="#000000" font-family="sans-serif" font-size="13" lengthAdjust="spacing" textLength="4" x="998.25" y="1654.0889">&#160;</text><text fill="#000000" font-family="sans-serif" font-size="13" lengthAdjust="spacing" textLength="29" x="1002.25" y="1654.0889">INTO</text><text fill="#000000" font-family="sans-serif" font-size="13" lengthAdjust="spacing" textLength="89" x="947.25" y="1670.4404">user_roadmaps</text><polygon fill="#181818" points="849.5,1718,839.5,1722,849.5,1726,845.5,1722" style="stroke:#181818;stroke-width:1.0;"/><line style="stroke:#181818;stroke-width:1.0;stroke-dasharray:2.0,2.0;" x1="843.5" x2="1149" y1="1722" y2="1722"/><text fill="#000000" font-family="sans-serif" font-size="13" lengthAdjust="spacing" textLength="78" x="951.25" y="1700.792">newRoadmap</text><text fill="#000000" font-family="sans-serif" font-size="13" lengthAdjust="spacing" textLength="4" x="1029.25" y="1700.792">&#160;</text><text fill="#000000" font-family="sans-serif" font-size="13" lengthAdjust="spacing" textLength="4" x="1033.25" y="1700.792">:</text><text fill="#000000" font-family="sans-serif" font-size="13" lengthAdjust="spacing" textLength="82" x="953.25" y="1717.1436">UserRoadmap</text><polygon fill="#181818" points="1037.5,1764.7031,1047.5,1768.7031,1037.5,1772.7031,1041.5,1768.7031" style="stroke:#181818;stroke-width:1.0;"/><line style="stroke:#181818;stroke-width:1.0;stroke-dasharray:2.0,2.0;" x1="833.5" x2="1043.5" y1="1768.7031" y2="1768.7031"/><text fill="#000000" font-family="sans-serif" font-size="13" lengthAdjust="spacing" textLength="98" x="888.5" y="1747.4951">createdRoadmap</text><text fill="#000000" font-family="sans-serif" font-size="13" lengthAdjust="spacing" textLength="4" x="986.5" y="1747.4951">&#160;</text><text fill="#000000" font-family="sans-serif" font-size="13" lengthAdjust="spacing" textLength="4" x="990.5" y="1747.4951">:</text><text fill="#000000" font-family="sans-serif" font-size="13" lengthAdjust="spacing" textLength="82" x="900.5" y="1763.8467">UserRoadmap</text><polygon fill="#181818" points="267.5,1834.7578,257.5,1838.7578,267.5,1842.7578,263.5,1838.7578" style="stroke:#181818;stroke-width:1.0;"/><line style="stroke:#181818;stroke-width:1.0;stroke-dasharray:2.0,2.0;" x1="261.5" x2="1053.5" y1="1838.7578" y2="1838.7578"/><text fill="#000000" font-family="sans-serif" font-size="13" lengthAdjust="spacing" textLength="107" x="598" y="1801.1982">successResponse</text><text fill="#000000" font-family="sans-serif" font-size="13" lengthAdjust="spacing" textLength="4" x="705" y="1801.1982">&#160;</text><text fill="#000000" font-family="sans-serif" font-size="13" lengthAdjust="spacing" textLength="4" x="709" y="1801.1982">:</text><text fill="#000000" font-family="sans-serif" font-size="13" lengthAdjust="spacing" textLength="34" x="638.5" y="1817.5498">JSON</text><text fill="#000000" font-family="sans-serif" font-size="13" lengthAdjust="spacing" textLength="58" x="581.5" y="1833.9014">{roadmap:</text><text fill="#000000" font-family="sans-serif" font-size="13" lengthAdjust="spacing" textLength="4" x="639.5" y="1833.9014">&#160;</text><text fill="#000000" font-family="sans-serif" font-size="13" lengthAdjust="spacing" textLength="86" x="643.5" y="1833.9014">UserRoadmap}</text><polygon fill="#181818" points="52.5,1872.1094,42.5,1876.1094,52.5,1880.1094,48.5,1876.1094" style="stroke:#181818;stroke-width:1.0;"/><line style="stroke:#181818;stroke-width:1.0;stroke-dasharray:2.0,2.0;" x1="46.5" x2="250.5" y1="1876.1094" y2="1876.1094"/><text fill="#000000" font-family="sans-serif" font-size="13" lengthAdjust="spacing" textLength="181" x="56" y="1871.2529">displayRoadmap(roadmapData)</text><!--SRC=[dLRlJ-D64FtklsAAAW4ILmgd-nAfbGW9EKwv9B8TLLMfqE8TmlQSjRkx3bnR_lVE_d1OctAGVY5nzitCcpTl5k_3ylCKClopGLaWZ0HRARQ6sqf1MZ6-PZMSAsH6L18koke-sOUBggGlGgvSwEaF7o0pJ7Ack0QWytbjn5hyXTnbcTAHBbYDnuj53Wk56gLn-PBaEuwtGY9CptwTB_FhwVWYlqul9nzpAF7MWAb0YTMT0IuK5Zv4Vn6oPfQY3fm_ezPiXMUbM4aeA3cg67N7k2TxoqgDqSaDAxwiLDL8VbwLHDGe9ZKTKOO8jMOFeK16BS79Xn-JX4wCA4JDf86zfKQr1qp3illxu49Ln4LoTtWnxfq6STEgCQWT94rxa0ckXHGPgeqeq44cMGyoOeRTC8qnQDG7MOPHdMNwGX8VFKoI9RpxcHZ309JLM9j0zc0lHLQOlSE4_eeDCsZxIWX9-3Gb_6AUvN3CQd6iV8W-Ng54HT0h-RUfQb4C86GvWeQ8NV81d9o-VtnAIJeaLMt0qePQuIqgEsPDtwkDuCWJiCMev2YZaYiq5fcXCJHbVU2J7X9ecv4K0Gks8KCAoSRJyNdkob_h4DV13or-2E_Q6arKW1xZUeJas8lCNAGJn4OkeXu6y2cRptf1MK8sIHBVrCGtvKLhXNVA7SLgH3CWLyYAFgiD2UR2powt6JHeevh2D0hvbIoHAMcN8OmdIIRPjkWrsKAt9LFKTIKr7XmwIDjFYBEM2RtGNF61TgSmo7DFCu0UawX98XaQT7dSij7riCwhHIMaQSlDR_wWJTTKDG8NzW9gYTdI4Jc7szgroxrLEwBHCPTc6zAdbGBWoVVsfDNUMibRVDcrk9sjtXgTTF3MEmBJaS4IVepjHGjeYpspi5Dl-7N6rdZGIVLcCpkqXby-ZjFnbNG_2Gu_mVSdS3OR-MJsyVIRRiS7eQst7PzWT__z7v1DMRviUIVGZk6P5SEEn6DuXLhk6v-5JZf2UIDi4pvNgQzJHwdBMJPES_h8vx5SlR2X3ulqa7Z_h1S7wglGrS6JvQ-7MgBk0lWlKmGNxdAljOw4Us7kuDFySgRVDE-sL20R7d_x_PLvXt9JIl9Af1irAytspS9LrkurmMobYJHeQXxctIvZA6Q77gtNgwDVBaPd-TXF_MbXi_5Mh6jkRxIm6j-sWoV5snuwBR_15Zk5EslGQmlCy3wwg5vOYbQafhNQhZ8zsv1MgxVioFyL9Ep93e8yxShslcuA-f-eUnS_NScXWKxInwujwJfs6UqTRpbHC1UwBjdNdkcyX54alVpy2m00]--></g></svg>